G04 #@! TF.GenerationSoftware,KiCad,Pcbnew,5.0.1+dfsg1-2*
G04 #@! TF.CreationDate,2019-02-06T11:22:59+01:00*
G04 #@! TF.ProjectId,encoder-board,656E636F6465722D626F6172642E6B69,rev?*
G04 #@! TF.SameCoordinates,Original*
G04 #@! TF.FileFunction,Legend,Top*
G04 #@! TF.FilePolarity,Positive*
%FSLAX46Y46*%
G04 Gerber Fmt 4.6, Leading zero omitted, Abs format (unit mm)*
G04 Created by KiCad (PCBNEW 5.0.1+dfsg1-2) date Mi 06 Feb 2019 11:22:59 CET*
%MOMM*%
%LPD*%
G01*
G04 APERTURE LIST*
%ADD10C,0.300000*%
%ADD11C,0.120000*%
%ADD12C,0.150000*%
G04 APERTURE END LIST*
D10*
X152567142Y-104443571D02*
X152567142Y-105443571D01*
X152210000Y-103872142D02*
X151852857Y-104943571D01*
X152781428Y-104943571D01*
X153210000Y-105443571D02*
X153995714Y-104443571D01*
X153210000Y-104443571D02*
X153995714Y-105443571D01*
X155710000Y-104657857D02*
X156210000Y-104657857D01*
X156424285Y-105443571D02*
X155710000Y-105443571D01*
X155710000Y-103943571D01*
X156424285Y-103943571D01*
X157067142Y-104443571D02*
X157067142Y-105443571D01*
X157067142Y-104586428D02*
X157138571Y-104515000D01*
X157281428Y-104443571D01*
X157495714Y-104443571D01*
X157638571Y-104515000D01*
X157710000Y-104657857D01*
X157710000Y-105443571D01*
X159067142Y-105372142D02*
X158924285Y-105443571D01*
X158638571Y-105443571D01*
X158495714Y-105372142D01*
X158424285Y-105300714D01*
X158352857Y-105157857D01*
X158352857Y-104729285D01*
X158424285Y-104586428D01*
X158495714Y-104515000D01*
X158638571Y-104443571D01*
X158924285Y-104443571D01*
X159067142Y-104515000D01*
X159924285Y-105443571D02*
X159781428Y-105372142D01*
X159710000Y-105300714D01*
X159638571Y-105157857D01*
X159638571Y-104729285D01*
X159710000Y-104586428D01*
X159781428Y-104515000D01*
X159924285Y-104443571D01*
X160138571Y-104443571D01*
X160281428Y-104515000D01*
X160352857Y-104586428D01*
X160424285Y-104729285D01*
X160424285Y-105157857D01*
X160352857Y-105300714D01*
X160281428Y-105372142D01*
X160138571Y-105443571D01*
X159924285Y-105443571D01*
X161710000Y-105443571D02*
X161710000Y-103943571D01*
X161710000Y-105372142D02*
X161567142Y-105443571D01*
X161281428Y-105443571D01*
X161138571Y-105372142D01*
X161067142Y-105300714D01*
X160995714Y-105157857D01*
X160995714Y-104729285D01*
X161067142Y-104586428D01*
X161138571Y-104515000D01*
X161281428Y-104443571D01*
X161567142Y-104443571D01*
X161710000Y-104515000D01*
X162995714Y-105372142D02*
X162852857Y-105443571D01*
X162567142Y-105443571D01*
X162424285Y-105372142D01*
X162352857Y-105229285D01*
X162352857Y-104657857D01*
X162424285Y-104515000D01*
X162567142Y-104443571D01*
X162852857Y-104443571D01*
X162995714Y-104515000D01*
X163067142Y-104657857D01*
X163067142Y-104800714D01*
X162352857Y-104943571D01*
X163710000Y-105443571D02*
X163710000Y-104443571D01*
X163710000Y-104729285D02*
X163781428Y-104586428D01*
X163852857Y-104515000D01*
X163995714Y-104443571D01*
X164138571Y-104443571D01*
X150102857Y-107422142D02*
X151245714Y-107422142D01*
X150674285Y-107993571D02*
X150674285Y-106850714D01*
X152602857Y-106993571D02*
X152602857Y-107993571D01*
X152245714Y-106422142D02*
X151888571Y-107493571D01*
X152817142Y-107493571D01*
X153245714Y-107993571D02*
X154031428Y-106993571D01*
X153245714Y-106993571D02*
X154031428Y-107993571D01*
X156245714Y-107207857D02*
X156460000Y-107279285D01*
X156531428Y-107350714D01*
X156602857Y-107493571D01*
X156602857Y-107707857D01*
X156531428Y-107850714D01*
X156460000Y-107922142D01*
X156317142Y-107993571D01*
X155745714Y-107993571D01*
X155745714Y-106493571D01*
X156245714Y-106493571D01*
X156388571Y-106565000D01*
X156460000Y-106636428D01*
X156531428Y-106779285D01*
X156531428Y-106922142D01*
X156460000Y-107065000D01*
X156388571Y-107136428D01*
X156245714Y-107207857D01*
X155745714Y-107207857D01*
X157888571Y-106993571D02*
X157888571Y-107993571D01*
X157245714Y-106993571D02*
X157245714Y-107779285D01*
X157317142Y-107922142D01*
X157460000Y-107993571D01*
X157674285Y-107993571D01*
X157817142Y-107922142D01*
X157888571Y-107850714D01*
X158388571Y-106993571D02*
X158960000Y-106993571D01*
X158602857Y-106493571D02*
X158602857Y-107779285D01*
X158674285Y-107922142D01*
X158817142Y-107993571D01*
X158960000Y-107993571D01*
X159245714Y-106993571D02*
X159817142Y-106993571D01*
X159460000Y-106493571D02*
X159460000Y-107779285D01*
X159531428Y-107922142D01*
X159674285Y-107993571D01*
X159817142Y-107993571D01*
X160531428Y-107993571D02*
X160388571Y-107922142D01*
X160317142Y-107850714D01*
X160245714Y-107707857D01*
X160245714Y-107279285D01*
X160317142Y-107136428D01*
X160388571Y-107065000D01*
X160531428Y-106993571D01*
X160745714Y-106993571D01*
X160888571Y-107065000D01*
X160960000Y-107136428D01*
X161031428Y-107279285D01*
X161031428Y-107707857D01*
X160960000Y-107850714D01*
X160888571Y-107922142D01*
X160745714Y-107993571D01*
X160531428Y-107993571D01*
X161674285Y-106993571D02*
X161674285Y-107993571D01*
X161674285Y-107136428D02*
X161745714Y-107065000D01*
X161888571Y-106993571D01*
X162102857Y-106993571D01*
X162245714Y-107065000D01*
X162317142Y-107207857D01*
X162317142Y-107993571D01*
X154388571Y-110543571D02*
X153888571Y-109829285D01*
X153531428Y-110543571D02*
X153531428Y-109043571D01*
X154102857Y-109043571D01*
X154245714Y-109115000D01*
X154317142Y-109186428D01*
X154388571Y-109329285D01*
X154388571Y-109543571D01*
X154317142Y-109686428D01*
X154245714Y-109757857D01*
X154102857Y-109829285D01*
X153531428Y-109829285D01*
X155602857Y-110472142D02*
X155460000Y-110543571D01*
X155174285Y-110543571D01*
X155031428Y-110472142D01*
X154960000Y-110329285D01*
X154960000Y-109757857D01*
X155031428Y-109615000D01*
X155174285Y-109543571D01*
X155460000Y-109543571D01*
X155602857Y-109615000D01*
X155674285Y-109757857D01*
X155674285Y-109900714D01*
X154960000Y-110043571D01*
X156174285Y-109543571D02*
X156531428Y-110543571D01*
X156888571Y-109543571D01*
X157460000Y-110400714D02*
X157531428Y-110472142D01*
X157460000Y-110543571D01*
X157388571Y-110472142D01*
X157460000Y-110400714D01*
X157460000Y-110543571D01*
X158960000Y-110543571D02*
X158102857Y-110543571D01*
X158531428Y-110543571D02*
X158531428Y-109043571D01*
X158388571Y-109257857D01*
X158245714Y-109400714D01*
X158102857Y-109472142D01*
X108628571Y-108195714D02*
X107128571Y-108195714D01*
X107128571Y-107624285D01*
X107200000Y-107481428D01*
X107271428Y-107410000D01*
X107414285Y-107338571D01*
X107628571Y-107338571D01*
X107771428Y-107410000D01*
X107842857Y-107481428D01*
X107914285Y-107624285D01*
X107914285Y-108195714D01*
X108628571Y-106695714D02*
X107128571Y-106695714D01*
X108200000Y-106195714D01*
X107128571Y-105695714D01*
X108628571Y-105695714D01*
X107128571Y-104695714D02*
X107128571Y-104410000D01*
X107200000Y-104267142D01*
X107342857Y-104124285D01*
X107628571Y-104052857D01*
X108128571Y-104052857D01*
X108414285Y-104124285D01*
X108557142Y-104267142D01*
X108628571Y-104410000D01*
X108628571Y-104695714D01*
X108557142Y-104838571D01*
X108414285Y-104981428D01*
X108128571Y-105052857D01*
X107628571Y-105052857D01*
X107342857Y-104981428D01*
X107200000Y-104838571D01*
X107128571Y-104695714D01*
X108628571Y-103410000D02*
X107128571Y-103410000D01*
X107128571Y-103052857D01*
X107200000Y-102838571D01*
X107342857Y-102695714D01*
X107485714Y-102624285D01*
X107771428Y-102552857D01*
X107985714Y-102552857D01*
X108271428Y-102624285D01*
X108414285Y-102695714D01*
X108557142Y-102838571D01*
X108628571Y-103052857D01*
X108628571Y-103410000D01*
D11*
G04 #@! TO.C,C2*
X175013252Y-104446000D02*
X174490748Y-104446000D01*
X175013252Y-105866000D02*
X174490748Y-105866000D01*
G04 #@! TO.C,C1*
X124213252Y-104954000D02*
X123690748Y-104954000D01*
X124213252Y-106374000D02*
X123690748Y-106374000D01*
G04 #@! TO.C,J1*
X103826000Y-97730000D02*
X105156000Y-97730000D01*
X103826000Y-99060000D02*
X103826000Y-97730000D01*
X103826000Y-100330000D02*
X106486000Y-100330000D01*
X106486000Y-100330000D02*
X106486000Y-113090000D01*
X103826000Y-100330000D02*
X103826000Y-113090000D01*
X103826000Y-113090000D02*
X106486000Y-113090000D01*
D12*
G04 #@! TO.C,SW2*
X145993948Y-94516052D02*
G75*
G03X145993948Y-94516052I-2483948J0D01*
G01*
X135410000Y-86000000D02*
X135410000Y-102700000D01*
X151610000Y-86000000D02*
X135410000Y-86000000D01*
X151610000Y-102700000D02*
X151610000Y-86000000D01*
X135410000Y-102700000D02*
X151610000Y-102700000D01*
G04 #@! TO.C,SW4*
X196793948Y-94516052D02*
G75*
G03X196793948Y-94516052I-2483948J0D01*
G01*
X186210000Y-86000000D02*
X186210000Y-102700000D01*
X202410000Y-86000000D02*
X186210000Y-86000000D01*
X202410000Y-102700000D02*
X202410000Y-86000000D01*
X186210000Y-102700000D02*
X202410000Y-102700000D01*
G04 #@! TO.C,SW1*
X120593948Y-94516052D02*
G75*
G03X120593948Y-94516052I-2483948J0D01*
G01*
X110010000Y-86000000D02*
X110010000Y-102700000D01*
X126210000Y-86000000D02*
X110010000Y-86000000D01*
X126210000Y-102700000D02*
X126210000Y-86000000D01*
X110010000Y-102700000D02*
X126210000Y-102700000D01*
G04 #@! TO.C,SW3*
X171393948Y-94516052D02*
G75*
G03X171393948Y-94516052I-2483948J0D01*
G01*
X160810000Y-86000000D02*
X160810000Y-102700000D01*
X177010000Y-86000000D02*
X160810000Y-86000000D01*
X177010000Y-102700000D02*
X177010000Y-86000000D01*
X160810000Y-102700000D02*
X177010000Y-102700000D01*
G04 #@! TO.C,SW5*
X121575545Y-116840000D02*
G75*
G03X121575545Y-116840000I-3465545J0D01*
G01*
X112210000Y-122640000D02*
X124010000Y-122640000D01*
X112210000Y-111040000D02*
X112210000Y-122640000D01*
X124010000Y-111040000D02*
X112210000Y-111040000D01*
X124010000Y-122640000D02*
X124010000Y-111040000D01*
G04 #@! TO.C,SW6*
X146975545Y-116840000D02*
G75*
G03X146975545Y-116840000I-3465545J0D01*
G01*
X137610000Y-122640000D02*
X149410000Y-122640000D01*
X137610000Y-111040000D02*
X137610000Y-122640000D01*
X149410000Y-111040000D02*
X137610000Y-111040000D01*
X149410000Y-122640000D02*
X149410000Y-111040000D01*
G04 #@! TO.C,SW7*
X172375545Y-116840000D02*
G75*
G03X172375545Y-116840000I-3465545J0D01*
G01*
X163010000Y-122640000D02*
X174810000Y-122640000D01*
X163010000Y-111040000D02*
X163010000Y-122640000D01*
X174810000Y-111040000D02*
X163010000Y-111040000D01*
X174810000Y-122640000D02*
X174810000Y-111040000D01*
G04 #@! TO.C,SW8*
X197775545Y-116840000D02*
G75*
G03X197775545Y-116840000I-3465545J0D01*
G01*
X188410000Y-122640000D02*
X200210000Y-122640000D01*
X188410000Y-111040000D02*
X188410000Y-122640000D01*
X200210000Y-111040000D02*
X188410000Y-111040000D01*
X200210000Y-122640000D02*
X200210000Y-111040000D01*
G04 #@! TO.C,U2*
X177195000Y-110025000D02*
X177195000Y-111400000D01*
X187320000Y-110025000D02*
X187320000Y-105875000D01*
X177170000Y-110025000D02*
X177170000Y-105875000D01*
X187320000Y-110025000D02*
X187215000Y-110025000D01*
X187320000Y-105875000D02*
X187215000Y-105875000D01*
X177170000Y-105875000D02*
X177275000Y-105875000D01*
X177170000Y-110025000D02*
X177195000Y-110025000D01*
G04 #@! TO.C,U1*
X126395000Y-110660000D02*
X126395000Y-112035000D01*
X136520000Y-110660000D02*
X136520000Y-106510000D01*
X126370000Y-110660000D02*
X126370000Y-106510000D01*
X136520000Y-110660000D02*
X136415000Y-110660000D01*
X136520000Y-106510000D02*
X136415000Y-106510000D01*
X126370000Y-106510000D02*
X126475000Y-106510000D01*
X126370000Y-110660000D02*
X126395000Y-110660000D01*
G04 #@! TO.C,H4*
X195326095Y-107132380D02*
X195326095Y-106132380D01*
X195326095Y-106608571D02*
X195897523Y-106608571D01*
X195897523Y-107132380D02*
X195897523Y-106132380D01*
X196802285Y-106465714D02*
X196802285Y-107132380D01*
X196564190Y-106084761D02*
X196326095Y-106799047D01*
X196945142Y-106799047D01*
G04 #@! TO.C,H3*
X168783095Y-107132380D02*
X168783095Y-106132380D01*
X168783095Y-106608571D02*
X169354523Y-106608571D01*
X169354523Y-107132380D02*
X169354523Y-106132380D01*
X169735476Y-106132380D02*
X170354523Y-106132380D01*
X170021190Y-106513333D01*
X170164047Y-106513333D01*
X170259285Y-106560952D01*
X170306904Y-106608571D01*
X170354523Y-106703809D01*
X170354523Y-106941904D01*
X170306904Y-107037142D01*
X170259285Y-107084761D01*
X170164047Y-107132380D01*
X169878333Y-107132380D01*
X169783095Y-107084761D01*
X169735476Y-107037142D01*
G04 #@! TO.C,H2*
X105283095Y-118308380D02*
X105283095Y-117308380D01*
X105283095Y-117784571D02*
X105854523Y-117784571D01*
X105854523Y-118308380D02*
X105854523Y-117308380D01*
X106283095Y-117403619D02*
X106330714Y-117356000D01*
X106425952Y-117308380D01*
X106664047Y-117308380D01*
X106759285Y-117356000D01*
X106806904Y-117403619D01*
X106854523Y-117498857D01*
X106854523Y-117594095D01*
X106806904Y-117736952D01*
X106235476Y-118308380D01*
X106854523Y-118308380D01*
G04 #@! TO.C,H1*
X105410095Y-92908380D02*
X105410095Y-91908380D01*
X105410095Y-92384571D02*
X105981523Y-92384571D01*
X105981523Y-92908380D02*
X105981523Y-91908380D01*
X106981523Y-92908380D02*
X106410095Y-92908380D01*
X106695809Y-92908380D02*
X106695809Y-91908380D01*
X106600571Y-92051238D01*
X106505333Y-92146476D01*
X106410095Y-92194095D01*
G04 #@! TO.C,C2*
X171537333Y-105513142D02*
X171489714Y-105560761D01*
X171346857Y-105608380D01*
X171251619Y-105608380D01*
X171108761Y-105560761D01*
X171013523Y-105465523D01*
X170965904Y-105370285D01*
X170918285Y-105179809D01*
X170918285Y-105036952D01*
X170965904Y-104846476D01*
X171013523Y-104751238D01*
X171108761Y-104656000D01*
X171251619Y-104608380D01*
X171346857Y-104608380D01*
X171489714Y-104656000D01*
X171537333Y-104703619D01*
X171918285Y-104703619D02*
X171965904Y-104656000D01*
X172061142Y-104608380D01*
X172299238Y-104608380D01*
X172394476Y-104656000D01*
X172442095Y-104703619D01*
X172489714Y-104798857D01*
X172489714Y-104894095D01*
X172442095Y-105036952D01*
X171870666Y-105608380D01*
X172489714Y-105608380D01*
G04 #@! TO.C,C1*
X120737333Y-106021142D02*
X120689714Y-106068761D01*
X120546857Y-106116380D01*
X120451619Y-106116380D01*
X120308761Y-106068761D01*
X120213523Y-105973523D01*
X120165904Y-105878285D01*
X120118285Y-105687809D01*
X120118285Y-105544952D01*
X120165904Y-105354476D01*
X120213523Y-105259238D01*
X120308761Y-105164000D01*
X120451619Y-105116380D01*
X120546857Y-105116380D01*
X120689714Y-105164000D01*
X120737333Y-105211619D01*
X121689714Y-106116380D02*
X121118285Y-106116380D01*
X121404000Y-106116380D02*
X121404000Y-105116380D01*
X121308761Y-105259238D01*
X121213523Y-105354476D01*
X121118285Y-105402095D01*
G04 #@! TO.C,J1*
X104822666Y-96182380D02*
X104822666Y-96896666D01*
X104775047Y-97039523D01*
X104679809Y-97134761D01*
X104536952Y-97182380D01*
X104441714Y-97182380D01*
X105822666Y-97182380D02*
X105251238Y-97182380D01*
X105536952Y-97182380D02*
X105536952Y-96182380D01*
X105441714Y-96325238D01*
X105346476Y-96420476D01*
X105251238Y-96468095D01*
G04 #@! TO.C,RN1*
X130119523Y-90622380D02*
X129786190Y-90146190D01*
X129548095Y-90622380D02*
X129548095Y-89622380D01*
X129929047Y-89622380D01*
X130024285Y-89670000D01*
X130071904Y-89717619D01*
X130119523Y-89812857D01*
X130119523Y-89955714D01*
X130071904Y-90050952D01*
X130024285Y-90098571D01*
X129929047Y-90146190D01*
X129548095Y-90146190D01*
X130548095Y-90622380D02*
X130548095Y-89622380D01*
X131119523Y-90622380D01*
X131119523Y-89622380D01*
X132119523Y-90622380D02*
X131548095Y-90622380D01*
X131833809Y-90622380D02*
X131833809Y-89622380D01*
X131738571Y-89765238D01*
X131643333Y-89860476D01*
X131548095Y-89908095D01*
G04 #@! TO.C,RN2*
X155519523Y-90622380D02*
X155186190Y-90146190D01*
X154948095Y-90622380D02*
X154948095Y-89622380D01*
X155329047Y-89622380D01*
X155424285Y-89670000D01*
X155471904Y-89717619D01*
X155519523Y-89812857D01*
X155519523Y-89955714D01*
X155471904Y-90050952D01*
X155424285Y-90098571D01*
X155329047Y-90146190D01*
X154948095Y-90146190D01*
X155948095Y-90622380D02*
X155948095Y-89622380D01*
X156519523Y-90622380D01*
X156519523Y-89622380D01*
X156948095Y-89717619D02*
X156995714Y-89670000D01*
X157090952Y-89622380D01*
X157329047Y-89622380D01*
X157424285Y-89670000D01*
X157471904Y-89717619D01*
X157519523Y-89812857D01*
X157519523Y-89908095D01*
X157471904Y-90050952D01*
X156900476Y-90622380D01*
X157519523Y-90622380D01*
G04 #@! TO.C,RN3*
X180919523Y-90622380D02*
X180586190Y-90146190D01*
X180348095Y-90622380D02*
X180348095Y-89622380D01*
X180729047Y-89622380D01*
X180824285Y-89670000D01*
X180871904Y-89717619D01*
X180919523Y-89812857D01*
X180919523Y-89955714D01*
X180871904Y-90050952D01*
X180824285Y-90098571D01*
X180729047Y-90146190D01*
X180348095Y-90146190D01*
X181348095Y-90622380D02*
X181348095Y-89622380D01*
X181919523Y-90622380D01*
X181919523Y-89622380D01*
X182300476Y-89622380D02*
X182919523Y-89622380D01*
X182586190Y-90003333D01*
X182729047Y-90003333D01*
X182824285Y-90050952D01*
X182871904Y-90098571D01*
X182919523Y-90193809D01*
X182919523Y-90431904D01*
X182871904Y-90527142D01*
X182824285Y-90574761D01*
X182729047Y-90622380D01*
X182443333Y-90622380D01*
X182348095Y-90574761D01*
X182300476Y-90527142D01*
G04 #@! TO.C,RN4*
X184221523Y-121610380D02*
X183888190Y-121134190D01*
X183650095Y-121610380D02*
X183650095Y-120610380D01*
X184031047Y-120610380D01*
X184126285Y-120658000D01*
X184173904Y-120705619D01*
X184221523Y-120800857D01*
X184221523Y-120943714D01*
X184173904Y-121038952D01*
X184126285Y-121086571D01*
X184031047Y-121134190D01*
X183650095Y-121134190D01*
X184650095Y-121610380D02*
X184650095Y-120610380D01*
X185221523Y-121610380D01*
X185221523Y-120610380D01*
X186126285Y-120943714D02*
X186126285Y-121610380D01*
X185888190Y-120562761D02*
X185650095Y-121277047D01*
X186269142Y-121277047D01*
G04 #@! TO.C,SW2*
X142176666Y-104036761D02*
X142319523Y-104084380D01*
X142557619Y-104084380D01*
X142652857Y-104036761D01*
X142700476Y-103989142D01*
X142748095Y-103893904D01*
X142748095Y-103798666D01*
X142700476Y-103703428D01*
X142652857Y-103655809D01*
X142557619Y-103608190D01*
X142367142Y-103560571D01*
X142271904Y-103512952D01*
X142224285Y-103465333D01*
X142176666Y-103370095D01*
X142176666Y-103274857D01*
X142224285Y-103179619D01*
X142271904Y-103132000D01*
X142367142Y-103084380D01*
X142605238Y-103084380D01*
X142748095Y-103132000D01*
X143081428Y-103084380D02*
X143319523Y-104084380D01*
X143510000Y-103370095D01*
X143700476Y-104084380D01*
X143938571Y-103084380D01*
X144271904Y-103179619D02*
X144319523Y-103132000D01*
X144414761Y-103084380D01*
X144652857Y-103084380D01*
X144748095Y-103132000D01*
X144795714Y-103179619D01*
X144843333Y-103274857D01*
X144843333Y-103370095D01*
X144795714Y-103512952D01*
X144224285Y-104084380D01*
X144843333Y-104084380D01*
G04 #@! TO.C,SW4*
X192976666Y-103909761D02*
X193119523Y-103957380D01*
X193357619Y-103957380D01*
X193452857Y-103909761D01*
X193500476Y-103862142D01*
X193548095Y-103766904D01*
X193548095Y-103671666D01*
X193500476Y-103576428D01*
X193452857Y-103528809D01*
X193357619Y-103481190D01*
X193167142Y-103433571D01*
X193071904Y-103385952D01*
X193024285Y-103338333D01*
X192976666Y-103243095D01*
X192976666Y-103147857D01*
X193024285Y-103052619D01*
X193071904Y-103005000D01*
X193167142Y-102957380D01*
X193405238Y-102957380D01*
X193548095Y-103005000D01*
X193881428Y-102957380D02*
X194119523Y-103957380D01*
X194310000Y-103243095D01*
X194500476Y-103957380D01*
X194738571Y-102957380D01*
X195548095Y-103290714D02*
X195548095Y-103957380D01*
X195310000Y-102909761D02*
X195071904Y-103624047D01*
X195690952Y-103624047D01*
G04 #@! TO.C,SW1*
X116776666Y-104036761D02*
X116919523Y-104084380D01*
X117157619Y-104084380D01*
X117252857Y-104036761D01*
X117300476Y-103989142D01*
X117348095Y-103893904D01*
X117348095Y-103798666D01*
X117300476Y-103703428D01*
X117252857Y-103655809D01*
X117157619Y-103608190D01*
X116967142Y-103560571D01*
X116871904Y-103512952D01*
X116824285Y-103465333D01*
X116776666Y-103370095D01*
X116776666Y-103274857D01*
X116824285Y-103179619D01*
X116871904Y-103132000D01*
X116967142Y-103084380D01*
X117205238Y-103084380D01*
X117348095Y-103132000D01*
X117681428Y-103084380D02*
X117919523Y-104084380D01*
X118110000Y-103370095D01*
X118300476Y-104084380D01*
X118538571Y-103084380D01*
X119443333Y-104084380D02*
X118871904Y-104084380D01*
X119157619Y-104084380D02*
X119157619Y-103084380D01*
X119062380Y-103227238D01*
X118967142Y-103322476D01*
X118871904Y-103370095D01*
G04 #@! TO.C,SW3*
X167576666Y-103909761D02*
X167719523Y-103957380D01*
X167957619Y-103957380D01*
X168052857Y-103909761D01*
X168100476Y-103862142D01*
X168148095Y-103766904D01*
X168148095Y-103671666D01*
X168100476Y-103576428D01*
X168052857Y-103528809D01*
X167957619Y-103481190D01*
X167767142Y-103433571D01*
X167671904Y-103385952D01*
X167624285Y-103338333D01*
X167576666Y-103243095D01*
X167576666Y-103147857D01*
X167624285Y-103052619D01*
X167671904Y-103005000D01*
X167767142Y-102957380D01*
X168005238Y-102957380D01*
X168148095Y-103005000D01*
X168481428Y-102957380D02*
X168719523Y-103957380D01*
X168910000Y-103243095D01*
X169100476Y-103957380D01*
X169338571Y-102957380D01*
X169624285Y-102957380D02*
X170243333Y-102957380D01*
X169910000Y-103338333D01*
X170052857Y-103338333D01*
X170148095Y-103385952D01*
X170195714Y-103433571D01*
X170243333Y-103528809D01*
X170243333Y-103766904D01*
X170195714Y-103862142D01*
X170148095Y-103909761D01*
X170052857Y-103957380D01*
X169767142Y-103957380D01*
X169671904Y-103909761D01*
X169624285Y-103862142D01*
G04 #@! TO.C,SW5*
X116776666Y-110640761D02*
X116919523Y-110688380D01*
X117157619Y-110688380D01*
X117252857Y-110640761D01*
X117300476Y-110593142D01*
X117348095Y-110497904D01*
X117348095Y-110402666D01*
X117300476Y-110307428D01*
X117252857Y-110259809D01*
X117157619Y-110212190D01*
X116967142Y-110164571D01*
X116871904Y-110116952D01*
X116824285Y-110069333D01*
X116776666Y-109974095D01*
X116776666Y-109878857D01*
X116824285Y-109783619D01*
X116871904Y-109736000D01*
X116967142Y-109688380D01*
X117205238Y-109688380D01*
X117348095Y-109736000D01*
X117681428Y-109688380D02*
X117919523Y-110688380D01*
X118110000Y-109974095D01*
X118300476Y-110688380D01*
X118538571Y-109688380D01*
X119395714Y-109688380D02*
X118919523Y-109688380D01*
X118871904Y-110164571D01*
X118919523Y-110116952D01*
X119014761Y-110069333D01*
X119252857Y-110069333D01*
X119348095Y-110116952D01*
X119395714Y-110164571D01*
X119443333Y-110259809D01*
X119443333Y-110497904D01*
X119395714Y-110593142D01*
X119348095Y-110640761D01*
X119252857Y-110688380D01*
X119014761Y-110688380D01*
X118919523Y-110640761D01*
X118871904Y-110593142D01*
G04 #@! TO.C,SW6*
X142176666Y-110640761D02*
X142319523Y-110688380D01*
X142557619Y-110688380D01*
X142652857Y-110640761D01*
X142700476Y-110593142D01*
X142748095Y-110497904D01*
X142748095Y-110402666D01*
X142700476Y-110307428D01*
X142652857Y-110259809D01*
X142557619Y-110212190D01*
X142367142Y-110164571D01*
X142271904Y-110116952D01*
X142224285Y-110069333D01*
X142176666Y-109974095D01*
X142176666Y-109878857D01*
X142224285Y-109783619D01*
X142271904Y-109736000D01*
X142367142Y-109688380D01*
X142605238Y-109688380D01*
X142748095Y-109736000D01*
X143081428Y-109688380D02*
X143319523Y-110688380D01*
X143510000Y-109974095D01*
X143700476Y-110688380D01*
X143938571Y-109688380D01*
X144748095Y-109688380D02*
X144557619Y-109688380D01*
X144462380Y-109736000D01*
X144414761Y-109783619D01*
X144319523Y-109926476D01*
X144271904Y-110116952D01*
X144271904Y-110497904D01*
X144319523Y-110593142D01*
X144367142Y-110640761D01*
X144462380Y-110688380D01*
X144652857Y-110688380D01*
X144748095Y-110640761D01*
X144795714Y-110593142D01*
X144843333Y-110497904D01*
X144843333Y-110259809D01*
X144795714Y-110164571D01*
X144748095Y-110116952D01*
X144652857Y-110069333D01*
X144462380Y-110069333D01*
X144367142Y-110116952D01*
X144319523Y-110164571D01*
X144271904Y-110259809D01*
G04 #@! TO.C,SW7*
X167576666Y-110640761D02*
X167719523Y-110688380D01*
X167957619Y-110688380D01*
X168052857Y-110640761D01*
X168100476Y-110593142D01*
X168148095Y-110497904D01*
X168148095Y-110402666D01*
X168100476Y-110307428D01*
X168052857Y-110259809D01*
X167957619Y-110212190D01*
X167767142Y-110164571D01*
X167671904Y-110116952D01*
X167624285Y-110069333D01*
X167576666Y-109974095D01*
X167576666Y-109878857D01*
X167624285Y-109783619D01*
X167671904Y-109736000D01*
X167767142Y-109688380D01*
X168005238Y-109688380D01*
X168148095Y-109736000D01*
X168481428Y-109688380D02*
X168719523Y-110688380D01*
X168910000Y-109974095D01*
X169100476Y-110688380D01*
X169338571Y-109688380D01*
X169624285Y-109688380D02*
X170290952Y-109688380D01*
X169862380Y-110688380D01*
G04 #@! TO.C,SW8*
X192976666Y-110640761D02*
X193119523Y-110688380D01*
X193357619Y-110688380D01*
X193452857Y-110640761D01*
X193500476Y-110593142D01*
X193548095Y-110497904D01*
X193548095Y-110402666D01*
X193500476Y-110307428D01*
X193452857Y-110259809D01*
X193357619Y-110212190D01*
X193167142Y-110164571D01*
X193071904Y-110116952D01*
X193024285Y-110069333D01*
X192976666Y-109974095D01*
X192976666Y-109878857D01*
X193024285Y-109783619D01*
X193071904Y-109736000D01*
X193167142Y-109688380D01*
X193405238Y-109688380D01*
X193548095Y-109736000D01*
X193881428Y-109688380D02*
X194119523Y-110688380D01*
X194310000Y-109974095D01*
X194500476Y-110688380D01*
X194738571Y-109688380D01*
X195262380Y-110116952D02*
X195167142Y-110069333D01*
X195119523Y-110021714D01*
X195071904Y-109926476D01*
X195071904Y-109878857D01*
X195119523Y-109783619D01*
X195167142Y-109736000D01*
X195262380Y-109688380D01*
X195452857Y-109688380D01*
X195548095Y-109736000D01*
X195595714Y-109783619D01*
X195643333Y-109878857D01*
X195643333Y-109926476D01*
X195595714Y-110021714D01*
X195548095Y-110069333D01*
X195452857Y-110116952D01*
X195262380Y-110116952D01*
X195167142Y-110164571D01*
X195119523Y-110212190D01*
X195071904Y-110307428D01*
X195071904Y-110497904D01*
X195119523Y-110593142D01*
X195167142Y-110640761D01*
X195262380Y-110688380D01*
X195452857Y-110688380D01*
X195548095Y-110640761D01*
X195595714Y-110593142D01*
X195643333Y-110497904D01*
X195643333Y-110307428D01*
X195595714Y-110212190D01*
X195548095Y-110164571D01*
X195452857Y-110116952D01*
G04 #@! TO.C,U2*
X187706095Y-107148380D02*
X187706095Y-107957904D01*
X187753714Y-108053142D01*
X187801333Y-108100761D01*
X187896571Y-108148380D01*
X188087047Y-108148380D01*
X188182285Y-108100761D01*
X188229904Y-108053142D01*
X188277523Y-107957904D01*
X188277523Y-107148380D01*
X188706095Y-107243619D02*
X188753714Y-107196000D01*
X188848952Y-107148380D01*
X189087047Y-107148380D01*
X189182285Y-107196000D01*
X189229904Y-107243619D01*
X189277523Y-107338857D01*
X189277523Y-107434095D01*
X189229904Y-107576952D01*
X188658476Y-108148380D01*
X189277523Y-108148380D01*
G04 #@! TO.C,U1*
X137033095Y-107656380D02*
X137033095Y-108465904D01*
X137080714Y-108561142D01*
X137128333Y-108608761D01*
X137223571Y-108656380D01*
X137414047Y-108656380D01*
X137509285Y-108608761D01*
X137556904Y-108561142D01*
X137604523Y-108465904D01*
X137604523Y-107656380D01*
X138604523Y-108656380D02*
X138033095Y-108656380D01*
X138318809Y-108656380D02*
X138318809Y-107656380D01*
X138223571Y-107799238D01*
X138128333Y-107894476D01*
X138033095Y-107942095D01*
G04 #@! TD*
M02*
