M48
;DRILL file {KiCad 5.0.1+dfsg1-2} date Mi 06 Feb 2019 11:18:40 CET
;FORMAT={-:-/ absolute / metric / decimal}
FMAT,2
METRIC,TZ
T1C0.400
T2C1.000
T3C1.300
T4C1.800
%
G90
G05
M71
T1
X109.855Y-104.14
X109.855Y-110.49
X124.46Y-110.744
X124.968Y-109.22
X125.222Y-107.696
X128.016Y-88.48
X128.016Y-90.805
X128.524Y-96.52
X130.556Y-95.504
X132.588Y-108.204
X152.146Y-105.885
X152.908Y-88.48
X156.464Y-121.412
X157.48Y-97.536
X159.004Y-88.392
X174.244Y-107.188
X174.244Y-108.712
X174.338Y-110.65
X178.435Y-114.3
X178.435Y-117.915
X179.705Y-116.84
X180.34Y-114.3
X182.88Y-92.075
X182.88Y-97.155
X184.15Y-99.06
X184.785Y-88.48
X185.42Y-103.378
X188.976Y-105.156
T2
X191.81Y-87.1
X191.81Y-101.6
X194.31Y-101.6
X196.81Y-87.1
X196.81Y-101.6
X115.61Y-87.1
X115.61Y-101.6
X118.11Y-101.6
X120.61Y-87.1
X120.61Y-101.6
X141.01Y-87.1
X141.01Y-101.6
X143.51Y-101.6
X146.01Y-87.1
X146.01Y-101.6
X105.156Y-99.06
X105.156Y-101.6
X105.156Y-104.14
X105.156Y-106.68
X105.156Y-109.22
X105.156Y-111.76
X166.41Y-87.1
X166.41Y-101.6
X168.91Y-101.6
X171.41Y-87.1
X171.41Y-101.6
T3
X188.06Y-114.34
X188.06Y-119.34
X200.56Y-114.34
X200.56Y-119.34
X162.66Y-114.34
X162.66Y-119.34
X175.16Y-114.34
X175.16Y-119.34
X111.86Y-114.34
X111.86Y-119.34
X124.36Y-114.34
X124.36Y-119.34
X137.26Y-114.34
X137.26Y-119.34
X149.76Y-114.34
X149.76Y-119.34
T4
X111.51Y-93.7G85X111.51Y-94.5
G05
X124.71Y-93.7G85X124.71Y-94.5
G05
X136.91Y-93.7G85X136.91Y-94.5
G05
X150.11Y-93.7G85X150.11Y-94.5
G05
X162.31Y-93.7G85X162.31Y-94.5
G05
X175.51Y-93.7G85X175.51Y-94.5
G05
X187.71Y-93.7G85X187.71Y-94.5
G05
X200.91Y-93.7G85X200.91Y-94.5
G05
T0
M30
