G04 #@! TF.GenerationSoftware,KiCad,Pcbnew,5.0.1+dfsg1-2*
G04 #@! TF.CreationDate,2019-02-06T11:22:59+01:00*
G04 #@! TF.ProjectId,encoder-board,656E636F6465722D626F6172642E6B69,rev?*
G04 #@! TF.SameCoordinates,Original*
G04 #@! TF.FileFunction,Soldermask,Top*
G04 #@! TF.FilePolarity,Negative*
%FSLAX46Y46*%
G04 Gerber Fmt 4.6, Leading zero omitted, Abs format (unit mm)*
G04 Created by KiCad (PCBNEW 5.0.1+dfsg1-2) date Mi 06 Feb 2019 11:22:59 CET*
%MOMM*%
%LPD*%
G01*
G04 APERTURE LIST*
%ADD10C,0.100000*%
G04 APERTURE END LIST*
D10*
G36*
X181531000Y-122421000D02*
X181029000Y-122421000D01*
X181029000Y-121419000D01*
X181531000Y-121419000D01*
X181531000Y-122421000D01*
X181531000Y-122421000D01*
G37*
G36*
X180731000Y-122421000D02*
X180229000Y-122421000D01*
X180229000Y-121419000D01*
X180731000Y-121419000D01*
X180731000Y-122421000D01*
X180731000Y-122421000D01*
G37*
G36*
X183131000Y-122421000D02*
X182629000Y-122421000D01*
X182629000Y-121419000D01*
X183131000Y-121419000D01*
X183131000Y-122421000D01*
X183131000Y-122421000D01*
G37*
G36*
X182331000Y-122421000D02*
X181829000Y-122421000D01*
X181829000Y-121419000D01*
X182331000Y-121419000D01*
X182331000Y-122421000D01*
X182331000Y-122421000D01*
G37*
G36*
X106424485Y-119398996D02*
X106424487Y-119398997D01*
X106424488Y-119398997D01*
X106555744Y-119453365D01*
X106661255Y-119497069D01*
X106874342Y-119639449D01*
X107055551Y-119820658D01*
X107197931Y-120033745D01*
X107296004Y-120270515D01*
X107346000Y-120521861D01*
X107346000Y-120778139D01*
X107296004Y-121029485D01*
X107197931Y-121266255D01*
X107055551Y-121479342D01*
X106874342Y-121660551D01*
X106874339Y-121660553D01*
X106661255Y-121802931D01*
X106424488Y-121901003D01*
X106424487Y-121901003D01*
X106424485Y-121901004D01*
X106173139Y-121951000D01*
X105916861Y-121951000D01*
X105665515Y-121901004D01*
X105665513Y-121901003D01*
X105665512Y-121901003D01*
X105428745Y-121802931D01*
X105215661Y-121660553D01*
X105215658Y-121660551D01*
X105034449Y-121479342D01*
X104892069Y-121266255D01*
X104793996Y-121029485D01*
X104744000Y-120778139D01*
X104744000Y-120521861D01*
X104793996Y-120270515D01*
X104892069Y-120033745D01*
X105034449Y-119820658D01*
X105215658Y-119639449D01*
X105428745Y-119497069D01*
X105534256Y-119453365D01*
X105665512Y-119398997D01*
X105665513Y-119398997D01*
X105665515Y-119398996D01*
X105916861Y-119349000D01*
X106173139Y-119349000D01*
X106424485Y-119398996D01*
X106424485Y-119398996D01*
G37*
G36*
X180731000Y-120721000D02*
X180229000Y-120721000D01*
X180229000Y-119719000D01*
X180731000Y-119719000D01*
X180731000Y-120721000D01*
X180731000Y-120721000D01*
G37*
G36*
X183131000Y-120721000D02*
X182629000Y-120721000D01*
X182629000Y-119719000D01*
X183131000Y-119719000D01*
X183131000Y-120721000D01*
X183131000Y-120721000D01*
G37*
G36*
X182331000Y-120721000D02*
X181829000Y-120721000D01*
X181829000Y-119719000D01*
X182331000Y-119719000D01*
X182331000Y-120721000D01*
X182331000Y-120721000D01*
G37*
G36*
X181531000Y-120721000D02*
X181029000Y-120721000D01*
X181029000Y-119719000D01*
X181531000Y-119719000D01*
X181531000Y-120721000D01*
X181531000Y-120721000D01*
G37*
G36*
X200895734Y-118233232D02*
X201105202Y-118319996D01*
X201293723Y-118445962D01*
X201454038Y-118606277D01*
X201580004Y-118794798D01*
X201666768Y-119004266D01*
X201711000Y-119226635D01*
X201711000Y-119453365D01*
X201666768Y-119675734D01*
X201580004Y-119885202D01*
X201454038Y-120073723D01*
X201293723Y-120234038D01*
X201105202Y-120360004D01*
X200895734Y-120446768D01*
X200673365Y-120491000D01*
X200446635Y-120491000D01*
X200224266Y-120446768D01*
X200014798Y-120360004D01*
X199826277Y-120234038D01*
X199665962Y-120073723D01*
X199539996Y-119885202D01*
X199453232Y-119675734D01*
X199409000Y-119453365D01*
X199409000Y-119226635D01*
X199453232Y-119004266D01*
X199539996Y-118794798D01*
X199665962Y-118606277D01*
X199826277Y-118445962D01*
X200014798Y-118319996D01*
X200224266Y-118233232D01*
X200446635Y-118189000D01*
X200673365Y-118189000D01*
X200895734Y-118233232D01*
X200895734Y-118233232D01*
G37*
G36*
X188395734Y-118233232D02*
X188605202Y-118319996D01*
X188793723Y-118445962D01*
X188954038Y-118606277D01*
X189080004Y-118794798D01*
X189166768Y-119004266D01*
X189211000Y-119226635D01*
X189211000Y-119453365D01*
X189166768Y-119675734D01*
X189080004Y-119885202D01*
X188954038Y-120073723D01*
X188793723Y-120234038D01*
X188605202Y-120360004D01*
X188395734Y-120446768D01*
X188173365Y-120491000D01*
X187946635Y-120491000D01*
X187724266Y-120446768D01*
X187514798Y-120360004D01*
X187326277Y-120234038D01*
X187165962Y-120073723D01*
X187039996Y-119885202D01*
X186953232Y-119675734D01*
X186909000Y-119453365D01*
X186909000Y-119226635D01*
X186953232Y-119004266D01*
X187039996Y-118794798D01*
X187165962Y-118606277D01*
X187326277Y-118445962D01*
X187514798Y-118319996D01*
X187724266Y-118233232D01*
X187946635Y-118189000D01*
X188173365Y-118189000D01*
X188395734Y-118233232D01*
X188395734Y-118233232D01*
G37*
G36*
X162995734Y-118233232D02*
X163205202Y-118319996D01*
X163393723Y-118445962D01*
X163554038Y-118606277D01*
X163680004Y-118794798D01*
X163766768Y-119004266D01*
X163811000Y-119226635D01*
X163811000Y-119453365D01*
X163766768Y-119675734D01*
X163680004Y-119885202D01*
X163554038Y-120073723D01*
X163393723Y-120234038D01*
X163205202Y-120360004D01*
X162995734Y-120446768D01*
X162773365Y-120491000D01*
X162546635Y-120491000D01*
X162324266Y-120446768D01*
X162114798Y-120360004D01*
X161926277Y-120234038D01*
X161765962Y-120073723D01*
X161639996Y-119885202D01*
X161553232Y-119675734D01*
X161509000Y-119453365D01*
X161509000Y-119226635D01*
X161553232Y-119004266D01*
X161639996Y-118794798D01*
X161765962Y-118606277D01*
X161926277Y-118445962D01*
X162114798Y-118319996D01*
X162324266Y-118233232D01*
X162546635Y-118189000D01*
X162773365Y-118189000D01*
X162995734Y-118233232D01*
X162995734Y-118233232D01*
G37*
G36*
X175495734Y-118233232D02*
X175705202Y-118319996D01*
X175893723Y-118445962D01*
X176054038Y-118606277D01*
X176180004Y-118794798D01*
X176266768Y-119004266D01*
X176311000Y-119226635D01*
X176311000Y-119453365D01*
X176266768Y-119675734D01*
X176180004Y-119885202D01*
X176054038Y-120073723D01*
X175893723Y-120234038D01*
X175705202Y-120360004D01*
X175495734Y-120446768D01*
X175273365Y-120491000D01*
X175046635Y-120491000D01*
X174824266Y-120446768D01*
X174614798Y-120360004D01*
X174426277Y-120234038D01*
X174265962Y-120073723D01*
X174139996Y-119885202D01*
X174053232Y-119675734D01*
X174009000Y-119453365D01*
X174009000Y-119226635D01*
X174053232Y-119004266D01*
X174139996Y-118794798D01*
X174265962Y-118606277D01*
X174426277Y-118445962D01*
X174614798Y-118319996D01*
X174824266Y-118233232D01*
X175046635Y-118189000D01*
X175273365Y-118189000D01*
X175495734Y-118233232D01*
X175495734Y-118233232D01*
G37*
G36*
X150095734Y-118233232D02*
X150305202Y-118319996D01*
X150493723Y-118445962D01*
X150654038Y-118606277D01*
X150780004Y-118794798D01*
X150866768Y-119004266D01*
X150911000Y-119226635D01*
X150911000Y-119453365D01*
X150866768Y-119675734D01*
X150780004Y-119885202D01*
X150654038Y-120073723D01*
X150493723Y-120234038D01*
X150305202Y-120360004D01*
X150095734Y-120446768D01*
X149873365Y-120491000D01*
X149646635Y-120491000D01*
X149424266Y-120446768D01*
X149214798Y-120360004D01*
X149026277Y-120234038D01*
X148865962Y-120073723D01*
X148739996Y-119885202D01*
X148653232Y-119675734D01*
X148609000Y-119453365D01*
X148609000Y-119226635D01*
X148653232Y-119004266D01*
X148739996Y-118794798D01*
X148865962Y-118606277D01*
X149026277Y-118445962D01*
X149214798Y-118319996D01*
X149424266Y-118233232D01*
X149646635Y-118189000D01*
X149873365Y-118189000D01*
X150095734Y-118233232D01*
X150095734Y-118233232D01*
G37*
G36*
X124695734Y-118233232D02*
X124905202Y-118319996D01*
X125093723Y-118445962D01*
X125254038Y-118606277D01*
X125380004Y-118794798D01*
X125466768Y-119004266D01*
X125511000Y-119226635D01*
X125511000Y-119453365D01*
X125466768Y-119675734D01*
X125380004Y-119885202D01*
X125254038Y-120073723D01*
X125093723Y-120234038D01*
X124905202Y-120360004D01*
X124695734Y-120446768D01*
X124473365Y-120491000D01*
X124246635Y-120491000D01*
X124024266Y-120446768D01*
X123814798Y-120360004D01*
X123626277Y-120234038D01*
X123465962Y-120073723D01*
X123339996Y-119885202D01*
X123253232Y-119675734D01*
X123209000Y-119453365D01*
X123209000Y-119226635D01*
X123253232Y-119004266D01*
X123339996Y-118794798D01*
X123465962Y-118606277D01*
X123626277Y-118445962D01*
X123814798Y-118319996D01*
X124024266Y-118233232D01*
X124246635Y-118189000D01*
X124473365Y-118189000D01*
X124695734Y-118233232D01*
X124695734Y-118233232D01*
G37*
G36*
X112195734Y-118233232D02*
X112405202Y-118319996D01*
X112593723Y-118445962D01*
X112754038Y-118606277D01*
X112880004Y-118794798D01*
X112966768Y-119004266D01*
X113011000Y-119226635D01*
X113011000Y-119453365D01*
X112966768Y-119675734D01*
X112880004Y-119885202D01*
X112754038Y-120073723D01*
X112593723Y-120234038D01*
X112405202Y-120360004D01*
X112195734Y-120446768D01*
X111973365Y-120491000D01*
X111746635Y-120491000D01*
X111524266Y-120446768D01*
X111314798Y-120360004D01*
X111126277Y-120234038D01*
X110965962Y-120073723D01*
X110839996Y-119885202D01*
X110753232Y-119675734D01*
X110709000Y-119453365D01*
X110709000Y-119226635D01*
X110753232Y-119004266D01*
X110839996Y-118794798D01*
X110965962Y-118606277D01*
X111126277Y-118445962D01*
X111314798Y-118319996D01*
X111524266Y-118233232D01*
X111746635Y-118189000D01*
X111973365Y-118189000D01*
X112195734Y-118233232D01*
X112195734Y-118233232D01*
G37*
G36*
X137595734Y-118233232D02*
X137805202Y-118319996D01*
X137993723Y-118445962D01*
X138154038Y-118606277D01*
X138280004Y-118794798D01*
X138366768Y-119004266D01*
X138411000Y-119226635D01*
X138411000Y-119453365D01*
X138366768Y-119675734D01*
X138280004Y-119885202D01*
X138154038Y-120073723D01*
X137993723Y-120234038D01*
X137805202Y-120360004D01*
X137595734Y-120446768D01*
X137373365Y-120491000D01*
X137146635Y-120491000D01*
X136924266Y-120446768D01*
X136714798Y-120360004D01*
X136526277Y-120234038D01*
X136365962Y-120073723D01*
X136239996Y-119885202D01*
X136153232Y-119675734D01*
X136109000Y-119453365D01*
X136109000Y-119226635D01*
X136153232Y-119004266D01*
X136239996Y-118794798D01*
X136365962Y-118606277D01*
X136526277Y-118445962D01*
X136714798Y-118319996D01*
X136924266Y-118233232D01*
X137146635Y-118189000D01*
X137373365Y-118189000D01*
X137595734Y-118233232D01*
X137595734Y-118233232D01*
G37*
G36*
X188395734Y-113233232D02*
X188605202Y-113319996D01*
X188793723Y-113445962D01*
X188954038Y-113606277D01*
X189080004Y-113794798D01*
X189166768Y-114004266D01*
X189211000Y-114226635D01*
X189211000Y-114453365D01*
X189166768Y-114675734D01*
X189080004Y-114885202D01*
X188954038Y-115073723D01*
X188793723Y-115234038D01*
X188605202Y-115360004D01*
X188395734Y-115446768D01*
X188173365Y-115491000D01*
X187946635Y-115491000D01*
X187724266Y-115446768D01*
X187514798Y-115360004D01*
X187326277Y-115234038D01*
X187165962Y-115073723D01*
X187039996Y-114885202D01*
X186953232Y-114675734D01*
X186909000Y-114453365D01*
X186909000Y-114226635D01*
X186953232Y-114004266D01*
X187039996Y-113794798D01*
X187165962Y-113606277D01*
X187326277Y-113445962D01*
X187514798Y-113319996D01*
X187724266Y-113233232D01*
X187946635Y-113189000D01*
X188173365Y-113189000D01*
X188395734Y-113233232D01*
X188395734Y-113233232D01*
G37*
G36*
X162995734Y-113233232D02*
X163205202Y-113319996D01*
X163393723Y-113445962D01*
X163554038Y-113606277D01*
X163680004Y-113794798D01*
X163766768Y-114004266D01*
X163811000Y-114226635D01*
X163811000Y-114453365D01*
X163766768Y-114675734D01*
X163680004Y-114885202D01*
X163554038Y-115073723D01*
X163393723Y-115234038D01*
X163205202Y-115360004D01*
X162995734Y-115446768D01*
X162773365Y-115491000D01*
X162546635Y-115491000D01*
X162324266Y-115446768D01*
X162114798Y-115360004D01*
X161926277Y-115234038D01*
X161765962Y-115073723D01*
X161639996Y-114885202D01*
X161553232Y-114675734D01*
X161509000Y-114453365D01*
X161509000Y-114226635D01*
X161553232Y-114004266D01*
X161639996Y-113794798D01*
X161765962Y-113606277D01*
X161926277Y-113445962D01*
X162114798Y-113319996D01*
X162324266Y-113233232D01*
X162546635Y-113189000D01*
X162773365Y-113189000D01*
X162995734Y-113233232D01*
X162995734Y-113233232D01*
G37*
G36*
X150095734Y-113233232D02*
X150305202Y-113319996D01*
X150493723Y-113445962D01*
X150654038Y-113606277D01*
X150780004Y-113794798D01*
X150866768Y-114004266D01*
X150911000Y-114226635D01*
X150911000Y-114453365D01*
X150866768Y-114675734D01*
X150780004Y-114885202D01*
X150654038Y-115073723D01*
X150493723Y-115234038D01*
X150305202Y-115360004D01*
X150095734Y-115446768D01*
X149873365Y-115491000D01*
X149646635Y-115491000D01*
X149424266Y-115446768D01*
X149214798Y-115360004D01*
X149026277Y-115234038D01*
X148865962Y-115073723D01*
X148739996Y-114885202D01*
X148653232Y-114675734D01*
X148609000Y-114453365D01*
X148609000Y-114226635D01*
X148653232Y-114004266D01*
X148739996Y-113794798D01*
X148865962Y-113606277D01*
X149026277Y-113445962D01*
X149214798Y-113319996D01*
X149424266Y-113233232D01*
X149646635Y-113189000D01*
X149873365Y-113189000D01*
X150095734Y-113233232D01*
X150095734Y-113233232D01*
G37*
G36*
X137595734Y-113233232D02*
X137805202Y-113319996D01*
X137993723Y-113445962D01*
X138154038Y-113606277D01*
X138280004Y-113794798D01*
X138366768Y-114004266D01*
X138411000Y-114226635D01*
X138411000Y-114453365D01*
X138366768Y-114675734D01*
X138280004Y-114885202D01*
X138154038Y-115073723D01*
X137993723Y-115234038D01*
X137805202Y-115360004D01*
X137595734Y-115446768D01*
X137373365Y-115491000D01*
X137146635Y-115491000D01*
X136924266Y-115446768D01*
X136714798Y-115360004D01*
X136526277Y-115234038D01*
X136365962Y-115073723D01*
X136239996Y-114885202D01*
X136153232Y-114675734D01*
X136109000Y-114453365D01*
X136109000Y-114226635D01*
X136153232Y-114004266D01*
X136239996Y-113794798D01*
X136365962Y-113606277D01*
X136526277Y-113445962D01*
X136714798Y-113319996D01*
X136924266Y-113233232D01*
X137146635Y-113189000D01*
X137373365Y-113189000D01*
X137595734Y-113233232D01*
X137595734Y-113233232D01*
G37*
G36*
X124695734Y-113233232D02*
X124905202Y-113319996D01*
X125093723Y-113445962D01*
X125254038Y-113606277D01*
X125380004Y-113794798D01*
X125466768Y-114004266D01*
X125511000Y-114226635D01*
X125511000Y-114453365D01*
X125466768Y-114675734D01*
X125380004Y-114885202D01*
X125254038Y-115073723D01*
X125093723Y-115234038D01*
X124905202Y-115360004D01*
X124695734Y-115446768D01*
X124473365Y-115491000D01*
X124246635Y-115491000D01*
X124024266Y-115446768D01*
X123814798Y-115360004D01*
X123626277Y-115234038D01*
X123465962Y-115073723D01*
X123339996Y-114885202D01*
X123253232Y-114675734D01*
X123209000Y-114453365D01*
X123209000Y-114226635D01*
X123253232Y-114004266D01*
X123339996Y-113794798D01*
X123465962Y-113606277D01*
X123626277Y-113445962D01*
X123814798Y-113319996D01*
X124024266Y-113233232D01*
X124246635Y-113189000D01*
X124473365Y-113189000D01*
X124695734Y-113233232D01*
X124695734Y-113233232D01*
G37*
G36*
X112195734Y-113233232D02*
X112405202Y-113319996D01*
X112593723Y-113445962D01*
X112754038Y-113606277D01*
X112880004Y-113794798D01*
X112966768Y-114004266D01*
X113011000Y-114226635D01*
X113011000Y-114453365D01*
X112966768Y-114675734D01*
X112880004Y-114885202D01*
X112754038Y-115073723D01*
X112593723Y-115234038D01*
X112405202Y-115360004D01*
X112195734Y-115446768D01*
X111973365Y-115491000D01*
X111746635Y-115491000D01*
X111524266Y-115446768D01*
X111314798Y-115360004D01*
X111126277Y-115234038D01*
X110965962Y-115073723D01*
X110839996Y-114885202D01*
X110753232Y-114675734D01*
X110709000Y-114453365D01*
X110709000Y-114226635D01*
X110753232Y-114004266D01*
X110839996Y-113794798D01*
X110965962Y-113606277D01*
X111126277Y-113445962D01*
X111314798Y-113319996D01*
X111524266Y-113233232D01*
X111746635Y-113189000D01*
X111973365Y-113189000D01*
X112195734Y-113233232D01*
X112195734Y-113233232D01*
G37*
G36*
X200895734Y-113233232D02*
X201105202Y-113319996D01*
X201293723Y-113445962D01*
X201454038Y-113606277D01*
X201580004Y-113794798D01*
X201666768Y-114004266D01*
X201711000Y-114226635D01*
X201711000Y-114453365D01*
X201666768Y-114675734D01*
X201580004Y-114885202D01*
X201454038Y-115073723D01*
X201293723Y-115234038D01*
X201105202Y-115360004D01*
X200895734Y-115446768D01*
X200673365Y-115491000D01*
X200446635Y-115491000D01*
X200224266Y-115446768D01*
X200014798Y-115360004D01*
X199826277Y-115234038D01*
X199665962Y-115073723D01*
X199539996Y-114885202D01*
X199453232Y-114675734D01*
X199409000Y-114453365D01*
X199409000Y-114226635D01*
X199453232Y-114004266D01*
X199539996Y-113794798D01*
X199665962Y-113606277D01*
X199826277Y-113445962D01*
X200014798Y-113319996D01*
X200224266Y-113233232D01*
X200446635Y-113189000D01*
X200673365Y-113189000D01*
X200895734Y-113233232D01*
X200895734Y-113233232D01*
G37*
G36*
X175495734Y-113233232D02*
X175705202Y-113319996D01*
X175893723Y-113445962D01*
X176054038Y-113606277D01*
X176180004Y-113794798D01*
X176266768Y-114004266D01*
X176311000Y-114226635D01*
X176311000Y-114453365D01*
X176266768Y-114675734D01*
X176180004Y-114885202D01*
X176054038Y-115073723D01*
X175893723Y-115234038D01*
X175705202Y-115360004D01*
X175495734Y-115446768D01*
X175273365Y-115491000D01*
X175046635Y-115491000D01*
X174824266Y-115446768D01*
X174614798Y-115360004D01*
X174426277Y-115234038D01*
X174265962Y-115073723D01*
X174139996Y-114885202D01*
X174053232Y-114675734D01*
X174009000Y-114453365D01*
X174009000Y-114226635D01*
X174053232Y-114004266D01*
X174139996Y-113794798D01*
X174265962Y-113606277D01*
X174426277Y-113445962D01*
X174614798Y-113319996D01*
X174824266Y-113233232D01*
X175046635Y-113189000D01*
X175273365Y-113189000D01*
X175495734Y-113233232D01*
X175495734Y-113233232D01*
G37*
G36*
X105266442Y-110865518D02*
X105332627Y-110872037D01*
X105445853Y-110906384D01*
X105502467Y-110923557D01*
X105641087Y-110997652D01*
X105658991Y-111007222D01*
X105694729Y-111036552D01*
X105796186Y-111119814D01*
X105879448Y-111221271D01*
X105908778Y-111257009D01*
X105908779Y-111257011D01*
X105992443Y-111413533D01*
X105992443Y-111413534D01*
X106043963Y-111583373D01*
X106061359Y-111760000D01*
X106043963Y-111936627D01*
X106009616Y-112049853D01*
X105992443Y-112106467D01*
X105918348Y-112245087D01*
X105908778Y-112262991D01*
X105879448Y-112298729D01*
X105796186Y-112400186D01*
X105694729Y-112483448D01*
X105658991Y-112512778D01*
X105658989Y-112512779D01*
X105502467Y-112596443D01*
X105445853Y-112613616D01*
X105332627Y-112647963D01*
X105266442Y-112654482D01*
X105200260Y-112661000D01*
X105111740Y-112661000D01*
X105045558Y-112654482D01*
X104979373Y-112647963D01*
X104866147Y-112613616D01*
X104809533Y-112596443D01*
X104653011Y-112512779D01*
X104653009Y-112512778D01*
X104617271Y-112483448D01*
X104515814Y-112400186D01*
X104432552Y-112298729D01*
X104403222Y-112262991D01*
X104393652Y-112245087D01*
X104319557Y-112106467D01*
X104302384Y-112049853D01*
X104268037Y-111936627D01*
X104250641Y-111760000D01*
X104268037Y-111583373D01*
X104319557Y-111413534D01*
X104319557Y-111413533D01*
X104403221Y-111257011D01*
X104403222Y-111257009D01*
X104432552Y-111221271D01*
X104515814Y-111119814D01*
X104617271Y-111036552D01*
X104653009Y-111007222D01*
X104670913Y-110997652D01*
X104809533Y-110923557D01*
X104866147Y-110906384D01*
X104979373Y-110872037D01*
X105045558Y-110865518D01*
X105111740Y-110859000D01*
X105200260Y-110859000D01*
X105266442Y-110865518D01*
X105266442Y-110865518D01*
G37*
G36*
X133701000Y-112086000D02*
X132999000Y-112086000D01*
X132999000Y-110484000D01*
X133701000Y-110484000D01*
X133701000Y-112086000D01*
X133701000Y-112086000D01*
G37*
G36*
X129891000Y-112086000D02*
X129189000Y-112086000D01*
X129189000Y-110484000D01*
X129891000Y-110484000D01*
X129891000Y-112086000D01*
X129891000Y-112086000D01*
G37*
G36*
X131161000Y-112086000D02*
X130459000Y-112086000D01*
X130459000Y-110484000D01*
X131161000Y-110484000D01*
X131161000Y-112086000D01*
X131161000Y-112086000D01*
G37*
G36*
X132431000Y-112086000D02*
X131729000Y-112086000D01*
X131729000Y-110484000D01*
X132431000Y-110484000D01*
X132431000Y-112086000D01*
X132431000Y-112086000D01*
G37*
G36*
X134971000Y-112086000D02*
X134269000Y-112086000D01*
X134269000Y-110484000D01*
X134971000Y-110484000D01*
X134971000Y-112086000D01*
X134971000Y-112086000D01*
G37*
G36*
X136241000Y-112086000D02*
X135539000Y-112086000D01*
X135539000Y-110484000D01*
X136241000Y-110484000D01*
X136241000Y-112086000D01*
X136241000Y-112086000D01*
G37*
G36*
X128621000Y-112086000D02*
X127919000Y-112086000D01*
X127919000Y-110484000D01*
X128621000Y-110484000D01*
X128621000Y-112086000D01*
X128621000Y-112086000D01*
G37*
G36*
X127351000Y-112086000D02*
X126649000Y-112086000D01*
X126649000Y-110484000D01*
X127351000Y-110484000D01*
X127351000Y-112086000D01*
X127351000Y-112086000D01*
G37*
G36*
X180691000Y-111451000D02*
X179989000Y-111451000D01*
X179989000Y-109849000D01*
X180691000Y-109849000D01*
X180691000Y-111451000D01*
X180691000Y-111451000D01*
G37*
G36*
X187041000Y-111451000D02*
X186339000Y-111451000D01*
X186339000Y-109849000D01*
X187041000Y-109849000D01*
X187041000Y-111451000D01*
X187041000Y-111451000D01*
G37*
G36*
X181961000Y-111451000D02*
X181259000Y-111451000D01*
X181259000Y-109849000D01*
X181961000Y-109849000D01*
X181961000Y-111451000D01*
X181961000Y-111451000D01*
G37*
G36*
X183231000Y-111451000D02*
X182529000Y-111451000D01*
X182529000Y-109849000D01*
X183231000Y-109849000D01*
X183231000Y-111451000D01*
X183231000Y-111451000D01*
G37*
G36*
X184501000Y-111451000D02*
X183799000Y-111451000D01*
X183799000Y-109849000D01*
X184501000Y-109849000D01*
X184501000Y-111451000D01*
X184501000Y-111451000D01*
G37*
G36*
X185771000Y-111451000D02*
X185069000Y-111451000D01*
X185069000Y-109849000D01*
X185771000Y-109849000D01*
X185771000Y-111451000D01*
X185771000Y-111451000D01*
G37*
G36*
X179421000Y-111451000D02*
X178719000Y-111451000D01*
X178719000Y-109849000D01*
X179421000Y-109849000D01*
X179421000Y-111451000D01*
X179421000Y-111451000D01*
G37*
G36*
X178151000Y-111451000D02*
X177449000Y-111451000D01*
X177449000Y-109849000D01*
X178151000Y-109849000D01*
X178151000Y-111451000D01*
X178151000Y-111451000D01*
G37*
G36*
X105266443Y-108325519D02*
X105332627Y-108332037D01*
X105445853Y-108366384D01*
X105502467Y-108383557D01*
X105641087Y-108457652D01*
X105658991Y-108467222D01*
X105694729Y-108496552D01*
X105796186Y-108579814D01*
X105879448Y-108681271D01*
X105908778Y-108717009D01*
X105908779Y-108717011D01*
X105992443Y-108873533D01*
X105992443Y-108873534D01*
X106043963Y-109043373D01*
X106061359Y-109220000D01*
X106043963Y-109396627D01*
X106009616Y-109509853D01*
X105992443Y-109566467D01*
X105918348Y-109705087D01*
X105908778Y-109722991D01*
X105879448Y-109758729D01*
X105796186Y-109860186D01*
X105694729Y-109943448D01*
X105658991Y-109972778D01*
X105658989Y-109972779D01*
X105502467Y-110056443D01*
X105445853Y-110073616D01*
X105332627Y-110107963D01*
X105266443Y-110114481D01*
X105200260Y-110121000D01*
X105111740Y-110121000D01*
X105045557Y-110114481D01*
X104979373Y-110107963D01*
X104866147Y-110073616D01*
X104809533Y-110056443D01*
X104653011Y-109972779D01*
X104653009Y-109972778D01*
X104617271Y-109943448D01*
X104515814Y-109860186D01*
X104432552Y-109758729D01*
X104403222Y-109722991D01*
X104393652Y-109705087D01*
X104319557Y-109566467D01*
X104302384Y-109509853D01*
X104268037Y-109396627D01*
X104250641Y-109220000D01*
X104268037Y-109043373D01*
X104319557Y-108873534D01*
X104319557Y-108873533D01*
X104403221Y-108717011D01*
X104403222Y-108717009D01*
X104432552Y-108681271D01*
X104515814Y-108579814D01*
X104617271Y-108496552D01*
X104653009Y-108467222D01*
X104670913Y-108457652D01*
X104809533Y-108383557D01*
X104866147Y-108366384D01*
X104979373Y-108332037D01*
X105045557Y-108325519D01*
X105111740Y-108319000D01*
X105200260Y-108319000D01*
X105266443Y-108325519D01*
X105266443Y-108325519D01*
G37*
G36*
X199769485Y-105428996D02*
X199769487Y-105428997D01*
X199769488Y-105428997D01*
X200006255Y-105527069D01*
X200219342Y-105669449D01*
X200400551Y-105850658D01*
X200400553Y-105850661D01*
X200542931Y-106063745D01*
X200636800Y-106290364D01*
X200641004Y-106300515D01*
X200691000Y-106551861D01*
X200691000Y-106808139D01*
X200641004Y-107059485D01*
X200542931Y-107296255D01*
X200400551Y-107509342D01*
X200219342Y-107690551D01*
X200219339Y-107690553D01*
X200006255Y-107832931D01*
X199769488Y-107931003D01*
X199769487Y-107931003D01*
X199769485Y-107931004D01*
X199518139Y-107981000D01*
X199261861Y-107981000D01*
X199010515Y-107931004D01*
X199010513Y-107931003D01*
X199010512Y-107931003D01*
X198773745Y-107832931D01*
X198560661Y-107690553D01*
X198560658Y-107690551D01*
X198379449Y-107509342D01*
X198237069Y-107296255D01*
X198138996Y-107059485D01*
X198089000Y-106808139D01*
X198089000Y-106551861D01*
X198138996Y-106300515D01*
X198143201Y-106290364D01*
X198237069Y-106063745D01*
X198379447Y-105850661D01*
X198379449Y-105850658D01*
X198560658Y-105669449D01*
X198773745Y-105527069D01*
X199010512Y-105428997D01*
X199010513Y-105428997D01*
X199010515Y-105428996D01*
X199261861Y-105379000D01*
X199518139Y-105379000D01*
X199769485Y-105428996D01*
X199769485Y-105428996D01*
G37*
G36*
X166749485Y-105428996D02*
X166749487Y-105428997D01*
X166749488Y-105428997D01*
X166986255Y-105527069D01*
X167199342Y-105669449D01*
X167380551Y-105850658D01*
X167380553Y-105850661D01*
X167522931Y-106063745D01*
X167616800Y-106290364D01*
X167621004Y-106300515D01*
X167671000Y-106551861D01*
X167671000Y-106808139D01*
X167621004Y-107059485D01*
X167522931Y-107296255D01*
X167380551Y-107509342D01*
X167199342Y-107690551D01*
X167199339Y-107690553D01*
X166986255Y-107832931D01*
X166749488Y-107931003D01*
X166749487Y-107931003D01*
X166749485Y-107931004D01*
X166498139Y-107981000D01*
X166241861Y-107981000D01*
X165990515Y-107931004D01*
X165990513Y-107931003D01*
X165990512Y-107931003D01*
X165753745Y-107832931D01*
X165540661Y-107690553D01*
X165540658Y-107690551D01*
X165359449Y-107509342D01*
X165217069Y-107296255D01*
X165118996Y-107059485D01*
X165069000Y-106808139D01*
X165069000Y-106551861D01*
X165118996Y-106300515D01*
X165123201Y-106290364D01*
X165217069Y-106063745D01*
X165359447Y-105850661D01*
X165359449Y-105850658D01*
X165540658Y-105669449D01*
X165753745Y-105527069D01*
X165990512Y-105428997D01*
X165990513Y-105428997D01*
X165990515Y-105428996D01*
X166241861Y-105379000D01*
X166498139Y-105379000D01*
X166749485Y-105428996D01*
X166749485Y-105428996D01*
G37*
G36*
X105266443Y-105785519D02*
X105332627Y-105792037D01*
X105445853Y-105826384D01*
X105502467Y-105843557D01*
X105591416Y-105891102D01*
X105658991Y-105927222D01*
X105694729Y-105956552D01*
X105796186Y-106039814D01*
X105879448Y-106141271D01*
X105908778Y-106177009D01*
X105908779Y-106177011D01*
X105992443Y-106333533D01*
X105999121Y-106355548D01*
X106043963Y-106503373D01*
X106061359Y-106680000D01*
X106043963Y-106856627D01*
X106009616Y-106969853D01*
X105992443Y-107026467D01*
X105918348Y-107165087D01*
X105908778Y-107182991D01*
X105879448Y-107218729D01*
X105796186Y-107320186D01*
X105694729Y-107403448D01*
X105658991Y-107432778D01*
X105658989Y-107432779D01*
X105502467Y-107516443D01*
X105445853Y-107533616D01*
X105332627Y-107567963D01*
X105266443Y-107574481D01*
X105200260Y-107581000D01*
X105111740Y-107581000D01*
X105045557Y-107574481D01*
X104979373Y-107567963D01*
X104866147Y-107533616D01*
X104809533Y-107516443D01*
X104653011Y-107432779D01*
X104653009Y-107432778D01*
X104617271Y-107403448D01*
X104515814Y-107320186D01*
X104432552Y-107218729D01*
X104403222Y-107182991D01*
X104393652Y-107165087D01*
X104319557Y-107026467D01*
X104302384Y-106969853D01*
X104268037Y-106856627D01*
X104250641Y-106680000D01*
X104268037Y-106503373D01*
X104312879Y-106355548D01*
X104319557Y-106333533D01*
X104403221Y-106177011D01*
X104403222Y-106177009D01*
X104432552Y-106141271D01*
X104515814Y-106039814D01*
X104617271Y-105956552D01*
X104653009Y-105927222D01*
X104720584Y-105891102D01*
X104809533Y-105843557D01*
X104866147Y-105826384D01*
X104979373Y-105792037D01*
X105045557Y-105785519D01*
X105111740Y-105779000D01*
X105200260Y-105779000D01*
X105266443Y-105785519D01*
X105266443Y-105785519D01*
G37*
G36*
X128621000Y-106686000D02*
X127919000Y-106686000D01*
X127919000Y-105084000D01*
X128621000Y-105084000D01*
X128621000Y-106686000D01*
X128621000Y-106686000D01*
G37*
G36*
X132431000Y-106686000D02*
X131729000Y-106686000D01*
X131729000Y-105084000D01*
X132431000Y-105084000D01*
X132431000Y-106686000D01*
X132431000Y-106686000D01*
G37*
G36*
X133701000Y-106686000D02*
X132999000Y-106686000D01*
X132999000Y-105084000D01*
X133701000Y-105084000D01*
X133701000Y-106686000D01*
X133701000Y-106686000D01*
G37*
G36*
X134971000Y-106686000D02*
X134269000Y-106686000D01*
X134269000Y-105084000D01*
X134971000Y-105084000D01*
X134971000Y-106686000D01*
X134971000Y-106686000D01*
G37*
G36*
X136241000Y-106686000D02*
X135539000Y-106686000D01*
X135539000Y-105084000D01*
X136241000Y-105084000D01*
X136241000Y-106686000D01*
X136241000Y-106686000D01*
G37*
G36*
X131161000Y-106686000D02*
X130459000Y-106686000D01*
X130459000Y-105084000D01*
X131161000Y-105084000D01*
X131161000Y-106686000D01*
X131161000Y-106686000D01*
G37*
G36*
X129891000Y-106686000D02*
X129189000Y-106686000D01*
X129189000Y-105084000D01*
X129891000Y-105084000D01*
X129891000Y-106686000D01*
X129891000Y-106686000D01*
G37*
G36*
X127351000Y-106686000D02*
X126649000Y-106686000D01*
X126649000Y-105084000D01*
X127351000Y-105084000D01*
X127351000Y-106686000D01*
X127351000Y-106686000D01*
G37*
G36*
X125440677Y-104917465D02*
X125478364Y-104928898D01*
X125513103Y-104947466D01*
X125543548Y-104972452D01*
X125568534Y-105002897D01*
X125587102Y-105037636D01*
X125598535Y-105075323D01*
X125603000Y-105120661D01*
X125603000Y-106207339D01*
X125598535Y-106252677D01*
X125587102Y-106290364D01*
X125568534Y-106325103D01*
X125543548Y-106355548D01*
X125513103Y-106380534D01*
X125478364Y-106399102D01*
X125440677Y-106410535D01*
X125395339Y-106415000D01*
X124558661Y-106415000D01*
X124513323Y-106410535D01*
X124475636Y-106399102D01*
X124440897Y-106380534D01*
X124410452Y-106355548D01*
X124385466Y-106325103D01*
X124366898Y-106290364D01*
X124355465Y-106252677D01*
X124351000Y-106207339D01*
X124351000Y-105120661D01*
X124355465Y-105075323D01*
X124366898Y-105037636D01*
X124385466Y-105002897D01*
X124410452Y-104972452D01*
X124440897Y-104947466D01*
X124475636Y-104928898D01*
X124513323Y-104917465D01*
X124558661Y-104913000D01*
X125395339Y-104913000D01*
X125440677Y-104917465D01*
X125440677Y-104917465D01*
G37*
G36*
X123390677Y-104917465D02*
X123428364Y-104928898D01*
X123463103Y-104947466D01*
X123493548Y-104972452D01*
X123518534Y-105002897D01*
X123537102Y-105037636D01*
X123548535Y-105075323D01*
X123553000Y-105120661D01*
X123553000Y-106207339D01*
X123548535Y-106252677D01*
X123537102Y-106290364D01*
X123518534Y-106325103D01*
X123493548Y-106355548D01*
X123463103Y-106380534D01*
X123428364Y-106399102D01*
X123390677Y-106410535D01*
X123345339Y-106415000D01*
X122508661Y-106415000D01*
X122463323Y-106410535D01*
X122425636Y-106399102D01*
X122390897Y-106380534D01*
X122360452Y-106355548D01*
X122335466Y-106325103D01*
X122316898Y-106290364D01*
X122305465Y-106252677D01*
X122301000Y-106207339D01*
X122301000Y-105120661D01*
X122305465Y-105075323D01*
X122316898Y-105037636D01*
X122335466Y-105002897D01*
X122360452Y-104972452D01*
X122390897Y-104947466D01*
X122425636Y-104928898D01*
X122463323Y-104917465D01*
X122508661Y-104913000D01*
X123345339Y-104913000D01*
X123390677Y-104917465D01*
X123390677Y-104917465D01*
G37*
G36*
X179421000Y-106051000D02*
X178719000Y-106051000D01*
X178719000Y-104449000D01*
X179421000Y-104449000D01*
X179421000Y-106051000D01*
X179421000Y-106051000D01*
G37*
G36*
X178151000Y-106051000D02*
X177449000Y-106051000D01*
X177449000Y-104449000D01*
X178151000Y-104449000D01*
X178151000Y-106051000D01*
X178151000Y-106051000D01*
G37*
G36*
X181961000Y-106051000D02*
X181259000Y-106051000D01*
X181259000Y-104449000D01*
X181961000Y-104449000D01*
X181961000Y-106051000D01*
X181961000Y-106051000D01*
G37*
G36*
X183231000Y-106051000D02*
X182529000Y-106051000D01*
X182529000Y-104449000D01*
X183231000Y-104449000D01*
X183231000Y-106051000D01*
X183231000Y-106051000D01*
G37*
G36*
X184501000Y-106051000D02*
X183799000Y-106051000D01*
X183799000Y-104449000D01*
X184501000Y-104449000D01*
X184501000Y-106051000D01*
X184501000Y-106051000D01*
G37*
G36*
X185771000Y-106051000D02*
X185069000Y-106051000D01*
X185069000Y-104449000D01*
X185771000Y-104449000D01*
X185771000Y-106051000D01*
X185771000Y-106051000D01*
G37*
G36*
X180691000Y-106051000D02*
X179989000Y-106051000D01*
X179989000Y-104449000D01*
X180691000Y-104449000D01*
X180691000Y-106051000D01*
X180691000Y-106051000D01*
G37*
G36*
X187041000Y-106051000D02*
X186339000Y-106051000D01*
X186339000Y-104449000D01*
X187041000Y-104449000D01*
X187041000Y-106051000D01*
X187041000Y-106051000D01*
G37*
G36*
X174190677Y-104409465D02*
X174228364Y-104420898D01*
X174263103Y-104439466D01*
X174293548Y-104464452D01*
X174318534Y-104494897D01*
X174337102Y-104529636D01*
X174348535Y-104567323D01*
X174353000Y-104612661D01*
X174353000Y-105699339D01*
X174348535Y-105744677D01*
X174337102Y-105782364D01*
X174318534Y-105817103D01*
X174293548Y-105847548D01*
X174263103Y-105872534D01*
X174228364Y-105891102D01*
X174190677Y-105902535D01*
X174145339Y-105907000D01*
X173308661Y-105907000D01*
X173263323Y-105902535D01*
X173225636Y-105891102D01*
X173190897Y-105872534D01*
X173160452Y-105847548D01*
X173135466Y-105817103D01*
X173116898Y-105782364D01*
X173105465Y-105744677D01*
X173101000Y-105699339D01*
X173101000Y-104612661D01*
X173105465Y-104567323D01*
X173116898Y-104529636D01*
X173135466Y-104494897D01*
X173160452Y-104464452D01*
X173190897Y-104439466D01*
X173225636Y-104420898D01*
X173263323Y-104409465D01*
X173308661Y-104405000D01*
X174145339Y-104405000D01*
X174190677Y-104409465D01*
X174190677Y-104409465D01*
G37*
G36*
X176240677Y-104409465D02*
X176278364Y-104420898D01*
X176313103Y-104439466D01*
X176343548Y-104464452D01*
X176368534Y-104494897D01*
X176387102Y-104529636D01*
X176398535Y-104567323D01*
X176403000Y-104612661D01*
X176403000Y-105699339D01*
X176398535Y-105744677D01*
X176387102Y-105782364D01*
X176368534Y-105817103D01*
X176343548Y-105847548D01*
X176313103Y-105872534D01*
X176278364Y-105891102D01*
X176240677Y-105902535D01*
X176195339Y-105907000D01*
X175358661Y-105907000D01*
X175313323Y-105902535D01*
X175275636Y-105891102D01*
X175240897Y-105872534D01*
X175210452Y-105847548D01*
X175185466Y-105817103D01*
X175166898Y-105782364D01*
X175155465Y-105744677D01*
X175151000Y-105699339D01*
X175151000Y-104612661D01*
X175155465Y-104567323D01*
X175166898Y-104529636D01*
X175185466Y-104494897D01*
X175210452Y-104464452D01*
X175240897Y-104439466D01*
X175275636Y-104420898D01*
X175313323Y-104409465D01*
X175358661Y-104405000D01*
X176195339Y-104405000D01*
X176240677Y-104409465D01*
X176240677Y-104409465D01*
G37*
G36*
X105266443Y-103245519D02*
X105332627Y-103252037D01*
X105445853Y-103286384D01*
X105502467Y-103303557D01*
X105641087Y-103377652D01*
X105658991Y-103387222D01*
X105694729Y-103416552D01*
X105796186Y-103499814D01*
X105879448Y-103601271D01*
X105908778Y-103637009D01*
X105908779Y-103637011D01*
X105992443Y-103793533D01*
X105992443Y-103793534D01*
X106043963Y-103963373D01*
X106061359Y-104140000D01*
X106043963Y-104316627D01*
X106017155Y-104405000D01*
X105992443Y-104486467D01*
X105987937Y-104494897D01*
X105908778Y-104642991D01*
X105880725Y-104677173D01*
X105796186Y-104780186D01*
X105694729Y-104863448D01*
X105658991Y-104892778D01*
X105658989Y-104892779D01*
X105502467Y-104976443D01*
X105448814Y-104992718D01*
X105332627Y-105027963D01*
X105271717Y-105033962D01*
X105200260Y-105041000D01*
X105111740Y-105041000D01*
X105040283Y-105033962D01*
X104979373Y-105027963D01*
X104863186Y-104992718D01*
X104809533Y-104976443D01*
X104653011Y-104892779D01*
X104653009Y-104892778D01*
X104617271Y-104863448D01*
X104515814Y-104780186D01*
X104431275Y-104677173D01*
X104403222Y-104642991D01*
X104324063Y-104494897D01*
X104319557Y-104486467D01*
X104294845Y-104405000D01*
X104268037Y-104316627D01*
X104250641Y-104140000D01*
X104268037Y-103963373D01*
X104319557Y-103793534D01*
X104319557Y-103793533D01*
X104403221Y-103637011D01*
X104403222Y-103637009D01*
X104432552Y-103601271D01*
X104515814Y-103499814D01*
X104617271Y-103416552D01*
X104653009Y-103387222D01*
X104670913Y-103377652D01*
X104809533Y-103303557D01*
X104866147Y-103286384D01*
X104979373Y-103252037D01*
X105045558Y-103245518D01*
X105111740Y-103239000D01*
X105200260Y-103239000D01*
X105266443Y-103245519D01*
X105266443Y-103245519D01*
G37*
G36*
X194587396Y-100685546D02*
X194760466Y-100757234D01*
X194916230Y-100861312D01*
X195048688Y-100993770D01*
X195152766Y-101149534D01*
X195224454Y-101322604D01*
X195261000Y-101506333D01*
X195261000Y-101693667D01*
X195224454Y-101877396D01*
X195152766Y-102050466D01*
X195048688Y-102206230D01*
X194916230Y-102338688D01*
X194760466Y-102442766D01*
X194587396Y-102514454D01*
X194403667Y-102551000D01*
X194216333Y-102551000D01*
X194032604Y-102514454D01*
X193859534Y-102442766D01*
X193703770Y-102338688D01*
X193571312Y-102206230D01*
X193467234Y-102050466D01*
X193395546Y-101877396D01*
X193359000Y-101693667D01*
X193359000Y-101506333D01*
X193395546Y-101322604D01*
X193467234Y-101149534D01*
X193571312Y-100993770D01*
X193703770Y-100861312D01*
X193859534Y-100757234D01*
X194032604Y-100685546D01*
X194216333Y-100649000D01*
X194403667Y-100649000D01*
X194587396Y-100685546D01*
X194587396Y-100685546D01*
G37*
G36*
X192087396Y-100685546D02*
X192260466Y-100757234D01*
X192416230Y-100861312D01*
X192548688Y-100993770D01*
X192652766Y-101149534D01*
X192724454Y-101322604D01*
X192761000Y-101506333D01*
X192761000Y-101693667D01*
X192724454Y-101877396D01*
X192652766Y-102050466D01*
X192548688Y-102206230D01*
X192416230Y-102338688D01*
X192260466Y-102442766D01*
X192087396Y-102514454D01*
X191903667Y-102551000D01*
X191716333Y-102551000D01*
X191532604Y-102514454D01*
X191359534Y-102442766D01*
X191203770Y-102338688D01*
X191071312Y-102206230D01*
X190967234Y-102050466D01*
X190895546Y-101877396D01*
X190859000Y-101693667D01*
X190859000Y-101506333D01*
X190895546Y-101322604D01*
X190967234Y-101149534D01*
X191071312Y-100993770D01*
X191203770Y-100861312D01*
X191359534Y-100757234D01*
X191532604Y-100685546D01*
X191716333Y-100649000D01*
X191903667Y-100649000D01*
X192087396Y-100685546D01*
X192087396Y-100685546D01*
G37*
G36*
X141287396Y-100685546D02*
X141460466Y-100757234D01*
X141616230Y-100861312D01*
X141748688Y-100993770D01*
X141852766Y-101149534D01*
X141924454Y-101322604D01*
X141961000Y-101506333D01*
X141961000Y-101693667D01*
X141924454Y-101877396D01*
X141852766Y-102050466D01*
X141748688Y-102206230D01*
X141616230Y-102338688D01*
X141460466Y-102442766D01*
X141287396Y-102514454D01*
X141103667Y-102551000D01*
X140916333Y-102551000D01*
X140732604Y-102514454D01*
X140559534Y-102442766D01*
X140403770Y-102338688D01*
X140271312Y-102206230D01*
X140167234Y-102050466D01*
X140095546Y-101877396D01*
X140059000Y-101693667D01*
X140059000Y-101506333D01*
X140095546Y-101322604D01*
X140167234Y-101149534D01*
X140271312Y-100993770D01*
X140403770Y-100861312D01*
X140559534Y-100757234D01*
X140732604Y-100685546D01*
X140916333Y-100649000D01*
X141103667Y-100649000D01*
X141287396Y-100685546D01*
X141287396Y-100685546D01*
G37*
G36*
X143787396Y-100685546D02*
X143960466Y-100757234D01*
X144116230Y-100861312D01*
X144248688Y-100993770D01*
X144352766Y-101149534D01*
X144424454Y-101322604D01*
X144461000Y-101506333D01*
X144461000Y-101693667D01*
X144424454Y-101877396D01*
X144352766Y-102050466D01*
X144248688Y-102206230D01*
X144116230Y-102338688D01*
X143960466Y-102442766D01*
X143787396Y-102514454D01*
X143603667Y-102551000D01*
X143416333Y-102551000D01*
X143232604Y-102514454D01*
X143059534Y-102442766D01*
X142903770Y-102338688D01*
X142771312Y-102206230D01*
X142667234Y-102050466D01*
X142595546Y-101877396D01*
X142559000Y-101693667D01*
X142559000Y-101506333D01*
X142595546Y-101322604D01*
X142667234Y-101149534D01*
X142771312Y-100993770D01*
X142903770Y-100861312D01*
X143059534Y-100757234D01*
X143232604Y-100685546D01*
X143416333Y-100649000D01*
X143603667Y-100649000D01*
X143787396Y-100685546D01*
X143787396Y-100685546D01*
G37*
G36*
X146287396Y-100685546D02*
X146460466Y-100757234D01*
X146616230Y-100861312D01*
X146748688Y-100993770D01*
X146852766Y-101149534D01*
X146924454Y-101322604D01*
X146961000Y-101506333D01*
X146961000Y-101693667D01*
X146924454Y-101877396D01*
X146852766Y-102050466D01*
X146748688Y-102206230D01*
X146616230Y-102338688D01*
X146460466Y-102442766D01*
X146287396Y-102514454D01*
X146103667Y-102551000D01*
X145916333Y-102551000D01*
X145732604Y-102514454D01*
X145559534Y-102442766D01*
X145403770Y-102338688D01*
X145271312Y-102206230D01*
X145167234Y-102050466D01*
X145095546Y-101877396D01*
X145059000Y-101693667D01*
X145059000Y-101506333D01*
X145095546Y-101322604D01*
X145167234Y-101149534D01*
X145271312Y-100993770D01*
X145403770Y-100861312D01*
X145559534Y-100757234D01*
X145732604Y-100685546D01*
X145916333Y-100649000D01*
X146103667Y-100649000D01*
X146287396Y-100685546D01*
X146287396Y-100685546D01*
G37*
G36*
X120887396Y-100685546D02*
X121060466Y-100757234D01*
X121216230Y-100861312D01*
X121348688Y-100993770D01*
X121452766Y-101149534D01*
X121524454Y-101322604D01*
X121561000Y-101506333D01*
X121561000Y-101693667D01*
X121524454Y-101877396D01*
X121452766Y-102050466D01*
X121348688Y-102206230D01*
X121216230Y-102338688D01*
X121060466Y-102442766D01*
X120887396Y-102514454D01*
X120703667Y-102551000D01*
X120516333Y-102551000D01*
X120332604Y-102514454D01*
X120159534Y-102442766D01*
X120003770Y-102338688D01*
X119871312Y-102206230D01*
X119767234Y-102050466D01*
X119695546Y-101877396D01*
X119659000Y-101693667D01*
X119659000Y-101506333D01*
X119695546Y-101322604D01*
X119767234Y-101149534D01*
X119871312Y-100993770D01*
X120003770Y-100861312D01*
X120159534Y-100757234D01*
X120332604Y-100685546D01*
X120516333Y-100649000D01*
X120703667Y-100649000D01*
X120887396Y-100685546D01*
X120887396Y-100685546D01*
G37*
G36*
X171687396Y-100685546D02*
X171860466Y-100757234D01*
X172016230Y-100861312D01*
X172148688Y-100993770D01*
X172252766Y-101149534D01*
X172324454Y-101322604D01*
X172361000Y-101506333D01*
X172361000Y-101693667D01*
X172324454Y-101877396D01*
X172252766Y-102050466D01*
X172148688Y-102206230D01*
X172016230Y-102338688D01*
X171860466Y-102442766D01*
X171687396Y-102514454D01*
X171503667Y-102551000D01*
X171316333Y-102551000D01*
X171132604Y-102514454D01*
X170959534Y-102442766D01*
X170803770Y-102338688D01*
X170671312Y-102206230D01*
X170567234Y-102050466D01*
X170495546Y-101877396D01*
X170459000Y-101693667D01*
X170459000Y-101506333D01*
X170495546Y-101322604D01*
X170567234Y-101149534D01*
X170671312Y-100993770D01*
X170803770Y-100861312D01*
X170959534Y-100757234D01*
X171132604Y-100685546D01*
X171316333Y-100649000D01*
X171503667Y-100649000D01*
X171687396Y-100685546D01*
X171687396Y-100685546D01*
G37*
G36*
X169187396Y-100685546D02*
X169360466Y-100757234D01*
X169516230Y-100861312D01*
X169648688Y-100993770D01*
X169752766Y-101149534D01*
X169824454Y-101322604D01*
X169861000Y-101506333D01*
X169861000Y-101693667D01*
X169824454Y-101877396D01*
X169752766Y-102050466D01*
X169648688Y-102206230D01*
X169516230Y-102338688D01*
X169360466Y-102442766D01*
X169187396Y-102514454D01*
X169003667Y-102551000D01*
X168816333Y-102551000D01*
X168632604Y-102514454D01*
X168459534Y-102442766D01*
X168303770Y-102338688D01*
X168171312Y-102206230D01*
X168067234Y-102050466D01*
X167995546Y-101877396D01*
X167959000Y-101693667D01*
X167959000Y-101506333D01*
X167995546Y-101322604D01*
X168067234Y-101149534D01*
X168171312Y-100993770D01*
X168303770Y-100861312D01*
X168459534Y-100757234D01*
X168632604Y-100685546D01*
X168816333Y-100649000D01*
X169003667Y-100649000D01*
X169187396Y-100685546D01*
X169187396Y-100685546D01*
G37*
G36*
X166687396Y-100685546D02*
X166860466Y-100757234D01*
X167016230Y-100861312D01*
X167148688Y-100993770D01*
X167252766Y-101149534D01*
X167324454Y-101322604D01*
X167361000Y-101506333D01*
X167361000Y-101693667D01*
X167324454Y-101877396D01*
X167252766Y-102050466D01*
X167148688Y-102206230D01*
X167016230Y-102338688D01*
X166860466Y-102442766D01*
X166687396Y-102514454D01*
X166503667Y-102551000D01*
X166316333Y-102551000D01*
X166132604Y-102514454D01*
X165959534Y-102442766D01*
X165803770Y-102338688D01*
X165671312Y-102206230D01*
X165567234Y-102050466D01*
X165495546Y-101877396D01*
X165459000Y-101693667D01*
X165459000Y-101506333D01*
X165495546Y-101322604D01*
X165567234Y-101149534D01*
X165671312Y-100993770D01*
X165803770Y-100861312D01*
X165959534Y-100757234D01*
X166132604Y-100685546D01*
X166316333Y-100649000D01*
X166503667Y-100649000D01*
X166687396Y-100685546D01*
X166687396Y-100685546D01*
G37*
G36*
X197087396Y-100685546D02*
X197260466Y-100757234D01*
X197416230Y-100861312D01*
X197548688Y-100993770D01*
X197652766Y-101149534D01*
X197724454Y-101322604D01*
X197761000Y-101506333D01*
X197761000Y-101693667D01*
X197724454Y-101877396D01*
X197652766Y-102050466D01*
X197548688Y-102206230D01*
X197416230Y-102338688D01*
X197260466Y-102442766D01*
X197087396Y-102514454D01*
X196903667Y-102551000D01*
X196716333Y-102551000D01*
X196532604Y-102514454D01*
X196359534Y-102442766D01*
X196203770Y-102338688D01*
X196071312Y-102206230D01*
X195967234Y-102050466D01*
X195895546Y-101877396D01*
X195859000Y-101693667D01*
X195859000Y-101506333D01*
X195895546Y-101322604D01*
X195967234Y-101149534D01*
X196071312Y-100993770D01*
X196203770Y-100861312D01*
X196359534Y-100757234D01*
X196532604Y-100685546D01*
X196716333Y-100649000D01*
X196903667Y-100649000D01*
X197087396Y-100685546D01*
X197087396Y-100685546D01*
G37*
G36*
X115887396Y-100685546D02*
X116060466Y-100757234D01*
X116216230Y-100861312D01*
X116348688Y-100993770D01*
X116452766Y-101149534D01*
X116524454Y-101322604D01*
X116561000Y-101506333D01*
X116561000Y-101693667D01*
X116524454Y-101877396D01*
X116452766Y-102050466D01*
X116348688Y-102206230D01*
X116216230Y-102338688D01*
X116060466Y-102442766D01*
X115887396Y-102514454D01*
X115703667Y-102551000D01*
X115516333Y-102551000D01*
X115332604Y-102514454D01*
X115159534Y-102442766D01*
X115003770Y-102338688D01*
X114871312Y-102206230D01*
X114767234Y-102050466D01*
X114695546Y-101877396D01*
X114659000Y-101693667D01*
X114659000Y-101506333D01*
X114695546Y-101322604D01*
X114767234Y-101149534D01*
X114871312Y-100993770D01*
X115003770Y-100861312D01*
X115159534Y-100757234D01*
X115332604Y-100685546D01*
X115516333Y-100649000D01*
X115703667Y-100649000D01*
X115887396Y-100685546D01*
X115887396Y-100685546D01*
G37*
G36*
X118387396Y-100685546D02*
X118560466Y-100757234D01*
X118716230Y-100861312D01*
X118848688Y-100993770D01*
X118952766Y-101149534D01*
X119024454Y-101322604D01*
X119061000Y-101506333D01*
X119061000Y-101693667D01*
X119024454Y-101877396D01*
X118952766Y-102050466D01*
X118848688Y-102206230D01*
X118716230Y-102338688D01*
X118560466Y-102442766D01*
X118387396Y-102514454D01*
X118203667Y-102551000D01*
X118016333Y-102551000D01*
X117832604Y-102514454D01*
X117659534Y-102442766D01*
X117503770Y-102338688D01*
X117371312Y-102206230D01*
X117267234Y-102050466D01*
X117195546Y-101877396D01*
X117159000Y-101693667D01*
X117159000Y-101506333D01*
X117195546Y-101322604D01*
X117267234Y-101149534D01*
X117371312Y-100993770D01*
X117503770Y-100861312D01*
X117659534Y-100757234D01*
X117832604Y-100685546D01*
X118016333Y-100649000D01*
X118203667Y-100649000D01*
X118387396Y-100685546D01*
X118387396Y-100685546D01*
G37*
G36*
X105266443Y-100705519D02*
X105332627Y-100712037D01*
X105445853Y-100746384D01*
X105502467Y-100763557D01*
X105641087Y-100837652D01*
X105658991Y-100847222D01*
X105694729Y-100876552D01*
X105796186Y-100959814D01*
X105879448Y-101061271D01*
X105908778Y-101097009D01*
X105908779Y-101097011D01*
X105992443Y-101253533D01*
X105992443Y-101253534D01*
X106043963Y-101423373D01*
X106061359Y-101600000D01*
X106043963Y-101776627D01*
X106013395Y-101877396D01*
X105992443Y-101946467D01*
X105936853Y-102050467D01*
X105908778Y-102102991D01*
X105879448Y-102138729D01*
X105796186Y-102240186D01*
X105694729Y-102323448D01*
X105658991Y-102352778D01*
X105658989Y-102352779D01*
X105502467Y-102436443D01*
X105481622Y-102442766D01*
X105332627Y-102487963D01*
X105266442Y-102494482D01*
X105200260Y-102501000D01*
X105111740Y-102501000D01*
X105045558Y-102494482D01*
X104979373Y-102487963D01*
X104830378Y-102442766D01*
X104809533Y-102436443D01*
X104653011Y-102352779D01*
X104653009Y-102352778D01*
X104617271Y-102323448D01*
X104515814Y-102240186D01*
X104432552Y-102138729D01*
X104403222Y-102102991D01*
X104375147Y-102050467D01*
X104319557Y-101946467D01*
X104298605Y-101877396D01*
X104268037Y-101776627D01*
X104250641Y-101600000D01*
X104268037Y-101423373D01*
X104319557Y-101253534D01*
X104319557Y-101253533D01*
X104403221Y-101097011D01*
X104403222Y-101097009D01*
X104432552Y-101061271D01*
X104515814Y-100959814D01*
X104617271Y-100876552D01*
X104653009Y-100847222D01*
X104670913Y-100837652D01*
X104809533Y-100763557D01*
X104866147Y-100746384D01*
X104979373Y-100712037D01*
X105045557Y-100705519D01*
X105111740Y-100699000D01*
X105200260Y-100699000D01*
X105266443Y-100705519D01*
X105266443Y-100705519D01*
G37*
G36*
X106057000Y-99961000D02*
X104255000Y-99961000D01*
X104255000Y-98159000D01*
X106057000Y-98159000D01*
X106057000Y-99961000D01*
X106057000Y-99961000D01*
G37*
G36*
X201165039Y-92417825D02*
X201410279Y-92492218D01*
X201410281Y-92492219D01*
X201636295Y-92613026D01*
X201834396Y-92775603D01*
X201967821Y-92938182D01*
X201996975Y-92973706D01*
X202117782Y-93199720D01*
X202192175Y-93444960D01*
X202211000Y-93636095D01*
X202211000Y-94563904D01*
X202192175Y-94755040D01*
X202117782Y-95000280D01*
X202117781Y-95000282D01*
X201996974Y-95226296D01*
X201834397Y-95424397D01*
X201636296Y-95586974D01*
X201636294Y-95586975D01*
X201410280Y-95707782D01*
X201165040Y-95782175D01*
X200910000Y-95807294D01*
X200654961Y-95782175D01*
X200409721Y-95707782D01*
X200183707Y-95586975D01*
X200183705Y-95586974D01*
X199985604Y-95424397D01*
X199823026Y-95226295D01*
X199702219Y-95000282D01*
X199702218Y-95000280D01*
X199627825Y-94755040D01*
X199609000Y-94563905D01*
X199609000Y-93636096D01*
X199627825Y-93444961D01*
X199702218Y-93199721D01*
X199823025Y-92973707D01*
X199823026Y-92973705D01*
X199985603Y-92775604D01*
X200183705Y-92613026D01*
X200183704Y-92613026D01*
X200183706Y-92613025D01*
X200409720Y-92492218D01*
X200654960Y-92417825D01*
X200910000Y-92392706D01*
X201165039Y-92417825D01*
X201165039Y-92417825D01*
G37*
G36*
X175765039Y-92417825D02*
X176010279Y-92492218D01*
X176010281Y-92492219D01*
X176236295Y-92613026D01*
X176434396Y-92775603D01*
X176567821Y-92938182D01*
X176596975Y-92973706D01*
X176717782Y-93199720D01*
X176792175Y-93444960D01*
X176811000Y-93636095D01*
X176811000Y-94563904D01*
X176792175Y-94755040D01*
X176717782Y-95000280D01*
X176717781Y-95000282D01*
X176596974Y-95226296D01*
X176434397Y-95424397D01*
X176236296Y-95586974D01*
X176236294Y-95586975D01*
X176010280Y-95707782D01*
X175765040Y-95782175D01*
X175510000Y-95807294D01*
X175254961Y-95782175D01*
X175009721Y-95707782D01*
X174783707Y-95586975D01*
X174783705Y-95586974D01*
X174585604Y-95424397D01*
X174423026Y-95226295D01*
X174302219Y-95000282D01*
X174302218Y-95000280D01*
X174227825Y-94755040D01*
X174209000Y-94563905D01*
X174209000Y-93636096D01*
X174227825Y-93444961D01*
X174302218Y-93199721D01*
X174423025Y-92973707D01*
X174423026Y-92973705D01*
X174585603Y-92775604D01*
X174783705Y-92613026D01*
X174783704Y-92613026D01*
X174783706Y-92613025D01*
X175009720Y-92492218D01*
X175254960Y-92417825D01*
X175510000Y-92392706D01*
X175765039Y-92417825D01*
X175765039Y-92417825D01*
G37*
G36*
X150365039Y-92417825D02*
X150610279Y-92492218D01*
X150610281Y-92492219D01*
X150836295Y-92613026D01*
X151034396Y-92775603D01*
X151167821Y-92938182D01*
X151196975Y-92973706D01*
X151317782Y-93199720D01*
X151392175Y-93444960D01*
X151411000Y-93636095D01*
X151411000Y-94563904D01*
X151392175Y-94755040D01*
X151317782Y-95000280D01*
X151317781Y-95000282D01*
X151196974Y-95226296D01*
X151034397Y-95424397D01*
X150836296Y-95586974D01*
X150836294Y-95586975D01*
X150610280Y-95707782D01*
X150365040Y-95782175D01*
X150110000Y-95807294D01*
X149854961Y-95782175D01*
X149609721Y-95707782D01*
X149383707Y-95586975D01*
X149383705Y-95586974D01*
X149185604Y-95424397D01*
X149023026Y-95226295D01*
X148902219Y-95000282D01*
X148902218Y-95000280D01*
X148827825Y-94755040D01*
X148809000Y-94563905D01*
X148809000Y-93636096D01*
X148827825Y-93444961D01*
X148902218Y-93199721D01*
X149023025Y-92973707D01*
X149023026Y-92973705D01*
X149185603Y-92775604D01*
X149383705Y-92613026D01*
X149383704Y-92613026D01*
X149383706Y-92613025D01*
X149609720Y-92492218D01*
X149854960Y-92417825D01*
X150110000Y-92392706D01*
X150365039Y-92417825D01*
X150365039Y-92417825D01*
G37*
G36*
X137165039Y-92417825D02*
X137410279Y-92492218D01*
X137410281Y-92492219D01*
X137636295Y-92613026D01*
X137834396Y-92775603D01*
X137967821Y-92938182D01*
X137996975Y-92973706D01*
X138117782Y-93199720D01*
X138192175Y-93444960D01*
X138211000Y-93636095D01*
X138211000Y-94563904D01*
X138192175Y-94755040D01*
X138117782Y-95000280D01*
X138117781Y-95000282D01*
X137996974Y-95226296D01*
X137834397Y-95424397D01*
X137636296Y-95586974D01*
X137636294Y-95586975D01*
X137410280Y-95707782D01*
X137165040Y-95782175D01*
X136910000Y-95807294D01*
X136654961Y-95782175D01*
X136409721Y-95707782D01*
X136183707Y-95586975D01*
X136183705Y-95586974D01*
X135985604Y-95424397D01*
X135823026Y-95226295D01*
X135702219Y-95000282D01*
X135702218Y-95000280D01*
X135627825Y-94755040D01*
X135609000Y-94563905D01*
X135609000Y-93636096D01*
X135627825Y-93444961D01*
X135702218Y-93199721D01*
X135823025Y-92973707D01*
X135823026Y-92973705D01*
X135985603Y-92775604D01*
X136183705Y-92613026D01*
X136183704Y-92613026D01*
X136183706Y-92613025D01*
X136409720Y-92492218D01*
X136654960Y-92417825D01*
X136910000Y-92392706D01*
X137165039Y-92417825D01*
X137165039Y-92417825D01*
G37*
G36*
X187965039Y-92417825D02*
X188210279Y-92492218D01*
X188210281Y-92492219D01*
X188436295Y-92613026D01*
X188634396Y-92775603D01*
X188767821Y-92938182D01*
X188796975Y-92973706D01*
X188917782Y-93199720D01*
X188992175Y-93444960D01*
X189011000Y-93636095D01*
X189011000Y-94563904D01*
X188992175Y-94755040D01*
X188917782Y-95000280D01*
X188917781Y-95000282D01*
X188796974Y-95226296D01*
X188634397Y-95424397D01*
X188436296Y-95586974D01*
X188436294Y-95586975D01*
X188210280Y-95707782D01*
X187965040Y-95782175D01*
X187710000Y-95807294D01*
X187454961Y-95782175D01*
X187209721Y-95707782D01*
X186983707Y-95586975D01*
X186983705Y-95586974D01*
X186785604Y-95424397D01*
X186623026Y-95226295D01*
X186502219Y-95000282D01*
X186502218Y-95000280D01*
X186427825Y-94755040D01*
X186409000Y-94563905D01*
X186409000Y-93636096D01*
X186427825Y-93444961D01*
X186502218Y-93199721D01*
X186623025Y-92973707D01*
X186623026Y-92973705D01*
X186785603Y-92775604D01*
X186983705Y-92613026D01*
X186983704Y-92613026D01*
X186983706Y-92613025D01*
X187209720Y-92492218D01*
X187454960Y-92417825D01*
X187710000Y-92392706D01*
X187965039Y-92417825D01*
X187965039Y-92417825D01*
G37*
G36*
X111765039Y-92417825D02*
X112010279Y-92492218D01*
X112010281Y-92492219D01*
X112236295Y-92613026D01*
X112434396Y-92775603D01*
X112567821Y-92938182D01*
X112596975Y-92973706D01*
X112717782Y-93199720D01*
X112792175Y-93444960D01*
X112811000Y-93636095D01*
X112811000Y-94563904D01*
X112792175Y-94755040D01*
X112717782Y-95000280D01*
X112717781Y-95000282D01*
X112596974Y-95226296D01*
X112434397Y-95424397D01*
X112236296Y-95586974D01*
X112236294Y-95586975D01*
X112010280Y-95707782D01*
X111765040Y-95782175D01*
X111510000Y-95807294D01*
X111254961Y-95782175D01*
X111009721Y-95707782D01*
X110783707Y-95586975D01*
X110783705Y-95586974D01*
X110585604Y-95424397D01*
X110423026Y-95226295D01*
X110302219Y-95000282D01*
X110302218Y-95000280D01*
X110227825Y-94755040D01*
X110209000Y-94563905D01*
X110209000Y-93636096D01*
X110227825Y-93444961D01*
X110302218Y-93199721D01*
X110423025Y-92973707D01*
X110423026Y-92973705D01*
X110585603Y-92775604D01*
X110783705Y-92613026D01*
X110783704Y-92613026D01*
X110783706Y-92613025D01*
X111009720Y-92492218D01*
X111254960Y-92417825D01*
X111510000Y-92392706D01*
X111765039Y-92417825D01*
X111765039Y-92417825D01*
G37*
G36*
X124965039Y-92417825D02*
X125210279Y-92492218D01*
X125210281Y-92492219D01*
X125436295Y-92613026D01*
X125634396Y-92775603D01*
X125767821Y-92938182D01*
X125796975Y-92973706D01*
X125917782Y-93199720D01*
X125992175Y-93444960D01*
X126011000Y-93636095D01*
X126011000Y-94563904D01*
X125992175Y-94755040D01*
X125917782Y-95000280D01*
X125917781Y-95000282D01*
X125796974Y-95226296D01*
X125634397Y-95424397D01*
X125436296Y-95586974D01*
X125436294Y-95586975D01*
X125210280Y-95707782D01*
X124965040Y-95782175D01*
X124710000Y-95807294D01*
X124454961Y-95782175D01*
X124209721Y-95707782D01*
X123983707Y-95586975D01*
X123983705Y-95586974D01*
X123785604Y-95424397D01*
X123623026Y-95226295D01*
X123502219Y-95000282D01*
X123502218Y-95000280D01*
X123427825Y-94755040D01*
X123409000Y-94563905D01*
X123409000Y-93636096D01*
X123427825Y-93444961D01*
X123502218Y-93199721D01*
X123623025Y-92973707D01*
X123623026Y-92973705D01*
X123785603Y-92775604D01*
X123983705Y-92613026D01*
X123983704Y-92613026D01*
X123983706Y-92613025D01*
X124209720Y-92492218D01*
X124454960Y-92417825D01*
X124710000Y-92392706D01*
X124965039Y-92417825D01*
X124965039Y-92417825D01*
G37*
G36*
X162565039Y-92417825D02*
X162810279Y-92492218D01*
X162810281Y-92492219D01*
X163036295Y-92613026D01*
X163234396Y-92775603D01*
X163367821Y-92938182D01*
X163396975Y-92973706D01*
X163517782Y-93199720D01*
X163592175Y-93444960D01*
X163611000Y-93636095D01*
X163611000Y-94563904D01*
X163592175Y-94755040D01*
X163517782Y-95000280D01*
X163517781Y-95000282D01*
X163396974Y-95226296D01*
X163234397Y-95424397D01*
X163036296Y-95586974D01*
X163036294Y-95586975D01*
X162810280Y-95707782D01*
X162565040Y-95782175D01*
X162310000Y-95807294D01*
X162054961Y-95782175D01*
X161809721Y-95707782D01*
X161583707Y-95586975D01*
X161583705Y-95586974D01*
X161385604Y-95424397D01*
X161223026Y-95226295D01*
X161102219Y-95000282D01*
X161102218Y-95000280D01*
X161027825Y-94755040D01*
X161009000Y-94563905D01*
X161009000Y-93636096D01*
X161027825Y-93444961D01*
X161102218Y-93199721D01*
X161223025Y-92973707D01*
X161223026Y-92973705D01*
X161385603Y-92775604D01*
X161583705Y-92613026D01*
X161583704Y-92613026D01*
X161583706Y-92613025D01*
X161809720Y-92492218D01*
X162054960Y-92417825D01*
X162310000Y-92392706D01*
X162565039Y-92417825D01*
X162565039Y-92417825D01*
G37*
G36*
X106424485Y-87648996D02*
X106424487Y-87648997D01*
X106424488Y-87648997D01*
X106562661Y-87706230D01*
X106661255Y-87747069D01*
X106874342Y-87889449D01*
X107055551Y-88070658D01*
X107197931Y-88283745D01*
X107296004Y-88520515D01*
X107346000Y-88771861D01*
X107346000Y-89028139D01*
X107296004Y-89279485D01*
X107197931Y-89516255D01*
X107055551Y-89729342D01*
X106874342Y-89910551D01*
X106874339Y-89910553D01*
X106661255Y-90052931D01*
X106424488Y-90151003D01*
X106424487Y-90151003D01*
X106424485Y-90151004D01*
X106173139Y-90201000D01*
X105916861Y-90201000D01*
X105665515Y-90151004D01*
X105665513Y-90151003D01*
X105665512Y-90151003D01*
X105428745Y-90052931D01*
X105215661Y-89910553D01*
X105215658Y-89910551D01*
X105034449Y-89729342D01*
X104892069Y-89516255D01*
X104793996Y-89279485D01*
X104744000Y-89028139D01*
X104744000Y-88771861D01*
X104793996Y-88520515D01*
X104892069Y-88283745D01*
X105034449Y-88070658D01*
X105215658Y-87889449D01*
X105428745Y-87747069D01*
X105527339Y-87706230D01*
X105665512Y-87648997D01*
X105665513Y-87648997D01*
X105665515Y-87648996D01*
X105916861Y-87599000D01*
X106173139Y-87599000D01*
X106424485Y-87648996D01*
X106424485Y-87648996D01*
G37*
G36*
X182991000Y-88981000D02*
X182489000Y-88981000D01*
X182489000Y-87979000D01*
X182991000Y-87979000D01*
X182991000Y-88981000D01*
X182991000Y-88981000D01*
G37*
G36*
X130591000Y-88981000D02*
X130089000Y-88981000D01*
X130089000Y-87979000D01*
X130591000Y-87979000D01*
X130591000Y-88981000D01*
X130591000Y-88981000D01*
G37*
G36*
X182191000Y-88981000D02*
X181689000Y-88981000D01*
X181689000Y-87979000D01*
X182191000Y-87979000D01*
X182191000Y-88981000D01*
X182191000Y-88981000D01*
G37*
G36*
X181391000Y-88981000D02*
X180889000Y-88981000D01*
X180889000Y-87979000D01*
X181391000Y-87979000D01*
X181391000Y-88981000D01*
X181391000Y-88981000D01*
G37*
G36*
X157591000Y-88981000D02*
X157089000Y-88981000D01*
X157089000Y-87979000D01*
X157591000Y-87979000D01*
X157591000Y-88981000D01*
X157591000Y-88981000D01*
G37*
G36*
X156791000Y-88981000D02*
X156289000Y-88981000D01*
X156289000Y-87979000D01*
X156791000Y-87979000D01*
X156791000Y-88981000D01*
X156791000Y-88981000D01*
G37*
G36*
X155191000Y-88981000D02*
X154689000Y-88981000D01*
X154689000Y-87979000D01*
X155191000Y-87979000D01*
X155191000Y-88981000D01*
X155191000Y-88981000D01*
G37*
G36*
X132191000Y-88981000D02*
X131689000Y-88981000D01*
X131689000Y-87979000D01*
X132191000Y-87979000D01*
X132191000Y-88981000D01*
X132191000Y-88981000D01*
G37*
G36*
X131391000Y-88981000D02*
X130889000Y-88981000D01*
X130889000Y-87979000D01*
X131391000Y-87979000D01*
X131391000Y-88981000D01*
X131391000Y-88981000D01*
G37*
G36*
X129791000Y-88981000D02*
X129289000Y-88981000D01*
X129289000Y-87979000D01*
X129791000Y-87979000D01*
X129791000Y-88981000D01*
X129791000Y-88981000D01*
G37*
G36*
X180591000Y-88981000D02*
X180089000Y-88981000D01*
X180089000Y-87979000D01*
X180591000Y-87979000D01*
X180591000Y-88981000D01*
X180591000Y-88981000D01*
G37*
G36*
X155991000Y-88981000D02*
X155489000Y-88981000D01*
X155489000Y-87979000D01*
X155991000Y-87979000D01*
X155991000Y-88981000D01*
X155991000Y-88981000D01*
G37*
G36*
X171687396Y-86185546D02*
X171860466Y-86257234D01*
X172016230Y-86361312D01*
X172148688Y-86493770D01*
X172252766Y-86649534D01*
X172324454Y-86822604D01*
X172361000Y-87006333D01*
X172361000Y-87193667D01*
X172324454Y-87377396D01*
X172252766Y-87550466D01*
X172148688Y-87706230D01*
X172016230Y-87838688D01*
X171860466Y-87942766D01*
X171687396Y-88014454D01*
X171503667Y-88051000D01*
X171316333Y-88051000D01*
X171132604Y-88014454D01*
X170959534Y-87942766D01*
X170803770Y-87838688D01*
X170671312Y-87706230D01*
X170567234Y-87550466D01*
X170495546Y-87377396D01*
X170459000Y-87193667D01*
X170459000Y-87006333D01*
X170495546Y-86822604D01*
X170567234Y-86649534D01*
X170671312Y-86493770D01*
X170803770Y-86361312D01*
X170959534Y-86257234D01*
X171132604Y-86185546D01*
X171316333Y-86149000D01*
X171503667Y-86149000D01*
X171687396Y-86185546D01*
X171687396Y-86185546D01*
G37*
G36*
X166687396Y-86185546D02*
X166860466Y-86257234D01*
X167016230Y-86361312D01*
X167148688Y-86493770D01*
X167252766Y-86649534D01*
X167324454Y-86822604D01*
X167361000Y-87006333D01*
X167361000Y-87193667D01*
X167324454Y-87377396D01*
X167252766Y-87550466D01*
X167148688Y-87706230D01*
X167016230Y-87838688D01*
X166860466Y-87942766D01*
X166687396Y-88014454D01*
X166503667Y-88051000D01*
X166316333Y-88051000D01*
X166132604Y-88014454D01*
X165959534Y-87942766D01*
X165803770Y-87838688D01*
X165671312Y-87706230D01*
X165567234Y-87550466D01*
X165495546Y-87377396D01*
X165459000Y-87193667D01*
X165459000Y-87006333D01*
X165495546Y-86822604D01*
X165567234Y-86649534D01*
X165671312Y-86493770D01*
X165803770Y-86361312D01*
X165959534Y-86257234D01*
X166132604Y-86185546D01*
X166316333Y-86149000D01*
X166503667Y-86149000D01*
X166687396Y-86185546D01*
X166687396Y-86185546D01*
G37*
G36*
X141287396Y-86185546D02*
X141460466Y-86257234D01*
X141616230Y-86361312D01*
X141748688Y-86493770D01*
X141852766Y-86649534D01*
X141924454Y-86822604D01*
X141961000Y-87006333D01*
X141961000Y-87193667D01*
X141924454Y-87377396D01*
X141852766Y-87550466D01*
X141748688Y-87706230D01*
X141616230Y-87838688D01*
X141460466Y-87942766D01*
X141287396Y-88014454D01*
X141103667Y-88051000D01*
X140916333Y-88051000D01*
X140732604Y-88014454D01*
X140559534Y-87942766D01*
X140403770Y-87838688D01*
X140271312Y-87706230D01*
X140167234Y-87550466D01*
X140095546Y-87377396D01*
X140059000Y-87193667D01*
X140059000Y-87006333D01*
X140095546Y-86822604D01*
X140167234Y-86649534D01*
X140271312Y-86493770D01*
X140403770Y-86361312D01*
X140559534Y-86257234D01*
X140732604Y-86185546D01*
X140916333Y-86149000D01*
X141103667Y-86149000D01*
X141287396Y-86185546D01*
X141287396Y-86185546D01*
G37*
G36*
X120887396Y-86185546D02*
X121060466Y-86257234D01*
X121216230Y-86361312D01*
X121348688Y-86493770D01*
X121452766Y-86649534D01*
X121524454Y-86822604D01*
X121561000Y-87006333D01*
X121561000Y-87193667D01*
X121524454Y-87377396D01*
X121452766Y-87550466D01*
X121348688Y-87706230D01*
X121216230Y-87838688D01*
X121060466Y-87942766D01*
X120887396Y-88014454D01*
X120703667Y-88051000D01*
X120516333Y-88051000D01*
X120332604Y-88014454D01*
X120159534Y-87942766D01*
X120003770Y-87838688D01*
X119871312Y-87706230D01*
X119767234Y-87550466D01*
X119695546Y-87377396D01*
X119659000Y-87193667D01*
X119659000Y-87006333D01*
X119695546Y-86822604D01*
X119767234Y-86649534D01*
X119871312Y-86493770D01*
X120003770Y-86361312D01*
X120159534Y-86257234D01*
X120332604Y-86185546D01*
X120516333Y-86149000D01*
X120703667Y-86149000D01*
X120887396Y-86185546D01*
X120887396Y-86185546D01*
G37*
G36*
X115887396Y-86185546D02*
X116060466Y-86257234D01*
X116216230Y-86361312D01*
X116348688Y-86493770D01*
X116452766Y-86649534D01*
X116524454Y-86822604D01*
X116561000Y-87006333D01*
X116561000Y-87193667D01*
X116524454Y-87377396D01*
X116452766Y-87550466D01*
X116348688Y-87706230D01*
X116216230Y-87838688D01*
X116060466Y-87942766D01*
X115887396Y-88014454D01*
X115703667Y-88051000D01*
X115516333Y-88051000D01*
X115332604Y-88014454D01*
X115159534Y-87942766D01*
X115003770Y-87838688D01*
X114871312Y-87706230D01*
X114767234Y-87550466D01*
X114695546Y-87377396D01*
X114659000Y-87193667D01*
X114659000Y-87006333D01*
X114695546Y-86822604D01*
X114767234Y-86649534D01*
X114871312Y-86493770D01*
X115003770Y-86361312D01*
X115159534Y-86257234D01*
X115332604Y-86185546D01*
X115516333Y-86149000D01*
X115703667Y-86149000D01*
X115887396Y-86185546D01*
X115887396Y-86185546D01*
G37*
G36*
X146287396Y-86185546D02*
X146460466Y-86257234D01*
X146616230Y-86361312D01*
X146748688Y-86493770D01*
X146852766Y-86649534D01*
X146924454Y-86822604D01*
X146961000Y-87006333D01*
X146961000Y-87193667D01*
X146924454Y-87377396D01*
X146852766Y-87550466D01*
X146748688Y-87706230D01*
X146616230Y-87838688D01*
X146460466Y-87942766D01*
X146287396Y-88014454D01*
X146103667Y-88051000D01*
X145916333Y-88051000D01*
X145732604Y-88014454D01*
X145559534Y-87942766D01*
X145403770Y-87838688D01*
X145271312Y-87706230D01*
X145167234Y-87550466D01*
X145095546Y-87377396D01*
X145059000Y-87193667D01*
X145059000Y-87006333D01*
X145095546Y-86822604D01*
X145167234Y-86649534D01*
X145271312Y-86493770D01*
X145403770Y-86361312D01*
X145559534Y-86257234D01*
X145732604Y-86185546D01*
X145916333Y-86149000D01*
X146103667Y-86149000D01*
X146287396Y-86185546D01*
X146287396Y-86185546D01*
G37*
G36*
X197087396Y-86185546D02*
X197260466Y-86257234D01*
X197416230Y-86361312D01*
X197548688Y-86493770D01*
X197652766Y-86649534D01*
X197724454Y-86822604D01*
X197761000Y-87006333D01*
X197761000Y-87193667D01*
X197724454Y-87377396D01*
X197652766Y-87550466D01*
X197548688Y-87706230D01*
X197416230Y-87838688D01*
X197260466Y-87942766D01*
X197087396Y-88014454D01*
X196903667Y-88051000D01*
X196716333Y-88051000D01*
X196532604Y-88014454D01*
X196359534Y-87942766D01*
X196203770Y-87838688D01*
X196071312Y-87706230D01*
X195967234Y-87550466D01*
X195895546Y-87377396D01*
X195859000Y-87193667D01*
X195859000Y-87006333D01*
X195895546Y-86822604D01*
X195967234Y-86649534D01*
X196071312Y-86493770D01*
X196203770Y-86361312D01*
X196359534Y-86257234D01*
X196532604Y-86185546D01*
X196716333Y-86149000D01*
X196903667Y-86149000D01*
X197087396Y-86185546D01*
X197087396Y-86185546D01*
G37*
G36*
X192087396Y-86185546D02*
X192260466Y-86257234D01*
X192416230Y-86361312D01*
X192548688Y-86493770D01*
X192652766Y-86649534D01*
X192724454Y-86822604D01*
X192761000Y-87006333D01*
X192761000Y-87193667D01*
X192724454Y-87377396D01*
X192652766Y-87550466D01*
X192548688Y-87706230D01*
X192416230Y-87838688D01*
X192260466Y-87942766D01*
X192087396Y-88014454D01*
X191903667Y-88051000D01*
X191716333Y-88051000D01*
X191532604Y-88014454D01*
X191359534Y-87942766D01*
X191203770Y-87838688D01*
X191071312Y-87706230D01*
X190967234Y-87550466D01*
X190895546Y-87377396D01*
X190859000Y-87193667D01*
X190859000Y-87006333D01*
X190895546Y-86822604D01*
X190967234Y-86649534D01*
X191071312Y-86493770D01*
X191203770Y-86361312D01*
X191359534Y-86257234D01*
X191532604Y-86185546D01*
X191716333Y-86149000D01*
X191903667Y-86149000D01*
X192087396Y-86185546D01*
X192087396Y-86185546D01*
G37*
G36*
X129791000Y-87281000D02*
X129289000Y-87281000D01*
X129289000Y-86279000D01*
X129791000Y-86279000D01*
X129791000Y-87281000D01*
X129791000Y-87281000D01*
G37*
G36*
X155191000Y-87281000D02*
X154689000Y-87281000D01*
X154689000Y-86279000D01*
X155191000Y-86279000D01*
X155191000Y-87281000D01*
X155191000Y-87281000D01*
G37*
G36*
X132191000Y-87281000D02*
X131689000Y-87281000D01*
X131689000Y-86279000D01*
X132191000Y-86279000D01*
X132191000Y-87281000D01*
X132191000Y-87281000D01*
G37*
G36*
X131391000Y-87281000D02*
X130889000Y-87281000D01*
X130889000Y-86279000D01*
X131391000Y-86279000D01*
X131391000Y-87281000D01*
X131391000Y-87281000D01*
G37*
G36*
X130591000Y-87281000D02*
X130089000Y-87281000D01*
X130089000Y-86279000D01*
X130591000Y-86279000D01*
X130591000Y-87281000D01*
X130591000Y-87281000D01*
G37*
G36*
X155991000Y-87281000D02*
X155489000Y-87281000D01*
X155489000Y-86279000D01*
X155991000Y-86279000D01*
X155991000Y-87281000D01*
X155991000Y-87281000D01*
G37*
G36*
X156791000Y-87281000D02*
X156289000Y-87281000D01*
X156289000Y-86279000D01*
X156791000Y-86279000D01*
X156791000Y-87281000D01*
X156791000Y-87281000D01*
G37*
G36*
X157591000Y-87281000D02*
X157089000Y-87281000D01*
X157089000Y-86279000D01*
X157591000Y-86279000D01*
X157591000Y-87281000D01*
X157591000Y-87281000D01*
G37*
G36*
X182991000Y-87281000D02*
X182489000Y-87281000D01*
X182489000Y-86279000D01*
X182991000Y-86279000D01*
X182991000Y-87281000D01*
X182991000Y-87281000D01*
G37*
G36*
X182191000Y-87281000D02*
X181689000Y-87281000D01*
X181689000Y-86279000D01*
X182191000Y-86279000D01*
X182191000Y-87281000D01*
X182191000Y-87281000D01*
G37*
G36*
X180591000Y-87281000D02*
X180089000Y-87281000D01*
X180089000Y-86279000D01*
X180591000Y-86279000D01*
X180591000Y-87281000D01*
X180591000Y-87281000D01*
G37*
G36*
X181391000Y-87281000D02*
X180889000Y-87281000D01*
X180889000Y-86279000D01*
X181391000Y-86279000D01*
X181391000Y-87281000D01*
X181391000Y-87281000D01*
G37*
M02*
