G04 #@! TF.GenerationSoftware,KiCad,Pcbnew,5.0.1+dfsg1-2*
G04 #@! TF.CreationDate,2019-02-06T11:22:59+01:00*
G04 #@! TF.ProjectId,encoder-board,656E636F6465722D626F6172642E6B69,rev?*
G04 #@! TF.SameCoordinates,Original*
G04 #@! TF.FileFunction,Copper,L2,Bot,Signal*
G04 #@! TF.FilePolarity,Positive*
%FSLAX46Y46*%
G04 Gerber Fmt 4.6, Leading zero omitted, Abs format (unit mm)*
G04 Created by KiCad (PCBNEW 5.0.1+dfsg1-2) date Mi 06 Feb 2019 11:22:59 CET*
%MOMM*%
%LPD*%
G01*
G04 APERTURE LIST*
G04 #@! TA.AperFunction,ComponentPad*
%ADD10O,1.700000X1.700000*%
G04 #@! TD*
G04 #@! TA.AperFunction,ComponentPad*
%ADD11R,1.700000X1.700000*%
G04 #@! TD*
G04 #@! TA.AperFunction,ComponentPad*
%ADD12O,2.500000X3.300000*%
G04 #@! TD*
G04 #@! TA.AperFunction,ComponentPad*
%ADD13C,1.800000*%
G04 #@! TD*
G04 #@! TA.AperFunction,ComponentPad*
%ADD14C,2.200000*%
G04 #@! TD*
G04 #@! TA.AperFunction,ViaPad*
%ADD15C,0.800000*%
G04 #@! TD*
G04 #@! TA.AperFunction,Conductor*
%ADD16C,0.250000*%
G04 #@! TD*
G04 #@! TA.AperFunction,Conductor*
%ADD17C,0.200000*%
G04 #@! TD*
G04 APERTURE END LIST*
D10*
G04 #@! TO.P,J1,6*
G04 #@! TO.N,+3V3*
X105156000Y-111760000D03*
G04 #@! TO.P,J1,5*
G04 #@! TO.N,GND*
X105156000Y-109220000D03*
G04 #@! TO.P,J1,4*
G04 #@! TO.N,/CLK*
X105156000Y-106680000D03*
G04 #@! TO.P,J1,3*
G04 #@! TO.N,/DOUT*
X105156000Y-104140000D03*
G04 #@! TO.P,J1,2*
G04 #@! TO.N,/~PL*
X105156000Y-101600000D03*
D11*
G04 #@! TO.P,J1,1*
G04 #@! TO.N,/~CE*
X105156000Y-99060000D03*
G04 #@! TD*
D12*
G04 #@! TO.P,SW2,SH2*
G04 #@! TO.N,N/C*
X150110000Y-94100000D03*
G04 #@! TO.P,SW2,SH1*
X136910000Y-94100000D03*
D13*
G04 #@! TO.P,SW2,S1*
G04 #@! TO.N,+3V3*
X141010000Y-87100000D03*
G04 #@! TO.P,SW2,S2*
G04 #@! TO.N,/SW2-S*
X146010000Y-87100000D03*
G04 #@! TO.P,SW2,B*
G04 #@! TO.N,/SW2-B*
X146010000Y-101600000D03*
G04 #@! TO.P,SW2,C*
G04 #@! TO.N,+3V3*
X143510000Y-101600000D03*
G04 #@! TO.P,SW2,A*
G04 #@! TO.N,/SW2-A*
X141010000Y-101600000D03*
G04 #@! TD*
D12*
G04 #@! TO.P,SW4,SH2*
G04 #@! TO.N,N/C*
X200910000Y-94100000D03*
G04 #@! TO.P,SW4,SH1*
X187710000Y-94100000D03*
D13*
G04 #@! TO.P,SW4,S1*
G04 #@! TO.N,+3V3*
X191810000Y-87100000D03*
G04 #@! TO.P,SW4,S2*
G04 #@! TO.N,/SW4-S*
X196810000Y-87100000D03*
G04 #@! TO.P,SW4,B*
G04 #@! TO.N,/SW4-B*
X196810000Y-101600000D03*
G04 #@! TO.P,SW4,C*
G04 #@! TO.N,+3V3*
X194310000Y-101600000D03*
G04 #@! TO.P,SW4,A*
G04 #@! TO.N,/SW4-A*
X191810000Y-101600000D03*
G04 #@! TD*
D12*
G04 #@! TO.P,SW1,SH2*
G04 #@! TO.N,N/C*
X124710000Y-94100000D03*
G04 #@! TO.P,SW1,SH1*
X111510000Y-94100000D03*
D13*
G04 #@! TO.P,SW1,S1*
G04 #@! TO.N,+3V3*
X115610000Y-87100000D03*
G04 #@! TO.P,SW1,S2*
G04 #@! TO.N,/SW1-S*
X120610000Y-87100000D03*
G04 #@! TO.P,SW1,B*
G04 #@! TO.N,/SW1-B*
X120610000Y-101600000D03*
G04 #@! TO.P,SW1,C*
G04 #@! TO.N,+3V3*
X118110000Y-101600000D03*
G04 #@! TO.P,SW1,A*
G04 #@! TO.N,/SW1-A*
X115610000Y-101600000D03*
G04 #@! TD*
D12*
G04 #@! TO.P,SW3,SH2*
G04 #@! TO.N,N/C*
X175510000Y-94100000D03*
G04 #@! TO.P,SW3,SH1*
X162310000Y-94100000D03*
D13*
G04 #@! TO.P,SW3,S1*
G04 #@! TO.N,+3V3*
X166410000Y-87100000D03*
G04 #@! TO.P,SW3,S2*
G04 #@! TO.N,/SW3-S*
X171410000Y-87100000D03*
G04 #@! TO.P,SW3,B*
G04 #@! TO.N,/SW3-B*
X171410000Y-101600000D03*
G04 #@! TO.P,SW3,C*
G04 #@! TO.N,+3V3*
X168910000Y-101600000D03*
G04 #@! TO.P,SW3,A*
G04 #@! TO.N,/SW3-A*
X166410000Y-101600000D03*
G04 #@! TD*
D14*
G04 #@! TO.P,SW5,4*
G04 #@! TO.N,/SW5-S*
X111860000Y-114340000D03*
G04 #@! TO.P,SW5,3*
X124360000Y-114340000D03*
G04 #@! TO.P,SW5,2*
G04 #@! TO.N,+3V3*
X124360000Y-119340000D03*
G04 #@! TO.P,SW5,1*
X111860000Y-119340000D03*
G04 #@! TD*
G04 #@! TO.P,SW6,4*
G04 #@! TO.N,/SW6-S*
X137260000Y-114340000D03*
G04 #@! TO.P,SW6,3*
X149760000Y-114340000D03*
G04 #@! TO.P,SW6,2*
G04 #@! TO.N,+3V3*
X149760000Y-119340000D03*
G04 #@! TO.P,SW6,1*
X137260000Y-119340000D03*
G04 #@! TD*
G04 #@! TO.P,SW7,4*
G04 #@! TO.N,/SW7-S*
X162660000Y-114340000D03*
G04 #@! TO.P,SW7,3*
X175160000Y-114340000D03*
G04 #@! TO.P,SW7,2*
G04 #@! TO.N,+3V3*
X175160000Y-119340000D03*
G04 #@! TO.P,SW7,1*
X162660000Y-119340000D03*
G04 #@! TD*
G04 #@! TO.P,SW8,4*
G04 #@! TO.N,/SW8-S*
X188060000Y-114340000D03*
G04 #@! TO.P,SW8,3*
X200560000Y-114340000D03*
G04 #@! TO.P,SW8,2*
G04 #@! TO.N,+3V3*
X200560000Y-119340000D03*
G04 #@! TO.P,SW8,1*
X188060000Y-119340000D03*
G04 #@! TD*
D15*
G04 #@! TO.N,/~PL*
X124460000Y-110744000D03*
X174338000Y-110650000D03*
G04 #@! TO.N,/CLK*
X124968000Y-109220000D03*
X174244000Y-108712000D03*
G04 #@! TO.N,/SW2-S*
X152908000Y-88480000D03*
X132588000Y-108204012D03*
G04 #@! TO.N,/SW3-B*
X159004000Y-88392000D03*
X157480000Y-97536000D03*
G04 #@! TO.N,/SW1-A*
X128524000Y-96520000D03*
X128016000Y-90805000D03*
G04 #@! TO.N,/SW1-S*
X130556000Y-95504000D03*
X128016000Y-88480000D03*
G04 #@! TO.N,/~CE*
X125222022Y-107696028D03*
X174244000Y-107188000D03*
G04 #@! TO.N,/SW4-S*
X184785000Y-88480000D03*
X184150000Y-99060000D03*
G04 #@! TO.N,/SW4-B*
X182880000Y-92075000D03*
X182880000Y-97155000D03*
G04 #@! TO.N,/DOUT*
X156464006Y-121412000D03*
X188976000Y-105156000D03*
X109855000Y-104140000D03*
X109855000Y-110490000D03*
G04 #@! TO.N,/SW6-S*
X179705000Y-116840000D03*
X180340000Y-114300000D03*
G04 #@! TO.N,/SW5-S*
X178435000Y-114300000D03*
X178435000Y-117914999D03*
G04 #@! TO.N,/DATA*
X185420000Y-103378000D03*
X152146000Y-105885000D03*
G04 #@! TD*
D16*
G04 #@! TO.N,/~PL*
X124460000Y-110744000D02*
X125984000Y-112268000D01*
X172720000Y-112268000D02*
X174338000Y-110650000D01*
X125984000Y-112268000D02*
X172720000Y-112268000D01*
X109220000Y-101600000D02*
X105156000Y-101600000D01*
X124460000Y-110744000D02*
X118364000Y-110744000D01*
X118364000Y-110744000D02*
X109220000Y-101600000D01*
G04 #@! TO.N,/CLK*
X126492000Y-110744000D02*
X124968000Y-109220000D01*
X174244000Y-108712000D02*
X172212000Y-110744000D01*
X172212000Y-110744000D02*
X126492000Y-110744000D01*
G04 #@! TO.N,/SW2-S*
X132987999Y-107804013D02*
X132588000Y-108204012D01*
X152908000Y-88480000D02*
X152312012Y-88480000D01*
X152312012Y-88480000D02*
X132987999Y-107804013D01*
G04 #@! TO.N,/SW3-B*
X159004000Y-96012000D02*
X157480000Y-97536000D01*
X159004000Y-88392000D02*
X159004000Y-96012000D01*
G04 #@! TO.N,/SW1-A*
X128016000Y-96012000D02*
X128524000Y-96520000D01*
X128016000Y-90805000D02*
X128016000Y-96012000D01*
G04 #@! TO.N,/SW1-S*
X130556000Y-91020000D02*
X128016000Y-88480000D01*
X130556000Y-95504000D02*
X130556000Y-91020000D01*
G04 #@! TO.N,/~CE*
X172212000Y-109220000D02*
X174244000Y-107188000D01*
X125222022Y-107696028D02*
X126745994Y-109220000D01*
X126745994Y-109220000D02*
X172212000Y-109220000D01*
G04 #@! TO.N,/SW4-S*
X184785000Y-98425000D02*
X184785000Y-88480000D01*
X184150000Y-99060000D02*
X184785000Y-98425000D01*
G04 #@! TO.N,/SW4-B*
X182880000Y-92075000D02*
X182880000Y-97155000D01*
G04 #@! TO.N,/DOUT*
X177800000Y-121412000D02*
X156464006Y-121412000D01*
X188976000Y-105156000D02*
X188976000Y-110236000D01*
X188976000Y-110236000D02*
X177800000Y-121412000D01*
X109855000Y-104140000D02*
X109855000Y-104705685D01*
X109855000Y-104705685D02*
X109855000Y-110490000D01*
G04 #@! TO.N,/SW6-S*
X179705000Y-114935000D02*
X180340000Y-114300000D01*
X179705000Y-116840000D02*
X179705000Y-114935000D01*
G04 #@! TO.N,/SW5-S*
X178435000Y-114300000D02*
X178435000Y-117914999D01*
G04 #@! TO.N,/DATA*
X152711685Y-105885000D02*
X152146000Y-105885000D01*
X185420000Y-103378000D02*
X155218685Y-103378000D01*
X155218685Y-103378000D02*
X152711685Y-105885000D01*
G04 #@! TD*
D17*
G04 #@! TO.N,+3V3*
G36*
X204095000Y-124085000D02*
X103245000Y-124085000D01*
X103245000Y-120497338D01*
X104495000Y-120497338D01*
X104495000Y-120802662D01*
X104554565Y-121102118D01*
X104671408Y-121384200D01*
X104841036Y-121638068D01*
X105056932Y-121853964D01*
X105310800Y-122023592D01*
X105592882Y-122140435D01*
X105892338Y-122200000D01*
X106197662Y-122200000D01*
X106497118Y-122140435D01*
X106779200Y-122023592D01*
X107033068Y-121853964D01*
X107248964Y-121638068D01*
X107418592Y-121384200D01*
X107435634Y-121343056D01*
X155764006Y-121343056D01*
X155764006Y-121480944D01*
X155790907Y-121616182D01*
X155843674Y-121743574D01*
X155920280Y-121858224D01*
X156017782Y-121955726D01*
X156132432Y-122032332D01*
X156259824Y-122085099D01*
X156395062Y-122112000D01*
X156532950Y-122112000D01*
X156668188Y-122085099D01*
X156795580Y-122032332D01*
X156910230Y-121955726D01*
X157007732Y-121858224D01*
X157021913Y-121837000D01*
X177779133Y-121837000D01*
X177800000Y-121839055D01*
X177820867Y-121837000D01*
X177820874Y-121837000D01*
X177883314Y-121830850D01*
X177963427Y-121806548D01*
X178037260Y-121767084D01*
X178101974Y-121713974D01*
X178115284Y-121697756D01*
X179487130Y-120325910D01*
X187109445Y-120325910D01*
X187223939Y-120533272D01*
X187472799Y-120673451D01*
X187744224Y-120762386D01*
X188027786Y-120796660D01*
X188312586Y-120774956D01*
X188587678Y-120698106D01*
X188842492Y-120569065D01*
X188896061Y-120533272D01*
X189010555Y-120325910D01*
X199609445Y-120325910D01*
X199723939Y-120533272D01*
X199972799Y-120673451D01*
X200244224Y-120762386D01*
X200527786Y-120796660D01*
X200812586Y-120774956D01*
X201087678Y-120698106D01*
X201342492Y-120569065D01*
X201396061Y-120533272D01*
X201510555Y-120325910D01*
X200560000Y-119375355D01*
X199609445Y-120325910D01*
X189010555Y-120325910D01*
X188060000Y-119375355D01*
X187109445Y-120325910D01*
X179487130Y-120325910D01*
X180505254Y-119307786D01*
X186603340Y-119307786D01*
X186625044Y-119592586D01*
X186701894Y-119867678D01*
X186830935Y-120122492D01*
X186866728Y-120176061D01*
X187074090Y-120290555D01*
X188024645Y-119340000D01*
X188095355Y-119340000D01*
X189045910Y-120290555D01*
X189253272Y-120176061D01*
X189393451Y-119927201D01*
X189482386Y-119655776D01*
X189516660Y-119372214D01*
X189511751Y-119307786D01*
X199103340Y-119307786D01*
X199125044Y-119592586D01*
X199201894Y-119867678D01*
X199330935Y-120122492D01*
X199366728Y-120176061D01*
X199574090Y-120290555D01*
X200524645Y-119340000D01*
X200595355Y-119340000D01*
X201545910Y-120290555D01*
X201753272Y-120176061D01*
X201893451Y-119927201D01*
X201982386Y-119655776D01*
X202016660Y-119372214D01*
X201994956Y-119087414D01*
X201918106Y-118812322D01*
X201789065Y-118557508D01*
X201753272Y-118503939D01*
X201545910Y-118389445D01*
X200595355Y-119340000D01*
X200524645Y-119340000D01*
X199574090Y-118389445D01*
X199366728Y-118503939D01*
X199226549Y-118752799D01*
X199137614Y-119024224D01*
X199103340Y-119307786D01*
X189511751Y-119307786D01*
X189494956Y-119087414D01*
X189418106Y-118812322D01*
X189289065Y-118557508D01*
X189253272Y-118503939D01*
X189045910Y-118389445D01*
X188095355Y-119340000D01*
X188024645Y-119340000D01*
X187074090Y-118389445D01*
X186866728Y-118503939D01*
X186726549Y-118752799D01*
X186637614Y-119024224D01*
X186603340Y-119307786D01*
X180505254Y-119307786D01*
X181458950Y-118354090D01*
X187109445Y-118354090D01*
X188060000Y-119304645D01*
X189010555Y-118354090D01*
X199609445Y-118354090D01*
X200560000Y-119304645D01*
X201510555Y-118354090D01*
X201396061Y-118146728D01*
X201147201Y-118006549D01*
X200875776Y-117917614D01*
X200592214Y-117883340D01*
X200307414Y-117905044D01*
X200032322Y-117981894D01*
X199777508Y-118110935D01*
X199723939Y-118146728D01*
X199609445Y-118354090D01*
X189010555Y-118354090D01*
X188896061Y-118146728D01*
X188647201Y-118006549D01*
X188375776Y-117917614D01*
X188092214Y-117883340D01*
X187807414Y-117905044D01*
X187532322Y-117981894D01*
X187277508Y-118110935D01*
X187223939Y-118146728D01*
X187109445Y-118354090D01*
X181458950Y-118354090D01*
X185610928Y-114202112D01*
X186660000Y-114202112D01*
X186660000Y-114477888D01*
X186713801Y-114748365D01*
X186819336Y-115003149D01*
X186972549Y-115232448D01*
X187167552Y-115427451D01*
X187396851Y-115580664D01*
X187651635Y-115686199D01*
X187922112Y-115740000D01*
X188197888Y-115740000D01*
X188468365Y-115686199D01*
X188723149Y-115580664D01*
X188952448Y-115427451D01*
X189147451Y-115232448D01*
X189300664Y-115003149D01*
X189406199Y-114748365D01*
X189460000Y-114477888D01*
X189460000Y-114202112D01*
X199160000Y-114202112D01*
X199160000Y-114477888D01*
X199213801Y-114748365D01*
X199319336Y-115003149D01*
X199472549Y-115232448D01*
X199667552Y-115427451D01*
X199896851Y-115580664D01*
X200151635Y-115686199D01*
X200422112Y-115740000D01*
X200697888Y-115740000D01*
X200968365Y-115686199D01*
X201223149Y-115580664D01*
X201452448Y-115427451D01*
X201647451Y-115232448D01*
X201800664Y-115003149D01*
X201906199Y-114748365D01*
X201960000Y-114477888D01*
X201960000Y-114202112D01*
X201906199Y-113931635D01*
X201800664Y-113676851D01*
X201647451Y-113447552D01*
X201452448Y-113252549D01*
X201223149Y-113099336D01*
X200968365Y-112993801D01*
X200697888Y-112940000D01*
X200422112Y-112940000D01*
X200151635Y-112993801D01*
X199896851Y-113099336D01*
X199667552Y-113252549D01*
X199472549Y-113447552D01*
X199319336Y-113676851D01*
X199213801Y-113931635D01*
X199160000Y-114202112D01*
X189460000Y-114202112D01*
X189406199Y-113931635D01*
X189300664Y-113676851D01*
X189147451Y-113447552D01*
X188952448Y-113252549D01*
X188723149Y-113099336D01*
X188468365Y-112993801D01*
X188197888Y-112940000D01*
X187922112Y-112940000D01*
X187651635Y-112993801D01*
X187396851Y-113099336D01*
X187167552Y-113252549D01*
X186972549Y-113447552D01*
X186819336Y-113676851D01*
X186713801Y-113931635D01*
X186660000Y-114202112D01*
X185610928Y-114202112D01*
X189261762Y-110551279D01*
X189277974Y-110537974D01*
X189331084Y-110473260D01*
X189363600Y-110412426D01*
X189370548Y-110399428D01*
X189394850Y-110319314D01*
X189398149Y-110285818D01*
X189401000Y-110256874D01*
X189401000Y-110256867D01*
X189403055Y-110236000D01*
X189401000Y-110215133D01*
X189401000Y-106527338D01*
X197840000Y-106527338D01*
X197840000Y-106832662D01*
X197899565Y-107132118D01*
X198016408Y-107414200D01*
X198186036Y-107668068D01*
X198401932Y-107883964D01*
X198655800Y-108053592D01*
X198937882Y-108170435D01*
X199237338Y-108230000D01*
X199542662Y-108230000D01*
X199842118Y-108170435D01*
X200124200Y-108053592D01*
X200378068Y-107883964D01*
X200593964Y-107668068D01*
X200763592Y-107414200D01*
X200880435Y-107132118D01*
X200940000Y-106832662D01*
X200940000Y-106527338D01*
X200880435Y-106227882D01*
X200763592Y-105945800D01*
X200593964Y-105691932D01*
X200378068Y-105476036D01*
X200124200Y-105306408D01*
X199842118Y-105189565D01*
X199542662Y-105130000D01*
X199237338Y-105130000D01*
X198937882Y-105189565D01*
X198655800Y-105306408D01*
X198401932Y-105476036D01*
X198186036Y-105691932D01*
X198016408Y-105945800D01*
X197899565Y-106227882D01*
X197840000Y-106527338D01*
X189401000Y-106527338D01*
X189401000Y-105713907D01*
X189422224Y-105699726D01*
X189519726Y-105602224D01*
X189596332Y-105487574D01*
X189649099Y-105360182D01*
X189676000Y-105224944D01*
X189676000Y-105087056D01*
X189649099Y-104951818D01*
X189596332Y-104824426D01*
X189519726Y-104709776D01*
X189422224Y-104612274D01*
X189307574Y-104535668D01*
X189180182Y-104482901D01*
X189044944Y-104456000D01*
X188907056Y-104456000D01*
X188771818Y-104482901D01*
X188644426Y-104535668D01*
X188529776Y-104612274D01*
X188432274Y-104709776D01*
X188355668Y-104824426D01*
X188302901Y-104951818D01*
X188276000Y-105087056D01*
X188276000Y-105224944D01*
X188302901Y-105360182D01*
X188355668Y-105487574D01*
X188432274Y-105602224D01*
X188529776Y-105699726D01*
X188551000Y-105713907D01*
X188551001Y-110059958D01*
X177623960Y-120987000D01*
X157021913Y-120987000D01*
X157007732Y-120965776D01*
X156910230Y-120868274D01*
X156795580Y-120791668D01*
X156668188Y-120738901D01*
X156532950Y-120712000D01*
X156395062Y-120712000D01*
X156259824Y-120738901D01*
X156132432Y-120791668D01*
X156017782Y-120868274D01*
X155920280Y-120965776D01*
X155843674Y-121080426D01*
X155790907Y-121207818D01*
X155764006Y-121343056D01*
X107435634Y-121343056D01*
X107535435Y-121102118D01*
X107595000Y-120802662D01*
X107595000Y-120497338D01*
X107560902Y-120325910D01*
X110909445Y-120325910D01*
X111023939Y-120533272D01*
X111272799Y-120673451D01*
X111544224Y-120762386D01*
X111827786Y-120796660D01*
X112112586Y-120774956D01*
X112387678Y-120698106D01*
X112642492Y-120569065D01*
X112696061Y-120533272D01*
X112810555Y-120325910D01*
X123409445Y-120325910D01*
X123523939Y-120533272D01*
X123772799Y-120673451D01*
X124044224Y-120762386D01*
X124327786Y-120796660D01*
X124612586Y-120774956D01*
X124887678Y-120698106D01*
X125142492Y-120569065D01*
X125196061Y-120533272D01*
X125310555Y-120325910D01*
X136309445Y-120325910D01*
X136423939Y-120533272D01*
X136672799Y-120673451D01*
X136944224Y-120762386D01*
X137227786Y-120796660D01*
X137512586Y-120774956D01*
X137787678Y-120698106D01*
X138042492Y-120569065D01*
X138096061Y-120533272D01*
X138210555Y-120325910D01*
X148809445Y-120325910D01*
X148923939Y-120533272D01*
X149172799Y-120673451D01*
X149444224Y-120762386D01*
X149727786Y-120796660D01*
X150012586Y-120774956D01*
X150287678Y-120698106D01*
X150542492Y-120569065D01*
X150596061Y-120533272D01*
X150710555Y-120325910D01*
X161709445Y-120325910D01*
X161823939Y-120533272D01*
X162072799Y-120673451D01*
X162344224Y-120762386D01*
X162627786Y-120796660D01*
X162912586Y-120774956D01*
X163187678Y-120698106D01*
X163442492Y-120569065D01*
X163496061Y-120533272D01*
X163610555Y-120325910D01*
X174209445Y-120325910D01*
X174323939Y-120533272D01*
X174572799Y-120673451D01*
X174844224Y-120762386D01*
X175127786Y-120796660D01*
X175412586Y-120774956D01*
X175687678Y-120698106D01*
X175942492Y-120569065D01*
X175996061Y-120533272D01*
X176110555Y-120325910D01*
X175160000Y-119375355D01*
X174209445Y-120325910D01*
X163610555Y-120325910D01*
X162660000Y-119375355D01*
X161709445Y-120325910D01*
X150710555Y-120325910D01*
X149760000Y-119375355D01*
X148809445Y-120325910D01*
X138210555Y-120325910D01*
X137260000Y-119375355D01*
X136309445Y-120325910D01*
X125310555Y-120325910D01*
X124360000Y-119375355D01*
X123409445Y-120325910D01*
X112810555Y-120325910D01*
X111860000Y-119375355D01*
X110909445Y-120325910D01*
X107560902Y-120325910D01*
X107535435Y-120197882D01*
X107418592Y-119915800D01*
X107248964Y-119661932D01*
X107033068Y-119446036D01*
X106826161Y-119307786D01*
X110403340Y-119307786D01*
X110425044Y-119592586D01*
X110501894Y-119867678D01*
X110630935Y-120122492D01*
X110666728Y-120176061D01*
X110874090Y-120290555D01*
X111824645Y-119340000D01*
X111895355Y-119340000D01*
X112845910Y-120290555D01*
X113053272Y-120176061D01*
X113193451Y-119927201D01*
X113282386Y-119655776D01*
X113316660Y-119372214D01*
X113311751Y-119307786D01*
X122903340Y-119307786D01*
X122925044Y-119592586D01*
X123001894Y-119867678D01*
X123130935Y-120122492D01*
X123166728Y-120176061D01*
X123374090Y-120290555D01*
X124324645Y-119340000D01*
X124395355Y-119340000D01*
X125345910Y-120290555D01*
X125553272Y-120176061D01*
X125693451Y-119927201D01*
X125782386Y-119655776D01*
X125816660Y-119372214D01*
X125811751Y-119307786D01*
X135803340Y-119307786D01*
X135825044Y-119592586D01*
X135901894Y-119867678D01*
X136030935Y-120122492D01*
X136066728Y-120176061D01*
X136274090Y-120290555D01*
X137224645Y-119340000D01*
X137295355Y-119340000D01*
X138245910Y-120290555D01*
X138453272Y-120176061D01*
X138593451Y-119927201D01*
X138682386Y-119655776D01*
X138716660Y-119372214D01*
X138711751Y-119307786D01*
X148303340Y-119307786D01*
X148325044Y-119592586D01*
X148401894Y-119867678D01*
X148530935Y-120122492D01*
X148566728Y-120176061D01*
X148774090Y-120290555D01*
X149724645Y-119340000D01*
X149795355Y-119340000D01*
X150745910Y-120290555D01*
X150953272Y-120176061D01*
X151093451Y-119927201D01*
X151182386Y-119655776D01*
X151216660Y-119372214D01*
X151211751Y-119307786D01*
X161203340Y-119307786D01*
X161225044Y-119592586D01*
X161301894Y-119867678D01*
X161430935Y-120122492D01*
X161466728Y-120176061D01*
X161674090Y-120290555D01*
X162624645Y-119340000D01*
X162695355Y-119340000D01*
X163645910Y-120290555D01*
X163853272Y-120176061D01*
X163993451Y-119927201D01*
X164082386Y-119655776D01*
X164116660Y-119372214D01*
X164111751Y-119307786D01*
X173703340Y-119307786D01*
X173725044Y-119592586D01*
X173801894Y-119867678D01*
X173930935Y-120122492D01*
X173966728Y-120176061D01*
X174174090Y-120290555D01*
X175124645Y-119340000D01*
X175195355Y-119340000D01*
X176145910Y-120290555D01*
X176353272Y-120176061D01*
X176493451Y-119927201D01*
X176582386Y-119655776D01*
X176616660Y-119372214D01*
X176594956Y-119087414D01*
X176518106Y-118812322D01*
X176389065Y-118557508D01*
X176353272Y-118503939D01*
X176145910Y-118389445D01*
X175195355Y-119340000D01*
X175124645Y-119340000D01*
X174174090Y-118389445D01*
X173966728Y-118503939D01*
X173826549Y-118752799D01*
X173737614Y-119024224D01*
X173703340Y-119307786D01*
X164111751Y-119307786D01*
X164094956Y-119087414D01*
X164018106Y-118812322D01*
X163889065Y-118557508D01*
X163853272Y-118503939D01*
X163645910Y-118389445D01*
X162695355Y-119340000D01*
X162624645Y-119340000D01*
X161674090Y-118389445D01*
X161466728Y-118503939D01*
X161326549Y-118752799D01*
X161237614Y-119024224D01*
X161203340Y-119307786D01*
X151211751Y-119307786D01*
X151194956Y-119087414D01*
X151118106Y-118812322D01*
X150989065Y-118557508D01*
X150953272Y-118503939D01*
X150745910Y-118389445D01*
X149795355Y-119340000D01*
X149724645Y-119340000D01*
X148774090Y-118389445D01*
X148566728Y-118503939D01*
X148426549Y-118752799D01*
X148337614Y-119024224D01*
X148303340Y-119307786D01*
X138711751Y-119307786D01*
X138694956Y-119087414D01*
X138618106Y-118812322D01*
X138489065Y-118557508D01*
X138453272Y-118503939D01*
X138245910Y-118389445D01*
X137295355Y-119340000D01*
X137224645Y-119340000D01*
X136274090Y-118389445D01*
X136066728Y-118503939D01*
X135926549Y-118752799D01*
X135837614Y-119024224D01*
X135803340Y-119307786D01*
X125811751Y-119307786D01*
X125794956Y-119087414D01*
X125718106Y-118812322D01*
X125589065Y-118557508D01*
X125553272Y-118503939D01*
X125345910Y-118389445D01*
X124395355Y-119340000D01*
X124324645Y-119340000D01*
X123374090Y-118389445D01*
X123166728Y-118503939D01*
X123026549Y-118752799D01*
X122937614Y-119024224D01*
X122903340Y-119307786D01*
X113311751Y-119307786D01*
X113294956Y-119087414D01*
X113218106Y-118812322D01*
X113089065Y-118557508D01*
X113053272Y-118503939D01*
X112845910Y-118389445D01*
X111895355Y-119340000D01*
X111824645Y-119340000D01*
X110874090Y-118389445D01*
X110666728Y-118503939D01*
X110526549Y-118752799D01*
X110437614Y-119024224D01*
X110403340Y-119307786D01*
X106826161Y-119307786D01*
X106779200Y-119276408D01*
X106497118Y-119159565D01*
X106197662Y-119100000D01*
X105892338Y-119100000D01*
X105592882Y-119159565D01*
X105310800Y-119276408D01*
X105056932Y-119446036D01*
X104841036Y-119661932D01*
X104671408Y-119915800D01*
X104554565Y-120197882D01*
X104495000Y-120497338D01*
X103245000Y-120497338D01*
X103245000Y-118354090D01*
X110909445Y-118354090D01*
X111860000Y-119304645D01*
X112810555Y-118354090D01*
X123409445Y-118354090D01*
X124360000Y-119304645D01*
X125310555Y-118354090D01*
X136309445Y-118354090D01*
X137260000Y-119304645D01*
X138210555Y-118354090D01*
X148809445Y-118354090D01*
X149760000Y-119304645D01*
X150710555Y-118354090D01*
X161709445Y-118354090D01*
X162660000Y-119304645D01*
X163610555Y-118354090D01*
X174209445Y-118354090D01*
X175160000Y-119304645D01*
X176110555Y-118354090D01*
X175996061Y-118146728D01*
X175747201Y-118006549D01*
X175475776Y-117917614D01*
X175192214Y-117883340D01*
X174907414Y-117905044D01*
X174632322Y-117981894D01*
X174377508Y-118110935D01*
X174323939Y-118146728D01*
X174209445Y-118354090D01*
X163610555Y-118354090D01*
X163496061Y-118146728D01*
X163247201Y-118006549D01*
X162975776Y-117917614D01*
X162692214Y-117883340D01*
X162407414Y-117905044D01*
X162132322Y-117981894D01*
X161877508Y-118110935D01*
X161823939Y-118146728D01*
X161709445Y-118354090D01*
X150710555Y-118354090D01*
X150596061Y-118146728D01*
X150347201Y-118006549D01*
X150075776Y-117917614D01*
X149792214Y-117883340D01*
X149507414Y-117905044D01*
X149232322Y-117981894D01*
X148977508Y-118110935D01*
X148923939Y-118146728D01*
X148809445Y-118354090D01*
X138210555Y-118354090D01*
X138096061Y-118146728D01*
X137847201Y-118006549D01*
X137575776Y-117917614D01*
X137292214Y-117883340D01*
X137007414Y-117905044D01*
X136732322Y-117981894D01*
X136477508Y-118110935D01*
X136423939Y-118146728D01*
X136309445Y-118354090D01*
X125310555Y-118354090D01*
X125196061Y-118146728D01*
X124947201Y-118006549D01*
X124675776Y-117917614D01*
X124392214Y-117883340D01*
X124107414Y-117905044D01*
X123832322Y-117981894D01*
X123577508Y-118110935D01*
X123523939Y-118146728D01*
X123409445Y-118354090D01*
X112810555Y-118354090D01*
X112696061Y-118146728D01*
X112447201Y-118006549D01*
X112175776Y-117917614D01*
X111892214Y-117883340D01*
X111607414Y-117905044D01*
X111332322Y-117981894D01*
X111077508Y-118110935D01*
X111023939Y-118146728D01*
X110909445Y-118354090D01*
X103245000Y-118354090D01*
X103245000Y-114202112D01*
X110460000Y-114202112D01*
X110460000Y-114477888D01*
X110513801Y-114748365D01*
X110619336Y-115003149D01*
X110772549Y-115232448D01*
X110967552Y-115427451D01*
X111196851Y-115580664D01*
X111451635Y-115686199D01*
X111722112Y-115740000D01*
X111997888Y-115740000D01*
X112268365Y-115686199D01*
X112523149Y-115580664D01*
X112752448Y-115427451D01*
X112947451Y-115232448D01*
X113100664Y-115003149D01*
X113206199Y-114748365D01*
X113260000Y-114477888D01*
X113260000Y-114202112D01*
X122960000Y-114202112D01*
X122960000Y-114477888D01*
X123013801Y-114748365D01*
X123119336Y-115003149D01*
X123272549Y-115232448D01*
X123467552Y-115427451D01*
X123696851Y-115580664D01*
X123951635Y-115686199D01*
X124222112Y-115740000D01*
X124497888Y-115740000D01*
X124768365Y-115686199D01*
X125023149Y-115580664D01*
X125252448Y-115427451D01*
X125447451Y-115232448D01*
X125600664Y-115003149D01*
X125706199Y-114748365D01*
X125760000Y-114477888D01*
X125760000Y-114202112D01*
X135860000Y-114202112D01*
X135860000Y-114477888D01*
X135913801Y-114748365D01*
X136019336Y-115003149D01*
X136172549Y-115232448D01*
X136367552Y-115427451D01*
X136596851Y-115580664D01*
X136851635Y-115686199D01*
X137122112Y-115740000D01*
X137397888Y-115740000D01*
X137668365Y-115686199D01*
X137923149Y-115580664D01*
X138152448Y-115427451D01*
X138347451Y-115232448D01*
X138500664Y-115003149D01*
X138606199Y-114748365D01*
X138660000Y-114477888D01*
X138660000Y-114202112D01*
X148360000Y-114202112D01*
X148360000Y-114477888D01*
X148413801Y-114748365D01*
X148519336Y-115003149D01*
X148672549Y-115232448D01*
X148867552Y-115427451D01*
X149096851Y-115580664D01*
X149351635Y-115686199D01*
X149622112Y-115740000D01*
X149897888Y-115740000D01*
X150168365Y-115686199D01*
X150423149Y-115580664D01*
X150652448Y-115427451D01*
X150847451Y-115232448D01*
X151000664Y-115003149D01*
X151106199Y-114748365D01*
X151160000Y-114477888D01*
X151160000Y-114202112D01*
X161260000Y-114202112D01*
X161260000Y-114477888D01*
X161313801Y-114748365D01*
X161419336Y-115003149D01*
X161572549Y-115232448D01*
X161767552Y-115427451D01*
X161996851Y-115580664D01*
X162251635Y-115686199D01*
X162522112Y-115740000D01*
X162797888Y-115740000D01*
X163068365Y-115686199D01*
X163323149Y-115580664D01*
X163552448Y-115427451D01*
X163747451Y-115232448D01*
X163900664Y-115003149D01*
X164006199Y-114748365D01*
X164060000Y-114477888D01*
X164060000Y-114202112D01*
X173760000Y-114202112D01*
X173760000Y-114477888D01*
X173813801Y-114748365D01*
X173919336Y-115003149D01*
X174072549Y-115232448D01*
X174267552Y-115427451D01*
X174496851Y-115580664D01*
X174751635Y-115686199D01*
X175022112Y-115740000D01*
X175297888Y-115740000D01*
X175568365Y-115686199D01*
X175823149Y-115580664D01*
X176052448Y-115427451D01*
X176247451Y-115232448D01*
X176400664Y-115003149D01*
X176506199Y-114748365D01*
X176560000Y-114477888D01*
X176560000Y-114231056D01*
X177735000Y-114231056D01*
X177735000Y-114368944D01*
X177761901Y-114504182D01*
X177814668Y-114631574D01*
X177891274Y-114746224D01*
X177988776Y-114843726D01*
X178010000Y-114857907D01*
X178010001Y-117357091D01*
X177988776Y-117371273D01*
X177891274Y-117468775D01*
X177814668Y-117583425D01*
X177761901Y-117710817D01*
X177735000Y-117846055D01*
X177735000Y-117983943D01*
X177761901Y-118119181D01*
X177814668Y-118246573D01*
X177891274Y-118361223D01*
X177988776Y-118458725D01*
X178103426Y-118535331D01*
X178230818Y-118588098D01*
X178366056Y-118614999D01*
X178503944Y-118614999D01*
X178639182Y-118588098D01*
X178766574Y-118535331D01*
X178881224Y-118458725D01*
X178978726Y-118361223D01*
X179055332Y-118246573D01*
X179108099Y-118119181D01*
X179135000Y-117983943D01*
X179135000Y-117846055D01*
X179108099Y-117710817D01*
X179055332Y-117583425D01*
X178978726Y-117468775D01*
X178881224Y-117371273D01*
X178860000Y-117357092D01*
X178860000Y-116771056D01*
X179005000Y-116771056D01*
X179005000Y-116908944D01*
X179031901Y-117044182D01*
X179084668Y-117171574D01*
X179161274Y-117286224D01*
X179258776Y-117383726D01*
X179373426Y-117460332D01*
X179500818Y-117513099D01*
X179636056Y-117540000D01*
X179773944Y-117540000D01*
X179909182Y-117513099D01*
X180036574Y-117460332D01*
X180151224Y-117383726D01*
X180248726Y-117286224D01*
X180325332Y-117171574D01*
X180378099Y-117044182D01*
X180405000Y-116908944D01*
X180405000Y-116771056D01*
X180378099Y-116635818D01*
X180325332Y-116508426D01*
X180248726Y-116393776D01*
X180151224Y-116296274D01*
X180130000Y-116282093D01*
X180130000Y-115111040D01*
X180246020Y-114995020D01*
X180271056Y-115000000D01*
X180408944Y-115000000D01*
X180544182Y-114973099D01*
X180671574Y-114920332D01*
X180786224Y-114843726D01*
X180883726Y-114746224D01*
X180960332Y-114631574D01*
X181013099Y-114504182D01*
X181040000Y-114368944D01*
X181040000Y-114231056D01*
X181013099Y-114095818D01*
X180960332Y-113968426D01*
X180883726Y-113853776D01*
X180786224Y-113756274D01*
X180671574Y-113679668D01*
X180544182Y-113626901D01*
X180408944Y-113600000D01*
X180271056Y-113600000D01*
X180135818Y-113626901D01*
X180008426Y-113679668D01*
X179893776Y-113756274D01*
X179796274Y-113853776D01*
X179719668Y-113968426D01*
X179666901Y-114095818D01*
X179640000Y-114231056D01*
X179640000Y-114368944D01*
X179644980Y-114393980D01*
X179419239Y-114619721D01*
X179403027Y-114633026D01*
X179349917Y-114697740D01*
X179324002Y-114746224D01*
X179310453Y-114771573D01*
X179286150Y-114851686D01*
X179277945Y-114935000D01*
X179280001Y-114955877D01*
X179280000Y-116282093D01*
X179258776Y-116296274D01*
X179161274Y-116393776D01*
X179084668Y-116508426D01*
X179031901Y-116635818D01*
X179005000Y-116771056D01*
X178860000Y-116771056D01*
X178860000Y-114857907D01*
X178881224Y-114843726D01*
X178978726Y-114746224D01*
X179055332Y-114631574D01*
X179108099Y-114504182D01*
X179135000Y-114368944D01*
X179135000Y-114231056D01*
X179108099Y-114095818D01*
X179055332Y-113968426D01*
X178978726Y-113853776D01*
X178881224Y-113756274D01*
X178766574Y-113679668D01*
X178639182Y-113626901D01*
X178503944Y-113600000D01*
X178366056Y-113600000D01*
X178230818Y-113626901D01*
X178103426Y-113679668D01*
X177988776Y-113756274D01*
X177891274Y-113853776D01*
X177814668Y-113968426D01*
X177761901Y-114095818D01*
X177735000Y-114231056D01*
X176560000Y-114231056D01*
X176560000Y-114202112D01*
X176506199Y-113931635D01*
X176400664Y-113676851D01*
X176247451Y-113447552D01*
X176052448Y-113252549D01*
X175823149Y-113099336D01*
X175568365Y-112993801D01*
X175297888Y-112940000D01*
X175022112Y-112940000D01*
X174751635Y-112993801D01*
X174496851Y-113099336D01*
X174267552Y-113252549D01*
X174072549Y-113447552D01*
X173919336Y-113676851D01*
X173813801Y-113931635D01*
X173760000Y-114202112D01*
X164060000Y-114202112D01*
X164006199Y-113931635D01*
X163900664Y-113676851D01*
X163747451Y-113447552D01*
X163552448Y-113252549D01*
X163323149Y-113099336D01*
X163068365Y-112993801D01*
X162797888Y-112940000D01*
X162522112Y-112940000D01*
X162251635Y-112993801D01*
X161996851Y-113099336D01*
X161767552Y-113252549D01*
X161572549Y-113447552D01*
X161419336Y-113676851D01*
X161313801Y-113931635D01*
X161260000Y-114202112D01*
X151160000Y-114202112D01*
X151106199Y-113931635D01*
X151000664Y-113676851D01*
X150847451Y-113447552D01*
X150652448Y-113252549D01*
X150423149Y-113099336D01*
X150168365Y-112993801D01*
X149897888Y-112940000D01*
X149622112Y-112940000D01*
X149351635Y-112993801D01*
X149096851Y-113099336D01*
X148867552Y-113252549D01*
X148672549Y-113447552D01*
X148519336Y-113676851D01*
X148413801Y-113931635D01*
X148360000Y-114202112D01*
X138660000Y-114202112D01*
X138606199Y-113931635D01*
X138500664Y-113676851D01*
X138347451Y-113447552D01*
X138152448Y-113252549D01*
X137923149Y-113099336D01*
X137668365Y-112993801D01*
X137397888Y-112940000D01*
X137122112Y-112940000D01*
X136851635Y-112993801D01*
X136596851Y-113099336D01*
X136367552Y-113252549D01*
X136172549Y-113447552D01*
X136019336Y-113676851D01*
X135913801Y-113931635D01*
X135860000Y-114202112D01*
X125760000Y-114202112D01*
X125706199Y-113931635D01*
X125600664Y-113676851D01*
X125447451Y-113447552D01*
X125252448Y-113252549D01*
X125023149Y-113099336D01*
X124768365Y-112993801D01*
X124497888Y-112940000D01*
X124222112Y-112940000D01*
X123951635Y-112993801D01*
X123696851Y-113099336D01*
X123467552Y-113252549D01*
X123272549Y-113447552D01*
X123119336Y-113676851D01*
X123013801Y-113931635D01*
X122960000Y-114202112D01*
X113260000Y-114202112D01*
X113206199Y-113931635D01*
X113100664Y-113676851D01*
X112947451Y-113447552D01*
X112752448Y-113252549D01*
X112523149Y-113099336D01*
X112268365Y-112993801D01*
X111997888Y-112940000D01*
X111722112Y-112940000D01*
X111451635Y-112993801D01*
X111196851Y-113099336D01*
X110967552Y-113252549D01*
X110772549Y-113447552D01*
X110619336Y-113676851D01*
X110513801Y-113931635D01*
X110460000Y-114202112D01*
X103245000Y-114202112D01*
X103245000Y-111972373D01*
X103974942Y-111972373D01*
X103983573Y-112015764D01*
X104055998Y-112239579D01*
X104170696Y-112444964D01*
X104323258Y-112624026D01*
X104507822Y-112769884D01*
X104717295Y-112876933D01*
X104943627Y-112941059D01*
X105131000Y-112872241D01*
X105131000Y-111785000D01*
X105181000Y-111785000D01*
X105181000Y-112872241D01*
X105368373Y-112941059D01*
X105594705Y-112876933D01*
X105804178Y-112769884D01*
X105988742Y-112624026D01*
X106141304Y-112444964D01*
X106256002Y-112239579D01*
X106328427Y-112015764D01*
X106337058Y-111972373D01*
X106268219Y-111785000D01*
X105181000Y-111785000D01*
X105131000Y-111785000D01*
X104043781Y-111785000D01*
X103974942Y-111972373D01*
X103245000Y-111972373D01*
X103245000Y-111547627D01*
X103974942Y-111547627D01*
X104043781Y-111735000D01*
X105131000Y-111735000D01*
X105131000Y-110647759D01*
X105181000Y-110647759D01*
X105181000Y-111735000D01*
X106268219Y-111735000D01*
X106337058Y-111547627D01*
X106328427Y-111504236D01*
X106256002Y-111280421D01*
X106141304Y-111075036D01*
X105988742Y-110895974D01*
X105804178Y-110750116D01*
X105594705Y-110643067D01*
X105368373Y-110578941D01*
X105181000Y-110647759D01*
X105131000Y-110647759D01*
X104943627Y-110578941D01*
X104717295Y-110643067D01*
X104507822Y-110750116D01*
X104323258Y-110895974D01*
X104170696Y-111075036D01*
X104055998Y-111280421D01*
X103983573Y-111504236D01*
X103974942Y-111547627D01*
X103245000Y-111547627D01*
X103245000Y-109220000D01*
X104000436Y-109220000D01*
X104022640Y-109445439D01*
X104088398Y-109662215D01*
X104195184Y-109861997D01*
X104338893Y-110037107D01*
X104514003Y-110180816D01*
X104713785Y-110287602D01*
X104930561Y-110353360D01*
X105099508Y-110370000D01*
X105212492Y-110370000D01*
X105381439Y-110353360D01*
X105598215Y-110287602D01*
X105797997Y-110180816D01*
X105973107Y-110037107D01*
X106116816Y-109861997D01*
X106223602Y-109662215D01*
X106289360Y-109445439D01*
X106311564Y-109220000D01*
X106289360Y-108994561D01*
X106223602Y-108777785D01*
X106116816Y-108578003D01*
X105973107Y-108402893D01*
X105797997Y-108259184D01*
X105598215Y-108152398D01*
X105381439Y-108086640D01*
X105212492Y-108070000D01*
X105099508Y-108070000D01*
X104930561Y-108086640D01*
X104713785Y-108152398D01*
X104514003Y-108259184D01*
X104338893Y-108402893D01*
X104195184Y-108578003D01*
X104088398Y-108777785D01*
X104022640Y-108994561D01*
X104000436Y-109220000D01*
X103245000Y-109220000D01*
X103245000Y-106680000D01*
X104000436Y-106680000D01*
X104022640Y-106905439D01*
X104088398Y-107122215D01*
X104195184Y-107321997D01*
X104338893Y-107497107D01*
X104514003Y-107640816D01*
X104713785Y-107747602D01*
X104930561Y-107813360D01*
X105099508Y-107830000D01*
X105212492Y-107830000D01*
X105381439Y-107813360D01*
X105598215Y-107747602D01*
X105797997Y-107640816D01*
X105973107Y-107497107D01*
X106116816Y-107321997D01*
X106223602Y-107122215D01*
X106289360Y-106905439D01*
X106311564Y-106680000D01*
X106289360Y-106454561D01*
X106223602Y-106237785D01*
X106116816Y-106038003D01*
X105973107Y-105862893D01*
X105797997Y-105719184D01*
X105598215Y-105612398D01*
X105381439Y-105546640D01*
X105212492Y-105530000D01*
X105099508Y-105530000D01*
X104930561Y-105546640D01*
X104713785Y-105612398D01*
X104514003Y-105719184D01*
X104338893Y-105862893D01*
X104195184Y-106038003D01*
X104088398Y-106237785D01*
X104022640Y-106454561D01*
X104000436Y-106680000D01*
X103245000Y-106680000D01*
X103245000Y-104140000D01*
X104000436Y-104140000D01*
X104022640Y-104365439D01*
X104088398Y-104582215D01*
X104195184Y-104781997D01*
X104338893Y-104957107D01*
X104514003Y-105100816D01*
X104713785Y-105207602D01*
X104930561Y-105273360D01*
X105099508Y-105290000D01*
X105212492Y-105290000D01*
X105381439Y-105273360D01*
X105598215Y-105207602D01*
X105797997Y-105100816D01*
X105973107Y-104957107D01*
X106116816Y-104781997D01*
X106223602Y-104582215D01*
X106289360Y-104365439D01*
X106311564Y-104140000D01*
X106304774Y-104071056D01*
X109155000Y-104071056D01*
X109155000Y-104208944D01*
X109181901Y-104344182D01*
X109234668Y-104471574D01*
X109311274Y-104586224D01*
X109408776Y-104683726D01*
X109430000Y-104697907D01*
X109430001Y-109932092D01*
X109408776Y-109946274D01*
X109311274Y-110043776D01*
X109234668Y-110158426D01*
X109181901Y-110285818D01*
X109155000Y-110421056D01*
X109155000Y-110558944D01*
X109181901Y-110694182D01*
X109234668Y-110821574D01*
X109311274Y-110936224D01*
X109408776Y-111033726D01*
X109523426Y-111110332D01*
X109650818Y-111163099D01*
X109786056Y-111190000D01*
X109923944Y-111190000D01*
X110059182Y-111163099D01*
X110186574Y-111110332D01*
X110301224Y-111033726D01*
X110398726Y-110936224D01*
X110475332Y-110821574D01*
X110528099Y-110694182D01*
X110555000Y-110558944D01*
X110555000Y-110421056D01*
X110528099Y-110285818D01*
X110475332Y-110158426D01*
X110398726Y-110043776D01*
X110301224Y-109946274D01*
X110280000Y-109932093D01*
X110280000Y-104697907D01*
X110301224Y-104683726D01*
X110398726Y-104586224D01*
X110475332Y-104471574D01*
X110528099Y-104344182D01*
X110555000Y-104208944D01*
X110555000Y-104071056D01*
X110528099Y-103935818D01*
X110475332Y-103808426D01*
X110398726Y-103693776D01*
X110301224Y-103596274D01*
X110186574Y-103519668D01*
X110059182Y-103466901D01*
X109923944Y-103440000D01*
X109786056Y-103440000D01*
X109650818Y-103466901D01*
X109523426Y-103519668D01*
X109408776Y-103596274D01*
X109311274Y-103693776D01*
X109234668Y-103808426D01*
X109181901Y-103935818D01*
X109155000Y-104071056D01*
X106304774Y-104071056D01*
X106289360Y-103914561D01*
X106223602Y-103697785D01*
X106116816Y-103498003D01*
X105973107Y-103322893D01*
X105797997Y-103179184D01*
X105598215Y-103072398D01*
X105381439Y-103006640D01*
X105212492Y-102990000D01*
X105099508Y-102990000D01*
X104930561Y-103006640D01*
X104713785Y-103072398D01*
X104514003Y-103179184D01*
X104338893Y-103322893D01*
X104195184Y-103498003D01*
X104088398Y-103697785D01*
X104022640Y-103914561D01*
X104000436Y-104140000D01*
X103245000Y-104140000D01*
X103245000Y-101600000D01*
X104000436Y-101600000D01*
X104022640Y-101825439D01*
X104088398Y-102042215D01*
X104195184Y-102241997D01*
X104338893Y-102417107D01*
X104514003Y-102560816D01*
X104713785Y-102667602D01*
X104930561Y-102733360D01*
X105099508Y-102750000D01*
X105212492Y-102750000D01*
X105381439Y-102733360D01*
X105598215Y-102667602D01*
X105797997Y-102560816D01*
X105973107Y-102417107D01*
X106116816Y-102241997D01*
X106223602Y-102042215D01*
X106228824Y-102025000D01*
X109043960Y-102025000D01*
X118048719Y-111029760D01*
X118062026Y-111045974D01*
X118126740Y-111099084D01*
X118174855Y-111124801D01*
X118200572Y-111138548D01*
X118280685Y-111162850D01*
X118288327Y-111163603D01*
X118343126Y-111169000D01*
X118343133Y-111169000D01*
X118364000Y-111171055D01*
X118384867Y-111169000D01*
X123902093Y-111169000D01*
X123916274Y-111190224D01*
X124013776Y-111287726D01*
X124128426Y-111364332D01*
X124255818Y-111417099D01*
X124391056Y-111444000D01*
X124528944Y-111444000D01*
X124553980Y-111439020D01*
X125668721Y-112553762D01*
X125682026Y-112569974D01*
X125746740Y-112623084D01*
X125820573Y-112662548D01*
X125876383Y-112679478D01*
X125900685Y-112686850D01*
X125909098Y-112687679D01*
X125963126Y-112693000D01*
X125963132Y-112693000D01*
X125983999Y-112695055D01*
X126004866Y-112693000D01*
X172699133Y-112693000D01*
X172720000Y-112695055D01*
X172740867Y-112693000D01*
X172740874Y-112693000D01*
X172803314Y-112686850D01*
X172883427Y-112662548D01*
X172957260Y-112623084D01*
X173021974Y-112569974D01*
X173035284Y-112553756D01*
X174244020Y-111345020D01*
X174269056Y-111350000D01*
X174406944Y-111350000D01*
X174542182Y-111323099D01*
X174669574Y-111270332D01*
X174784224Y-111193726D01*
X174881726Y-111096224D01*
X174958332Y-110981574D01*
X175011099Y-110854182D01*
X175038000Y-110718944D01*
X175038000Y-110581056D01*
X175011099Y-110445818D01*
X174958332Y-110318426D01*
X174881726Y-110203776D01*
X174784224Y-110106274D01*
X174669574Y-110029668D01*
X174542182Y-109976901D01*
X174406944Y-109950000D01*
X174269056Y-109950000D01*
X174133818Y-109976901D01*
X174006426Y-110029668D01*
X173891776Y-110106274D01*
X173794274Y-110203776D01*
X173717668Y-110318426D01*
X173664901Y-110445818D01*
X173638000Y-110581056D01*
X173638000Y-110718944D01*
X173642980Y-110743980D01*
X172543960Y-111843000D01*
X126160041Y-111843000D01*
X125155020Y-110837980D01*
X125160000Y-110812944D01*
X125160000Y-110675056D01*
X125133099Y-110539818D01*
X125080332Y-110412426D01*
X125003726Y-110297776D01*
X124906224Y-110200274D01*
X124791574Y-110123668D01*
X124664182Y-110070901D01*
X124528944Y-110044000D01*
X124391056Y-110044000D01*
X124255818Y-110070901D01*
X124128426Y-110123668D01*
X124013776Y-110200274D01*
X123916274Y-110297776D01*
X123902093Y-110319000D01*
X118540041Y-110319000D01*
X117372097Y-109151056D01*
X124268000Y-109151056D01*
X124268000Y-109288944D01*
X124294901Y-109424182D01*
X124347668Y-109551574D01*
X124424274Y-109666224D01*
X124521776Y-109763726D01*
X124636426Y-109840332D01*
X124763818Y-109893099D01*
X124899056Y-109920000D01*
X125036944Y-109920000D01*
X125061980Y-109915020D01*
X126176719Y-111029760D01*
X126190026Y-111045974D01*
X126254740Y-111099084D01*
X126328573Y-111138548D01*
X126384383Y-111155478D01*
X126408685Y-111162850D01*
X126417098Y-111163679D01*
X126471126Y-111169000D01*
X126471132Y-111169000D01*
X126491999Y-111171055D01*
X126512866Y-111169000D01*
X172191133Y-111169000D01*
X172212000Y-111171055D01*
X172232867Y-111169000D01*
X172232874Y-111169000D01*
X172295314Y-111162850D01*
X172375427Y-111138548D01*
X172449260Y-111099084D01*
X172513974Y-111045974D01*
X172527283Y-111029757D01*
X174150021Y-109407020D01*
X174175056Y-109412000D01*
X174312944Y-109412000D01*
X174448182Y-109385099D01*
X174575574Y-109332332D01*
X174690224Y-109255726D01*
X174787726Y-109158224D01*
X174864332Y-109043574D01*
X174917099Y-108916182D01*
X174944000Y-108780944D01*
X174944000Y-108643056D01*
X174917099Y-108507818D01*
X174864332Y-108380426D01*
X174787726Y-108265776D01*
X174690224Y-108168274D01*
X174575574Y-108091668D01*
X174448182Y-108038901D01*
X174312944Y-108012000D01*
X174175056Y-108012000D01*
X174039818Y-108038901D01*
X173961841Y-108071200D01*
X174150021Y-107883020D01*
X174175056Y-107888000D01*
X174312944Y-107888000D01*
X174448182Y-107861099D01*
X174575574Y-107808332D01*
X174690224Y-107731726D01*
X174787726Y-107634224D01*
X174864332Y-107519574D01*
X174917099Y-107392182D01*
X174944000Y-107256944D01*
X174944000Y-107119056D01*
X174917099Y-106983818D01*
X174864332Y-106856426D01*
X174787726Y-106741776D01*
X174690224Y-106644274D01*
X174575574Y-106567668D01*
X174448182Y-106514901D01*
X174312944Y-106488000D01*
X174175056Y-106488000D01*
X174039818Y-106514901D01*
X173912426Y-106567668D01*
X173797776Y-106644274D01*
X173700274Y-106741776D01*
X173623668Y-106856426D01*
X173570901Y-106983818D01*
X173544000Y-107119056D01*
X173544000Y-107256944D01*
X173548980Y-107281979D01*
X172035960Y-108795000D01*
X132963491Y-108795000D01*
X133034224Y-108747738D01*
X133131726Y-108650236D01*
X133208332Y-108535586D01*
X133261099Y-108408194D01*
X133288000Y-108272956D01*
X133288000Y-108135068D01*
X133283020Y-108110033D01*
X133303279Y-108089774D01*
X133303284Y-108089768D01*
X135576996Y-105816056D01*
X151446000Y-105816056D01*
X151446000Y-105953944D01*
X151472901Y-106089182D01*
X151525668Y-106216574D01*
X151602274Y-106331224D01*
X151699776Y-106428726D01*
X151814426Y-106505332D01*
X151941818Y-106558099D01*
X152077056Y-106585000D01*
X152214944Y-106585000D01*
X152350182Y-106558099D01*
X152424446Y-106527338D01*
X164820000Y-106527338D01*
X164820000Y-106832662D01*
X164879565Y-107132118D01*
X164996408Y-107414200D01*
X165166036Y-107668068D01*
X165381932Y-107883964D01*
X165635800Y-108053592D01*
X165917882Y-108170435D01*
X166217338Y-108230000D01*
X166522662Y-108230000D01*
X166822118Y-108170435D01*
X167104200Y-108053592D01*
X167358068Y-107883964D01*
X167573964Y-107668068D01*
X167743592Y-107414200D01*
X167860435Y-107132118D01*
X167920000Y-106832662D01*
X167920000Y-106527338D01*
X167860435Y-106227882D01*
X167743592Y-105945800D01*
X167573964Y-105691932D01*
X167358068Y-105476036D01*
X167104200Y-105306408D01*
X166822118Y-105189565D01*
X166522662Y-105130000D01*
X166217338Y-105130000D01*
X165917882Y-105189565D01*
X165635800Y-105306408D01*
X165381932Y-105476036D01*
X165166036Y-105691932D01*
X164996408Y-105945800D01*
X164879565Y-106227882D01*
X164820000Y-106527338D01*
X152424446Y-106527338D01*
X152477574Y-106505332D01*
X152592224Y-106428726D01*
X152689726Y-106331224D01*
X152703099Y-106311209D01*
X152711685Y-106312055D01*
X152732552Y-106310000D01*
X152732559Y-106310000D01*
X152794999Y-106303850D01*
X152875112Y-106279548D01*
X152948945Y-106240084D01*
X153013659Y-106186974D01*
X153026968Y-106170757D01*
X155394726Y-103803000D01*
X184862093Y-103803000D01*
X184876274Y-103824224D01*
X184973776Y-103921726D01*
X185088426Y-103998332D01*
X185215818Y-104051099D01*
X185351056Y-104078000D01*
X185488944Y-104078000D01*
X185624182Y-104051099D01*
X185751574Y-103998332D01*
X185866224Y-103921726D01*
X185963726Y-103824224D01*
X186040332Y-103709574D01*
X186093099Y-103582182D01*
X186120000Y-103446944D01*
X186120000Y-103309056D01*
X186093099Y-103173818D01*
X186040332Y-103046426D01*
X185963726Y-102931776D01*
X185866224Y-102834274D01*
X185751574Y-102757668D01*
X185624182Y-102704901D01*
X185488944Y-102678000D01*
X185351056Y-102678000D01*
X185215818Y-102704901D01*
X185088426Y-102757668D01*
X184973776Y-102834274D01*
X184876274Y-102931776D01*
X184862093Y-102953000D01*
X155239551Y-102953000D01*
X155218684Y-102950945D01*
X155197817Y-102953000D01*
X155197811Y-102953000D01*
X155143783Y-102958321D01*
X155135370Y-102959150D01*
X155111068Y-102966522D01*
X155055258Y-102983452D01*
X154981425Y-103022916D01*
X154916711Y-103076026D01*
X154903406Y-103092238D01*
X152623297Y-105372347D01*
X152592224Y-105341274D01*
X152477574Y-105264668D01*
X152350182Y-105211901D01*
X152214944Y-105185000D01*
X152077056Y-105185000D01*
X151941818Y-105211901D01*
X151814426Y-105264668D01*
X151699776Y-105341274D01*
X151602274Y-105438776D01*
X151525668Y-105553426D01*
X151472901Y-105680818D01*
X151446000Y-105816056D01*
X135576996Y-105816056D01*
X139810000Y-101583052D01*
X139810000Y-101718190D01*
X139856116Y-101950027D01*
X139946574Y-102168413D01*
X140077899Y-102364955D01*
X140245045Y-102532101D01*
X140441587Y-102663426D01*
X140659973Y-102753884D01*
X140891810Y-102800000D01*
X141128190Y-102800000D01*
X141360027Y-102753884D01*
X141578413Y-102663426D01*
X141774955Y-102532101D01*
X141863279Y-102443777D01*
X142701578Y-102443777D01*
X142792085Y-102630657D01*
X143006951Y-102750912D01*
X143241149Y-102826937D01*
X143485678Y-102855812D01*
X143731143Y-102836426D01*
X143968108Y-102769526D01*
X144187469Y-102657680D01*
X144227915Y-102630657D01*
X144318422Y-102443777D01*
X143510000Y-101635355D01*
X142701578Y-102443777D01*
X141863279Y-102443777D01*
X141942101Y-102364955D01*
X142073426Y-102168413D01*
X142163884Y-101950027D01*
X142210000Y-101718190D01*
X142210000Y-101575678D01*
X142254188Y-101575678D01*
X142273574Y-101821143D01*
X142340474Y-102058108D01*
X142452320Y-102277469D01*
X142479343Y-102317915D01*
X142666223Y-102408422D01*
X143474645Y-101600000D01*
X143545355Y-101600000D01*
X144353777Y-102408422D01*
X144540657Y-102317915D01*
X144660912Y-102103049D01*
X144736937Y-101868851D01*
X144765812Y-101624322D01*
X144754557Y-101481810D01*
X144810000Y-101481810D01*
X144810000Y-101718190D01*
X144856116Y-101950027D01*
X144946574Y-102168413D01*
X145077899Y-102364955D01*
X145245045Y-102532101D01*
X145441587Y-102663426D01*
X145659973Y-102753884D01*
X145891810Y-102800000D01*
X146128190Y-102800000D01*
X146360027Y-102753884D01*
X146578413Y-102663426D01*
X146774955Y-102532101D01*
X146942101Y-102364955D01*
X147073426Y-102168413D01*
X147163884Y-101950027D01*
X147210000Y-101718190D01*
X147210000Y-101481810D01*
X165210000Y-101481810D01*
X165210000Y-101718190D01*
X165256116Y-101950027D01*
X165346574Y-102168413D01*
X165477899Y-102364955D01*
X165645045Y-102532101D01*
X165841587Y-102663426D01*
X166059973Y-102753884D01*
X166291810Y-102800000D01*
X166528190Y-102800000D01*
X166760027Y-102753884D01*
X166978413Y-102663426D01*
X167174955Y-102532101D01*
X167263279Y-102443777D01*
X168101578Y-102443777D01*
X168192085Y-102630657D01*
X168406951Y-102750912D01*
X168641149Y-102826937D01*
X168885678Y-102855812D01*
X169131143Y-102836426D01*
X169368108Y-102769526D01*
X169587469Y-102657680D01*
X169627915Y-102630657D01*
X169718422Y-102443777D01*
X168910000Y-101635355D01*
X168101578Y-102443777D01*
X167263279Y-102443777D01*
X167342101Y-102364955D01*
X167473426Y-102168413D01*
X167563884Y-101950027D01*
X167610000Y-101718190D01*
X167610000Y-101575678D01*
X167654188Y-101575678D01*
X167673574Y-101821143D01*
X167740474Y-102058108D01*
X167852320Y-102277469D01*
X167879343Y-102317915D01*
X168066223Y-102408422D01*
X168874645Y-101600000D01*
X168945355Y-101600000D01*
X169753777Y-102408422D01*
X169940657Y-102317915D01*
X170060912Y-102103049D01*
X170136937Y-101868851D01*
X170165812Y-101624322D01*
X170154557Y-101481810D01*
X170210000Y-101481810D01*
X170210000Y-101718190D01*
X170256116Y-101950027D01*
X170346574Y-102168413D01*
X170477899Y-102364955D01*
X170645045Y-102532101D01*
X170841587Y-102663426D01*
X171059973Y-102753884D01*
X171291810Y-102800000D01*
X171528190Y-102800000D01*
X171760027Y-102753884D01*
X171978413Y-102663426D01*
X172174955Y-102532101D01*
X172342101Y-102364955D01*
X172473426Y-102168413D01*
X172563884Y-101950027D01*
X172610000Y-101718190D01*
X172610000Y-101481810D01*
X190610000Y-101481810D01*
X190610000Y-101718190D01*
X190656116Y-101950027D01*
X190746574Y-102168413D01*
X190877899Y-102364955D01*
X191045045Y-102532101D01*
X191241587Y-102663426D01*
X191459973Y-102753884D01*
X191691810Y-102800000D01*
X191928190Y-102800000D01*
X192160027Y-102753884D01*
X192378413Y-102663426D01*
X192574955Y-102532101D01*
X192663279Y-102443777D01*
X193501578Y-102443777D01*
X193592085Y-102630657D01*
X193806951Y-102750912D01*
X194041149Y-102826937D01*
X194285678Y-102855812D01*
X194531143Y-102836426D01*
X194768108Y-102769526D01*
X194987469Y-102657680D01*
X195027915Y-102630657D01*
X195118422Y-102443777D01*
X194310000Y-101635355D01*
X193501578Y-102443777D01*
X192663279Y-102443777D01*
X192742101Y-102364955D01*
X192873426Y-102168413D01*
X192963884Y-101950027D01*
X193010000Y-101718190D01*
X193010000Y-101575678D01*
X193054188Y-101575678D01*
X193073574Y-101821143D01*
X193140474Y-102058108D01*
X193252320Y-102277469D01*
X193279343Y-102317915D01*
X193466223Y-102408422D01*
X194274645Y-101600000D01*
X194345355Y-101600000D01*
X195153777Y-102408422D01*
X195340657Y-102317915D01*
X195460912Y-102103049D01*
X195536937Y-101868851D01*
X195565812Y-101624322D01*
X195554557Y-101481810D01*
X195610000Y-101481810D01*
X195610000Y-101718190D01*
X195656116Y-101950027D01*
X195746574Y-102168413D01*
X195877899Y-102364955D01*
X196045045Y-102532101D01*
X196241587Y-102663426D01*
X196459973Y-102753884D01*
X196691810Y-102800000D01*
X196928190Y-102800000D01*
X197160027Y-102753884D01*
X197378413Y-102663426D01*
X197574955Y-102532101D01*
X197742101Y-102364955D01*
X197873426Y-102168413D01*
X197963884Y-101950027D01*
X198010000Y-101718190D01*
X198010000Y-101481810D01*
X197963884Y-101249973D01*
X197873426Y-101031587D01*
X197742101Y-100835045D01*
X197574955Y-100667899D01*
X197378413Y-100536574D01*
X197160027Y-100446116D01*
X196928190Y-100400000D01*
X196691810Y-100400000D01*
X196459973Y-100446116D01*
X196241587Y-100536574D01*
X196045045Y-100667899D01*
X195877899Y-100835045D01*
X195746574Y-101031587D01*
X195656116Y-101249973D01*
X195610000Y-101481810D01*
X195554557Y-101481810D01*
X195546426Y-101378857D01*
X195479526Y-101141892D01*
X195367680Y-100922531D01*
X195340657Y-100882085D01*
X195153777Y-100791578D01*
X194345355Y-101600000D01*
X194274645Y-101600000D01*
X193466223Y-100791578D01*
X193279343Y-100882085D01*
X193159088Y-101096951D01*
X193083063Y-101331149D01*
X193054188Y-101575678D01*
X193010000Y-101575678D01*
X193010000Y-101481810D01*
X192963884Y-101249973D01*
X192873426Y-101031587D01*
X192742101Y-100835045D01*
X192663279Y-100756223D01*
X193501578Y-100756223D01*
X194310000Y-101564645D01*
X195118422Y-100756223D01*
X195027915Y-100569343D01*
X194813049Y-100449088D01*
X194578851Y-100373063D01*
X194334322Y-100344188D01*
X194088857Y-100363574D01*
X193851892Y-100430474D01*
X193632531Y-100542320D01*
X193592085Y-100569343D01*
X193501578Y-100756223D01*
X192663279Y-100756223D01*
X192574955Y-100667899D01*
X192378413Y-100536574D01*
X192160027Y-100446116D01*
X191928190Y-100400000D01*
X191691810Y-100400000D01*
X191459973Y-100446116D01*
X191241587Y-100536574D01*
X191045045Y-100667899D01*
X190877899Y-100835045D01*
X190746574Y-101031587D01*
X190656116Y-101249973D01*
X190610000Y-101481810D01*
X172610000Y-101481810D01*
X172563884Y-101249973D01*
X172473426Y-101031587D01*
X172342101Y-100835045D01*
X172174955Y-100667899D01*
X171978413Y-100536574D01*
X171760027Y-100446116D01*
X171528190Y-100400000D01*
X171291810Y-100400000D01*
X171059973Y-100446116D01*
X170841587Y-100536574D01*
X170645045Y-100667899D01*
X170477899Y-100835045D01*
X170346574Y-101031587D01*
X170256116Y-101249973D01*
X170210000Y-101481810D01*
X170154557Y-101481810D01*
X170146426Y-101378857D01*
X170079526Y-101141892D01*
X169967680Y-100922531D01*
X169940657Y-100882085D01*
X169753777Y-100791578D01*
X168945355Y-101600000D01*
X168874645Y-101600000D01*
X168066223Y-100791578D01*
X167879343Y-100882085D01*
X167759088Y-101096951D01*
X167683063Y-101331149D01*
X167654188Y-101575678D01*
X167610000Y-101575678D01*
X167610000Y-101481810D01*
X167563884Y-101249973D01*
X167473426Y-101031587D01*
X167342101Y-100835045D01*
X167263279Y-100756223D01*
X168101578Y-100756223D01*
X168910000Y-101564645D01*
X169718422Y-100756223D01*
X169627915Y-100569343D01*
X169413049Y-100449088D01*
X169178851Y-100373063D01*
X168934322Y-100344188D01*
X168688857Y-100363574D01*
X168451892Y-100430474D01*
X168232531Y-100542320D01*
X168192085Y-100569343D01*
X168101578Y-100756223D01*
X167263279Y-100756223D01*
X167174955Y-100667899D01*
X166978413Y-100536574D01*
X166760027Y-100446116D01*
X166528190Y-100400000D01*
X166291810Y-100400000D01*
X166059973Y-100446116D01*
X165841587Y-100536574D01*
X165645045Y-100667899D01*
X165477899Y-100835045D01*
X165346574Y-101031587D01*
X165256116Y-101249973D01*
X165210000Y-101481810D01*
X147210000Y-101481810D01*
X147163884Y-101249973D01*
X147073426Y-101031587D01*
X146942101Y-100835045D01*
X146774955Y-100667899D01*
X146578413Y-100536574D01*
X146360027Y-100446116D01*
X146128190Y-100400000D01*
X145891810Y-100400000D01*
X145659973Y-100446116D01*
X145441587Y-100536574D01*
X145245045Y-100667899D01*
X145077899Y-100835045D01*
X144946574Y-101031587D01*
X144856116Y-101249973D01*
X144810000Y-101481810D01*
X144754557Y-101481810D01*
X144746426Y-101378857D01*
X144679526Y-101141892D01*
X144567680Y-100922531D01*
X144540657Y-100882085D01*
X144353777Y-100791578D01*
X143545355Y-101600000D01*
X143474645Y-101600000D01*
X142666223Y-100791578D01*
X142479343Y-100882085D01*
X142359088Y-101096951D01*
X142283063Y-101331149D01*
X142254188Y-101575678D01*
X142210000Y-101575678D01*
X142210000Y-101481810D01*
X142163884Y-101249973D01*
X142073426Y-101031587D01*
X141942101Y-100835045D01*
X141863279Y-100756223D01*
X142701578Y-100756223D01*
X143510000Y-101564645D01*
X144318422Y-100756223D01*
X144227915Y-100569343D01*
X144013049Y-100449088D01*
X143778851Y-100373063D01*
X143534322Y-100344188D01*
X143288857Y-100363574D01*
X143051892Y-100430474D01*
X142832531Y-100542320D01*
X142792085Y-100569343D01*
X142701578Y-100756223D01*
X141863279Y-100756223D01*
X141774955Y-100667899D01*
X141578413Y-100536574D01*
X141360027Y-100446116D01*
X141128190Y-100400000D01*
X140993052Y-100400000D01*
X142401996Y-98991056D01*
X183450000Y-98991056D01*
X183450000Y-99128944D01*
X183476901Y-99264182D01*
X183529668Y-99391574D01*
X183606274Y-99506224D01*
X183703776Y-99603726D01*
X183818426Y-99680332D01*
X183945818Y-99733099D01*
X184081056Y-99760000D01*
X184218944Y-99760000D01*
X184354182Y-99733099D01*
X184481574Y-99680332D01*
X184596224Y-99603726D01*
X184693726Y-99506224D01*
X184770332Y-99391574D01*
X184823099Y-99264182D01*
X184850000Y-99128944D01*
X184850000Y-98991056D01*
X184845020Y-98966020D01*
X185070758Y-98740282D01*
X185086974Y-98726974D01*
X185140084Y-98662260D01*
X185179548Y-98588427D01*
X185203850Y-98508314D01*
X185210000Y-98445874D01*
X185210000Y-98445873D01*
X185212056Y-98425000D01*
X185210000Y-98404126D01*
X185210000Y-93623863D01*
X186160000Y-93623863D01*
X186160000Y-94576138D01*
X186182428Y-94803853D01*
X186271059Y-95096029D01*
X186414987Y-95365300D01*
X186608683Y-95601318D01*
X186844701Y-95795013D01*
X187113972Y-95938941D01*
X187406148Y-96027572D01*
X187710000Y-96057499D01*
X188013853Y-96027572D01*
X188306029Y-95938941D01*
X188575300Y-95795013D01*
X188811318Y-95601318D01*
X189005013Y-95365300D01*
X189148941Y-95096029D01*
X189237572Y-94803853D01*
X189260000Y-94576137D01*
X189260000Y-93623863D01*
X199360000Y-93623863D01*
X199360000Y-94576138D01*
X199382428Y-94803853D01*
X199471059Y-95096029D01*
X199614987Y-95365300D01*
X199808683Y-95601318D01*
X200044701Y-95795013D01*
X200313972Y-95938941D01*
X200606148Y-96027572D01*
X200910000Y-96057499D01*
X201213853Y-96027572D01*
X201506029Y-95938941D01*
X201775300Y-95795013D01*
X202011318Y-95601318D01*
X202205013Y-95365300D01*
X202348941Y-95096029D01*
X202437572Y-94803853D01*
X202460000Y-94576137D01*
X202460000Y-93623862D01*
X202437572Y-93396147D01*
X202348941Y-93103971D01*
X202205013Y-92834700D01*
X202011318Y-92598682D01*
X201775299Y-92404987D01*
X201506028Y-92261059D01*
X201213852Y-92172428D01*
X200910000Y-92142501D01*
X200606147Y-92172428D01*
X200313971Y-92261059D01*
X200044700Y-92404987D01*
X199808682Y-92598682D01*
X199614987Y-92834701D01*
X199471059Y-93103972D01*
X199382428Y-93396148D01*
X199360000Y-93623863D01*
X189260000Y-93623863D01*
X189260000Y-93623862D01*
X189237572Y-93396147D01*
X189148941Y-93103971D01*
X189005013Y-92834700D01*
X188811318Y-92598682D01*
X188575299Y-92404987D01*
X188306028Y-92261059D01*
X188013852Y-92172428D01*
X187710000Y-92142501D01*
X187406147Y-92172428D01*
X187113971Y-92261059D01*
X186844700Y-92404987D01*
X186608682Y-92598682D01*
X186414987Y-92834701D01*
X186271059Y-93103972D01*
X186182428Y-93396148D01*
X186160000Y-93623863D01*
X185210000Y-93623863D01*
X185210000Y-89037907D01*
X185231224Y-89023726D01*
X185328726Y-88926224D01*
X185405332Y-88811574D01*
X185458099Y-88684182D01*
X185485000Y-88548944D01*
X185485000Y-88411056D01*
X185458099Y-88275818D01*
X185405332Y-88148426D01*
X185328726Y-88033776D01*
X185238727Y-87943777D01*
X191001578Y-87943777D01*
X191092085Y-88130657D01*
X191306951Y-88250912D01*
X191541149Y-88326937D01*
X191785678Y-88355812D01*
X192031143Y-88336426D01*
X192268108Y-88269526D01*
X192487469Y-88157680D01*
X192527915Y-88130657D01*
X192618422Y-87943777D01*
X191810000Y-87135355D01*
X191001578Y-87943777D01*
X185238727Y-87943777D01*
X185231224Y-87936274D01*
X185116574Y-87859668D01*
X184989182Y-87806901D01*
X184853944Y-87780000D01*
X184716056Y-87780000D01*
X184580818Y-87806901D01*
X184453426Y-87859668D01*
X184338776Y-87936274D01*
X184241274Y-88033776D01*
X184164668Y-88148426D01*
X184111901Y-88275818D01*
X184085000Y-88411056D01*
X184085000Y-88548944D01*
X184111901Y-88684182D01*
X184164668Y-88811574D01*
X184241274Y-88926224D01*
X184338776Y-89023726D01*
X184360001Y-89037908D01*
X184360000Y-98248960D01*
X184243980Y-98364980D01*
X184218944Y-98360000D01*
X184081056Y-98360000D01*
X183945818Y-98386901D01*
X183818426Y-98439668D01*
X183703776Y-98516274D01*
X183606274Y-98613776D01*
X183529668Y-98728426D01*
X183476901Y-98855818D01*
X183450000Y-98991056D01*
X142401996Y-98991056D01*
X143925996Y-97467056D01*
X156780000Y-97467056D01*
X156780000Y-97604944D01*
X156806901Y-97740182D01*
X156859668Y-97867574D01*
X156936274Y-97982224D01*
X157033776Y-98079726D01*
X157148426Y-98156332D01*
X157275818Y-98209099D01*
X157411056Y-98236000D01*
X157548944Y-98236000D01*
X157684182Y-98209099D01*
X157811574Y-98156332D01*
X157926224Y-98079726D01*
X158023726Y-97982224D01*
X158100332Y-97867574D01*
X158153099Y-97740182D01*
X158180000Y-97604944D01*
X158180000Y-97467056D01*
X158175020Y-97442020D01*
X159289762Y-96327279D01*
X159305974Y-96313974D01*
X159359084Y-96249260D01*
X159398548Y-96175427D01*
X159422850Y-96095314D01*
X159429000Y-96032874D01*
X159429000Y-96032868D01*
X159431055Y-96012001D01*
X159429000Y-95991134D01*
X159429000Y-93623863D01*
X160760000Y-93623863D01*
X160760000Y-94576138D01*
X160782428Y-94803853D01*
X160871059Y-95096029D01*
X161014987Y-95365300D01*
X161208683Y-95601318D01*
X161444701Y-95795013D01*
X161713972Y-95938941D01*
X162006148Y-96027572D01*
X162310000Y-96057499D01*
X162613853Y-96027572D01*
X162906029Y-95938941D01*
X163175300Y-95795013D01*
X163411318Y-95601318D01*
X163605013Y-95365300D01*
X163748941Y-95096029D01*
X163837572Y-94803853D01*
X163860000Y-94576137D01*
X163860000Y-93623863D01*
X173960000Y-93623863D01*
X173960000Y-94576138D01*
X173982428Y-94803853D01*
X174071059Y-95096029D01*
X174214987Y-95365300D01*
X174408683Y-95601318D01*
X174644701Y-95795013D01*
X174913972Y-95938941D01*
X175206148Y-96027572D01*
X175510000Y-96057499D01*
X175813853Y-96027572D01*
X176106029Y-95938941D01*
X176375300Y-95795013D01*
X176611318Y-95601318D01*
X176805013Y-95365300D01*
X176948941Y-95096029D01*
X177037572Y-94803853D01*
X177060000Y-94576137D01*
X177060000Y-93623862D01*
X177037572Y-93396147D01*
X176948941Y-93103971D01*
X176805013Y-92834700D01*
X176611318Y-92598682D01*
X176375299Y-92404987D01*
X176106028Y-92261059D01*
X175813852Y-92172428D01*
X175510000Y-92142501D01*
X175206147Y-92172428D01*
X174913971Y-92261059D01*
X174644700Y-92404987D01*
X174408682Y-92598682D01*
X174214987Y-92834701D01*
X174071059Y-93103972D01*
X173982428Y-93396148D01*
X173960000Y-93623863D01*
X163860000Y-93623863D01*
X163860000Y-93623862D01*
X163837572Y-93396147D01*
X163748941Y-93103971D01*
X163605013Y-92834700D01*
X163411318Y-92598682D01*
X163175299Y-92404987D01*
X162906028Y-92261059D01*
X162613852Y-92172428D01*
X162310000Y-92142501D01*
X162006147Y-92172428D01*
X161713971Y-92261059D01*
X161444700Y-92404987D01*
X161208682Y-92598682D01*
X161014987Y-92834701D01*
X160871059Y-93103972D01*
X160782428Y-93396148D01*
X160760000Y-93623863D01*
X159429000Y-93623863D01*
X159429000Y-92006056D01*
X182180000Y-92006056D01*
X182180000Y-92143944D01*
X182206901Y-92279182D01*
X182259668Y-92406574D01*
X182336274Y-92521224D01*
X182433776Y-92618726D01*
X182455000Y-92632907D01*
X182455001Y-96597092D01*
X182433776Y-96611274D01*
X182336274Y-96708776D01*
X182259668Y-96823426D01*
X182206901Y-96950818D01*
X182180000Y-97086056D01*
X182180000Y-97223944D01*
X182206901Y-97359182D01*
X182259668Y-97486574D01*
X182336274Y-97601224D01*
X182433776Y-97698726D01*
X182548426Y-97775332D01*
X182675818Y-97828099D01*
X182811056Y-97855000D01*
X182948944Y-97855000D01*
X183084182Y-97828099D01*
X183211574Y-97775332D01*
X183326224Y-97698726D01*
X183423726Y-97601224D01*
X183500332Y-97486574D01*
X183553099Y-97359182D01*
X183580000Y-97223944D01*
X183580000Y-97086056D01*
X183553099Y-96950818D01*
X183500332Y-96823426D01*
X183423726Y-96708776D01*
X183326224Y-96611274D01*
X183305000Y-96597093D01*
X183305000Y-92632907D01*
X183326224Y-92618726D01*
X183423726Y-92521224D01*
X183500332Y-92406574D01*
X183553099Y-92279182D01*
X183580000Y-92143944D01*
X183580000Y-92006056D01*
X183553099Y-91870818D01*
X183500332Y-91743426D01*
X183423726Y-91628776D01*
X183326224Y-91531274D01*
X183211574Y-91454668D01*
X183084182Y-91401901D01*
X182948944Y-91375000D01*
X182811056Y-91375000D01*
X182675818Y-91401901D01*
X182548426Y-91454668D01*
X182433776Y-91531274D01*
X182336274Y-91628776D01*
X182259668Y-91743426D01*
X182206901Y-91870818D01*
X182180000Y-92006056D01*
X159429000Y-92006056D01*
X159429000Y-88949907D01*
X159450224Y-88935726D01*
X159547726Y-88838224D01*
X159624332Y-88723574D01*
X159677099Y-88596182D01*
X159704000Y-88460944D01*
X159704000Y-88323056D01*
X159677099Y-88187818D01*
X159624332Y-88060426D01*
X159547726Y-87945776D01*
X159545727Y-87943777D01*
X165601578Y-87943777D01*
X165692085Y-88130657D01*
X165906951Y-88250912D01*
X166141149Y-88326937D01*
X166385678Y-88355812D01*
X166631143Y-88336426D01*
X166868108Y-88269526D01*
X167087469Y-88157680D01*
X167127915Y-88130657D01*
X167218422Y-87943777D01*
X166410000Y-87135355D01*
X165601578Y-87943777D01*
X159545727Y-87943777D01*
X159450224Y-87848274D01*
X159335574Y-87771668D01*
X159208182Y-87718901D01*
X159072944Y-87692000D01*
X158935056Y-87692000D01*
X158799818Y-87718901D01*
X158672426Y-87771668D01*
X158557776Y-87848274D01*
X158460274Y-87945776D01*
X158383668Y-88060426D01*
X158330901Y-88187818D01*
X158304000Y-88323056D01*
X158304000Y-88460944D01*
X158330901Y-88596182D01*
X158383668Y-88723574D01*
X158460274Y-88838224D01*
X158557776Y-88935726D01*
X158579000Y-88949907D01*
X158579001Y-95835958D01*
X157573980Y-96840980D01*
X157548944Y-96836000D01*
X157411056Y-96836000D01*
X157275818Y-96862901D01*
X157148426Y-96915668D01*
X157033776Y-96992274D01*
X156936274Y-97089776D01*
X156859668Y-97204426D01*
X156806901Y-97331818D01*
X156780000Y-97467056D01*
X143925996Y-97467056D01*
X147769189Y-93623863D01*
X148560000Y-93623863D01*
X148560000Y-94576138D01*
X148582428Y-94803853D01*
X148671059Y-95096029D01*
X148814987Y-95365300D01*
X149008683Y-95601318D01*
X149244701Y-95795013D01*
X149513972Y-95938941D01*
X149806148Y-96027572D01*
X150110000Y-96057499D01*
X150413853Y-96027572D01*
X150706029Y-95938941D01*
X150975300Y-95795013D01*
X151211318Y-95601318D01*
X151405013Y-95365300D01*
X151548941Y-95096029D01*
X151637572Y-94803853D01*
X151660000Y-94576137D01*
X151660000Y-93623862D01*
X151637572Y-93396147D01*
X151548941Y-93103971D01*
X151405013Y-92834700D01*
X151211318Y-92598682D01*
X150975299Y-92404987D01*
X150706028Y-92261059D01*
X150413852Y-92172428D01*
X150110000Y-92142501D01*
X149806147Y-92172428D01*
X149513971Y-92261059D01*
X149244700Y-92404987D01*
X149008682Y-92598682D01*
X148814987Y-92834701D01*
X148671059Y-93103972D01*
X148582428Y-93396148D01*
X148560000Y-93623863D01*
X147769189Y-93623863D01*
X152415551Y-88977501D01*
X152461776Y-89023726D01*
X152576426Y-89100332D01*
X152703818Y-89153099D01*
X152839056Y-89180000D01*
X152976944Y-89180000D01*
X153112182Y-89153099D01*
X153239574Y-89100332D01*
X153354224Y-89023726D01*
X153451726Y-88926224D01*
X153528332Y-88811574D01*
X153581099Y-88684182D01*
X153608000Y-88548944D01*
X153608000Y-88411056D01*
X153581099Y-88275818D01*
X153528332Y-88148426D01*
X153451726Y-88033776D01*
X153354224Y-87936274D01*
X153239574Y-87859668D01*
X153112182Y-87806901D01*
X152976944Y-87780000D01*
X152839056Y-87780000D01*
X152703818Y-87806901D01*
X152576426Y-87859668D01*
X152461776Y-87936274D01*
X152364274Y-88033776D01*
X152350093Y-88055000D01*
X152332878Y-88055000D01*
X152312011Y-88052945D01*
X152291144Y-88055000D01*
X152291138Y-88055000D01*
X152237110Y-88060321D01*
X152228697Y-88061150D01*
X152204395Y-88068522D01*
X152148585Y-88085452D01*
X152074752Y-88124916D01*
X152010038Y-88178026D01*
X151996733Y-88194238D01*
X132702244Y-107488728D01*
X132702238Y-107488733D01*
X132681979Y-107508992D01*
X132656944Y-107504012D01*
X132519056Y-107504012D01*
X132383818Y-107530913D01*
X132256426Y-107583680D01*
X132141776Y-107660286D01*
X132044274Y-107757788D01*
X131967668Y-107872438D01*
X131914901Y-107999830D01*
X131888000Y-108135068D01*
X131888000Y-108272956D01*
X131914901Y-108408194D01*
X131967668Y-108535586D01*
X132044274Y-108650236D01*
X132141776Y-108747738D01*
X132212509Y-108795000D01*
X126922035Y-108795000D01*
X125917042Y-107790008D01*
X125922022Y-107764972D01*
X125922022Y-107627084D01*
X125895121Y-107491846D01*
X125842354Y-107364454D01*
X125765748Y-107249804D01*
X125668246Y-107152302D01*
X125553596Y-107075696D01*
X125426204Y-107022929D01*
X125290966Y-106996028D01*
X125153078Y-106996028D01*
X125017840Y-107022929D01*
X124890448Y-107075696D01*
X124775798Y-107152302D01*
X124678296Y-107249804D01*
X124601690Y-107364454D01*
X124548923Y-107491846D01*
X124522022Y-107627084D01*
X124522022Y-107764972D01*
X124548923Y-107900210D01*
X124601690Y-108027602D01*
X124678296Y-108142252D01*
X124775798Y-108239754D01*
X124890448Y-108316360D01*
X125017840Y-108369127D01*
X125153078Y-108396028D01*
X125290966Y-108396028D01*
X125316002Y-108391048D01*
X126430713Y-109505760D01*
X126444020Y-109521974D01*
X126508734Y-109575084D01*
X126582567Y-109614548D01*
X126638377Y-109631478D01*
X126662679Y-109638850D01*
X126670321Y-109639603D01*
X126725120Y-109645000D01*
X126725127Y-109645000D01*
X126745994Y-109647055D01*
X126766861Y-109645000D01*
X172191133Y-109645000D01*
X172212000Y-109647055D01*
X172232867Y-109645000D01*
X172232874Y-109645000D01*
X172295314Y-109638850D01*
X172375427Y-109614548D01*
X172449260Y-109575084D01*
X172513974Y-109521974D01*
X172527283Y-109505757D01*
X173603200Y-108429841D01*
X173570901Y-108507818D01*
X173544000Y-108643056D01*
X173544000Y-108780944D01*
X173548980Y-108805979D01*
X172035960Y-110319000D01*
X126668041Y-110319000D01*
X125663020Y-109313980D01*
X125668000Y-109288944D01*
X125668000Y-109151056D01*
X125641099Y-109015818D01*
X125588332Y-108888426D01*
X125511726Y-108773776D01*
X125414224Y-108676274D01*
X125299574Y-108599668D01*
X125172182Y-108546901D01*
X125036944Y-108520000D01*
X124899056Y-108520000D01*
X124763818Y-108546901D01*
X124636426Y-108599668D01*
X124521776Y-108676274D01*
X124424274Y-108773776D01*
X124347668Y-108888426D01*
X124294901Y-109015818D01*
X124268000Y-109151056D01*
X117372097Y-109151056D01*
X109702851Y-101481810D01*
X114410000Y-101481810D01*
X114410000Y-101718190D01*
X114456116Y-101950027D01*
X114546574Y-102168413D01*
X114677899Y-102364955D01*
X114845045Y-102532101D01*
X115041587Y-102663426D01*
X115259973Y-102753884D01*
X115491810Y-102800000D01*
X115728190Y-102800000D01*
X115960027Y-102753884D01*
X116178413Y-102663426D01*
X116374955Y-102532101D01*
X116463279Y-102443777D01*
X117301578Y-102443777D01*
X117392085Y-102630657D01*
X117606951Y-102750912D01*
X117841149Y-102826937D01*
X118085678Y-102855812D01*
X118331143Y-102836426D01*
X118568108Y-102769526D01*
X118787469Y-102657680D01*
X118827915Y-102630657D01*
X118918422Y-102443777D01*
X118110000Y-101635355D01*
X117301578Y-102443777D01*
X116463279Y-102443777D01*
X116542101Y-102364955D01*
X116673426Y-102168413D01*
X116763884Y-101950027D01*
X116810000Y-101718190D01*
X116810000Y-101575678D01*
X116854188Y-101575678D01*
X116873574Y-101821143D01*
X116940474Y-102058108D01*
X117052320Y-102277469D01*
X117079343Y-102317915D01*
X117266223Y-102408422D01*
X118074645Y-101600000D01*
X118145355Y-101600000D01*
X118953777Y-102408422D01*
X119140657Y-102317915D01*
X119260912Y-102103049D01*
X119336937Y-101868851D01*
X119365812Y-101624322D01*
X119354557Y-101481810D01*
X119410000Y-101481810D01*
X119410000Y-101718190D01*
X119456116Y-101950027D01*
X119546574Y-102168413D01*
X119677899Y-102364955D01*
X119845045Y-102532101D01*
X120041587Y-102663426D01*
X120259973Y-102753884D01*
X120491810Y-102800000D01*
X120728190Y-102800000D01*
X120960027Y-102753884D01*
X121178413Y-102663426D01*
X121374955Y-102532101D01*
X121542101Y-102364955D01*
X121673426Y-102168413D01*
X121763884Y-101950027D01*
X121810000Y-101718190D01*
X121810000Y-101481810D01*
X121763884Y-101249973D01*
X121673426Y-101031587D01*
X121542101Y-100835045D01*
X121374955Y-100667899D01*
X121178413Y-100536574D01*
X120960027Y-100446116D01*
X120728190Y-100400000D01*
X120491810Y-100400000D01*
X120259973Y-100446116D01*
X120041587Y-100536574D01*
X119845045Y-100667899D01*
X119677899Y-100835045D01*
X119546574Y-101031587D01*
X119456116Y-101249973D01*
X119410000Y-101481810D01*
X119354557Y-101481810D01*
X119346426Y-101378857D01*
X119279526Y-101141892D01*
X119167680Y-100922531D01*
X119140657Y-100882085D01*
X118953777Y-100791578D01*
X118145355Y-101600000D01*
X118074645Y-101600000D01*
X117266223Y-100791578D01*
X117079343Y-100882085D01*
X116959088Y-101096951D01*
X116883063Y-101331149D01*
X116854188Y-101575678D01*
X116810000Y-101575678D01*
X116810000Y-101481810D01*
X116763884Y-101249973D01*
X116673426Y-101031587D01*
X116542101Y-100835045D01*
X116463279Y-100756223D01*
X117301578Y-100756223D01*
X118110000Y-101564645D01*
X118918422Y-100756223D01*
X118827915Y-100569343D01*
X118613049Y-100449088D01*
X118378851Y-100373063D01*
X118134322Y-100344188D01*
X117888857Y-100363574D01*
X117651892Y-100430474D01*
X117432531Y-100542320D01*
X117392085Y-100569343D01*
X117301578Y-100756223D01*
X116463279Y-100756223D01*
X116374955Y-100667899D01*
X116178413Y-100536574D01*
X115960027Y-100446116D01*
X115728190Y-100400000D01*
X115491810Y-100400000D01*
X115259973Y-100446116D01*
X115041587Y-100536574D01*
X114845045Y-100667899D01*
X114677899Y-100835045D01*
X114546574Y-101031587D01*
X114456116Y-101249973D01*
X114410000Y-101481810D01*
X109702851Y-101481810D01*
X109535284Y-101314244D01*
X109521974Y-101298026D01*
X109457260Y-101244916D01*
X109383427Y-101205452D01*
X109303314Y-101181150D01*
X109240874Y-101175000D01*
X109240867Y-101175000D01*
X109220000Y-101172945D01*
X109199133Y-101175000D01*
X106228824Y-101175000D01*
X106223602Y-101157785D01*
X106116816Y-100958003D01*
X105973107Y-100782893D01*
X105797997Y-100639184D01*
X105598215Y-100532398D01*
X105381439Y-100466640D01*
X105212492Y-100450000D01*
X105099508Y-100450000D01*
X104930561Y-100466640D01*
X104713785Y-100532398D01*
X104514003Y-100639184D01*
X104338893Y-100782893D01*
X104195184Y-100958003D01*
X104088398Y-101157785D01*
X104022640Y-101374561D01*
X104000436Y-101600000D01*
X103245000Y-101600000D01*
X103245000Y-98210000D01*
X104004549Y-98210000D01*
X104004549Y-99910000D01*
X104010341Y-99968810D01*
X104027496Y-100025360D01*
X104055353Y-100077477D01*
X104092842Y-100123158D01*
X104138523Y-100160647D01*
X104190640Y-100188504D01*
X104247190Y-100205659D01*
X104306000Y-100211451D01*
X106006000Y-100211451D01*
X106064810Y-100205659D01*
X106121360Y-100188504D01*
X106173477Y-100160647D01*
X106219158Y-100123158D01*
X106256647Y-100077477D01*
X106284504Y-100025360D01*
X106301659Y-99968810D01*
X106307451Y-99910000D01*
X106307451Y-98210000D01*
X106301659Y-98151190D01*
X106284504Y-98094640D01*
X106256647Y-98042523D01*
X106219158Y-97996842D01*
X106173477Y-97959353D01*
X106121360Y-97931496D01*
X106064810Y-97914341D01*
X106006000Y-97908549D01*
X104306000Y-97908549D01*
X104247190Y-97914341D01*
X104190640Y-97931496D01*
X104138523Y-97959353D01*
X104092842Y-97996842D01*
X104055353Y-98042523D01*
X104027496Y-98094640D01*
X104010341Y-98151190D01*
X104004549Y-98210000D01*
X103245000Y-98210000D01*
X103245000Y-93623863D01*
X109960000Y-93623863D01*
X109960000Y-94576138D01*
X109982428Y-94803853D01*
X110071059Y-95096029D01*
X110214987Y-95365300D01*
X110408683Y-95601318D01*
X110644701Y-95795013D01*
X110913972Y-95938941D01*
X111206148Y-96027572D01*
X111510000Y-96057499D01*
X111813853Y-96027572D01*
X112106029Y-95938941D01*
X112375300Y-95795013D01*
X112611318Y-95601318D01*
X112805013Y-95365300D01*
X112948941Y-95096029D01*
X113037572Y-94803853D01*
X113060000Y-94576137D01*
X113060000Y-93623863D01*
X123160000Y-93623863D01*
X123160000Y-94576138D01*
X123182428Y-94803853D01*
X123271059Y-95096029D01*
X123414987Y-95365300D01*
X123608683Y-95601318D01*
X123844701Y-95795013D01*
X124113972Y-95938941D01*
X124406148Y-96027572D01*
X124710000Y-96057499D01*
X125013853Y-96027572D01*
X125306029Y-95938941D01*
X125575300Y-95795013D01*
X125811318Y-95601318D01*
X126005013Y-95365300D01*
X126148941Y-95096029D01*
X126237572Y-94803853D01*
X126260000Y-94576137D01*
X126260000Y-93623862D01*
X126237572Y-93396147D01*
X126148941Y-93103971D01*
X126005013Y-92834700D01*
X125811318Y-92598682D01*
X125575299Y-92404987D01*
X125306028Y-92261059D01*
X125013852Y-92172428D01*
X124710000Y-92142501D01*
X124406147Y-92172428D01*
X124113971Y-92261059D01*
X123844700Y-92404987D01*
X123608682Y-92598682D01*
X123414987Y-92834701D01*
X123271059Y-93103972D01*
X123182428Y-93396148D01*
X123160000Y-93623863D01*
X113060000Y-93623863D01*
X113060000Y-93623862D01*
X113037572Y-93396147D01*
X112948941Y-93103971D01*
X112805013Y-92834700D01*
X112611318Y-92598682D01*
X112375299Y-92404987D01*
X112106028Y-92261059D01*
X111813852Y-92172428D01*
X111510000Y-92142501D01*
X111206147Y-92172428D01*
X110913971Y-92261059D01*
X110644700Y-92404987D01*
X110408682Y-92598682D01*
X110214987Y-92834701D01*
X110071059Y-93103972D01*
X109982428Y-93396148D01*
X109960000Y-93623863D01*
X103245000Y-93623863D01*
X103245000Y-90736056D01*
X127316000Y-90736056D01*
X127316000Y-90873944D01*
X127342901Y-91009182D01*
X127395668Y-91136574D01*
X127472274Y-91251224D01*
X127569776Y-91348726D01*
X127591000Y-91362907D01*
X127591001Y-95991123D01*
X127588945Y-96012000D01*
X127597150Y-96095314D01*
X127621453Y-96175427D01*
X127660917Y-96249260D01*
X127714027Y-96313974D01*
X127730239Y-96327279D01*
X127828980Y-96426020D01*
X127824000Y-96451056D01*
X127824000Y-96588944D01*
X127850901Y-96724182D01*
X127903668Y-96851574D01*
X127980274Y-96966224D01*
X128077776Y-97063726D01*
X128192426Y-97140332D01*
X128319818Y-97193099D01*
X128455056Y-97220000D01*
X128592944Y-97220000D01*
X128728182Y-97193099D01*
X128855574Y-97140332D01*
X128970224Y-97063726D01*
X129067726Y-96966224D01*
X129144332Y-96851574D01*
X129197099Y-96724182D01*
X129224000Y-96588944D01*
X129224000Y-96451056D01*
X129197099Y-96315818D01*
X129144332Y-96188426D01*
X129067726Y-96073776D01*
X128970224Y-95976274D01*
X128855574Y-95899668D01*
X128728182Y-95846901D01*
X128592944Y-95820000D01*
X128455056Y-95820000D01*
X128441000Y-95822796D01*
X128441000Y-91362907D01*
X128462224Y-91348726D01*
X128559726Y-91251224D01*
X128636332Y-91136574D01*
X128689099Y-91009182D01*
X128716000Y-90873944D01*
X128716000Y-90736056D01*
X128689099Y-90600818D01*
X128636332Y-90473426D01*
X128559726Y-90358776D01*
X128462224Y-90261274D01*
X128347574Y-90184668D01*
X128220182Y-90131901D01*
X128084944Y-90105000D01*
X127947056Y-90105000D01*
X127811818Y-90131901D01*
X127684426Y-90184668D01*
X127569776Y-90261274D01*
X127472274Y-90358776D01*
X127395668Y-90473426D01*
X127342901Y-90600818D01*
X127316000Y-90736056D01*
X103245000Y-90736056D01*
X103245000Y-88747338D01*
X104495000Y-88747338D01*
X104495000Y-89052662D01*
X104554565Y-89352118D01*
X104671408Y-89634200D01*
X104841036Y-89888068D01*
X105056932Y-90103964D01*
X105310800Y-90273592D01*
X105592882Y-90390435D01*
X105892338Y-90450000D01*
X106197662Y-90450000D01*
X106497118Y-90390435D01*
X106779200Y-90273592D01*
X107033068Y-90103964D01*
X107248964Y-89888068D01*
X107418592Y-89634200D01*
X107535435Y-89352118D01*
X107595000Y-89052662D01*
X107595000Y-88747338D01*
X107535435Y-88447882D01*
X107520182Y-88411056D01*
X127316000Y-88411056D01*
X127316000Y-88548944D01*
X127342901Y-88684182D01*
X127395668Y-88811574D01*
X127472274Y-88926224D01*
X127569776Y-89023726D01*
X127684426Y-89100332D01*
X127811818Y-89153099D01*
X127947056Y-89180000D01*
X128084944Y-89180000D01*
X128109980Y-89175020D01*
X130131001Y-91196042D01*
X130131000Y-94946093D01*
X130109776Y-94960274D01*
X130012274Y-95057776D01*
X129935668Y-95172426D01*
X129882901Y-95299818D01*
X129856000Y-95435056D01*
X129856000Y-95572944D01*
X129882901Y-95708182D01*
X129935668Y-95835574D01*
X130012274Y-95950224D01*
X130109776Y-96047726D01*
X130224426Y-96124332D01*
X130351818Y-96177099D01*
X130487056Y-96204000D01*
X130624944Y-96204000D01*
X130760182Y-96177099D01*
X130887574Y-96124332D01*
X131002224Y-96047726D01*
X131099726Y-95950224D01*
X131176332Y-95835574D01*
X131229099Y-95708182D01*
X131256000Y-95572944D01*
X131256000Y-95435056D01*
X131229099Y-95299818D01*
X131176332Y-95172426D01*
X131099726Y-95057776D01*
X131002224Y-94960274D01*
X130981000Y-94946093D01*
X130981000Y-93623863D01*
X135360000Y-93623863D01*
X135360000Y-94576138D01*
X135382428Y-94803853D01*
X135471059Y-95096029D01*
X135614987Y-95365300D01*
X135808683Y-95601318D01*
X136044701Y-95795013D01*
X136313972Y-95938941D01*
X136606148Y-96027572D01*
X136910000Y-96057499D01*
X137213853Y-96027572D01*
X137506029Y-95938941D01*
X137775300Y-95795013D01*
X138011318Y-95601318D01*
X138205013Y-95365300D01*
X138348941Y-95096029D01*
X138437572Y-94803853D01*
X138460000Y-94576137D01*
X138460000Y-93623862D01*
X138437572Y-93396147D01*
X138348941Y-93103971D01*
X138205013Y-92834700D01*
X138011318Y-92598682D01*
X137775299Y-92404987D01*
X137506028Y-92261059D01*
X137213852Y-92172428D01*
X136910000Y-92142501D01*
X136606147Y-92172428D01*
X136313971Y-92261059D01*
X136044700Y-92404987D01*
X135808682Y-92598682D01*
X135614987Y-92834701D01*
X135471059Y-93103972D01*
X135382428Y-93396148D01*
X135360000Y-93623863D01*
X130981000Y-93623863D01*
X130981000Y-91040866D01*
X130983055Y-91019999D01*
X130981000Y-90999132D01*
X130981000Y-90999126D01*
X130974850Y-90936686D01*
X130950548Y-90856573D01*
X130911084Y-90782740D01*
X130857974Y-90718026D01*
X130841762Y-90704721D01*
X128711020Y-88573980D01*
X128716000Y-88548944D01*
X128716000Y-88411056D01*
X128689099Y-88275818D01*
X128636332Y-88148426D01*
X128559726Y-88033776D01*
X128469727Y-87943777D01*
X140201578Y-87943777D01*
X140292085Y-88130657D01*
X140506951Y-88250912D01*
X140741149Y-88326937D01*
X140985678Y-88355812D01*
X141231143Y-88336426D01*
X141468108Y-88269526D01*
X141687469Y-88157680D01*
X141727915Y-88130657D01*
X141818422Y-87943777D01*
X141010000Y-87135355D01*
X140201578Y-87943777D01*
X128469727Y-87943777D01*
X128462224Y-87936274D01*
X128347574Y-87859668D01*
X128220182Y-87806901D01*
X128084944Y-87780000D01*
X127947056Y-87780000D01*
X127811818Y-87806901D01*
X127684426Y-87859668D01*
X127569776Y-87936274D01*
X127472274Y-88033776D01*
X127395668Y-88148426D01*
X127342901Y-88275818D01*
X127316000Y-88411056D01*
X107520182Y-88411056D01*
X107418592Y-88165800D01*
X107270243Y-87943777D01*
X114801578Y-87943777D01*
X114892085Y-88130657D01*
X115106951Y-88250912D01*
X115341149Y-88326937D01*
X115585678Y-88355812D01*
X115831143Y-88336426D01*
X116068108Y-88269526D01*
X116287469Y-88157680D01*
X116327915Y-88130657D01*
X116418422Y-87943777D01*
X115610000Y-87135355D01*
X114801578Y-87943777D01*
X107270243Y-87943777D01*
X107248964Y-87911932D01*
X107033068Y-87696036D01*
X106779200Y-87526408D01*
X106497118Y-87409565D01*
X106197662Y-87350000D01*
X105892338Y-87350000D01*
X105592882Y-87409565D01*
X105310800Y-87526408D01*
X105056932Y-87696036D01*
X104841036Y-87911932D01*
X104671408Y-88165800D01*
X104554565Y-88447882D01*
X104495000Y-88747338D01*
X103245000Y-88747338D01*
X103245000Y-87075678D01*
X114354188Y-87075678D01*
X114373574Y-87321143D01*
X114440474Y-87558108D01*
X114552320Y-87777469D01*
X114579343Y-87817915D01*
X114766223Y-87908422D01*
X115574645Y-87100000D01*
X115645355Y-87100000D01*
X116453777Y-87908422D01*
X116640657Y-87817915D01*
X116760912Y-87603049D01*
X116836937Y-87368851D01*
X116865812Y-87124322D01*
X116854557Y-86981810D01*
X119410000Y-86981810D01*
X119410000Y-87218190D01*
X119456116Y-87450027D01*
X119546574Y-87668413D01*
X119677899Y-87864955D01*
X119845045Y-88032101D01*
X120041587Y-88163426D01*
X120259973Y-88253884D01*
X120491810Y-88300000D01*
X120728190Y-88300000D01*
X120960027Y-88253884D01*
X121178413Y-88163426D01*
X121374955Y-88032101D01*
X121542101Y-87864955D01*
X121673426Y-87668413D01*
X121763884Y-87450027D01*
X121810000Y-87218190D01*
X121810000Y-87075678D01*
X139754188Y-87075678D01*
X139773574Y-87321143D01*
X139840474Y-87558108D01*
X139952320Y-87777469D01*
X139979343Y-87817915D01*
X140166223Y-87908422D01*
X140974645Y-87100000D01*
X141045355Y-87100000D01*
X141853777Y-87908422D01*
X142040657Y-87817915D01*
X142160912Y-87603049D01*
X142236937Y-87368851D01*
X142265812Y-87124322D01*
X142254557Y-86981810D01*
X144810000Y-86981810D01*
X144810000Y-87218190D01*
X144856116Y-87450027D01*
X144946574Y-87668413D01*
X145077899Y-87864955D01*
X145245045Y-88032101D01*
X145441587Y-88163426D01*
X145659973Y-88253884D01*
X145891810Y-88300000D01*
X146128190Y-88300000D01*
X146360027Y-88253884D01*
X146578413Y-88163426D01*
X146774955Y-88032101D01*
X146942101Y-87864955D01*
X147073426Y-87668413D01*
X147163884Y-87450027D01*
X147210000Y-87218190D01*
X147210000Y-87075678D01*
X165154188Y-87075678D01*
X165173574Y-87321143D01*
X165240474Y-87558108D01*
X165352320Y-87777469D01*
X165379343Y-87817915D01*
X165566223Y-87908422D01*
X166374645Y-87100000D01*
X166445355Y-87100000D01*
X167253777Y-87908422D01*
X167440657Y-87817915D01*
X167560912Y-87603049D01*
X167636937Y-87368851D01*
X167665812Y-87124322D01*
X167654557Y-86981810D01*
X170210000Y-86981810D01*
X170210000Y-87218190D01*
X170256116Y-87450027D01*
X170346574Y-87668413D01*
X170477899Y-87864955D01*
X170645045Y-88032101D01*
X170841587Y-88163426D01*
X171059973Y-88253884D01*
X171291810Y-88300000D01*
X171528190Y-88300000D01*
X171760027Y-88253884D01*
X171978413Y-88163426D01*
X172174955Y-88032101D01*
X172342101Y-87864955D01*
X172473426Y-87668413D01*
X172563884Y-87450027D01*
X172610000Y-87218190D01*
X172610000Y-87075678D01*
X190554188Y-87075678D01*
X190573574Y-87321143D01*
X190640474Y-87558108D01*
X190752320Y-87777469D01*
X190779343Y-87817915D01*
X190966223Y-87908422D01*
X191774645Y-87100000D01*
X191845355Y-87100000D01*
X192653777Y-87908422D01*
X192840657Y-87817915D01*
X192960912Y-87603049D01*
X193036937Y-87368851D01*
X193065812Y-87124322D01*
X193054557Y-86981810D01*
X195610000Y-86981810D01*
X195610000Y-87218190D01*
X195656116Y-87450027D01*
X195746574Y-87668413D01*
X195877899Y-87864955D01*
X196045045Y-88032101D01*
X196241587Y-88163426D01*
X196459973Y-88253884D01*
X196691810Y-88300000D01*
X196928190Y-88300000D01*
X197160027Y-88253884D01*
X197378413Y-88163426D01*
X197574955Y-88032101D01*
X197742101Y-87864955D01*
X197873426Y-87668413D01*
X197963884Y-87450027D01*
X198010000Y-87218190D01*
X198010000Y-86981810D01*
X197963884Y-86749973D01*
X197873426Y-86531587D01*
X197742101Y-86335045D01*
X197574955Y-86167899D01*
X197378413Y-86036574D01*
X197160027Y-85946116D01*
X196928190Y-85900000D01*
X196691810Y-85900000D01*
X196459973Y-85946116D01*
X196241587Y-86036574D01*
X196045045Y-86167899D01*
X195877899Y-86335045D01*
X195746574Y-86531587D01*
X195656116Y-86749973D01*
X195610000Y-86981810D01*
X193054557Y-86981810D01*
X193046426Y-86878857D01*
X192979526Y-86641892D01*
X192867680Y-86422531D01*
X192840657Y-86382085D01*
X192653777Y-86291578D01*
X191845355Y-87100000D01*
X191774645Y-87100000D01*
X190966223Y-86291578D01*
X190779343Y-86382085D01*
X190659088Y-86596951D01*
X190583063Y-86831149D01*
X190554188Y-87075678D01*
X172610000Y-87075678D01*
X172610000Y-86981810D01*
X172563884Y-86749973D01*
X172473426Y-86531587D01*
X172342101Y-86335045D01*
X172263279Y-86256223D01*
X191001578Y-86256223D01*
X191810000Y-87064645D01*
X192618422Y-86256223D01*
X192527915Y-86069343D01*
X192313049Y-85949088D01*
X192078851Y-85873063D01*
X191834322Y-85844188D01*
X191588857Y-85863574D01*
X191351892Y-85930474D01*
X191132531Y-86042320D01*
X191092085Y-86069343D01*
X191001578Y-86256223D01*
X172263279Y-86256223D01*
X172174955Y-86167899D01*
X171978413Y-86036574D01*
X171760027Y-85946116D01*
X171528190Y-85900000D01*
X171291810Y-85900000D01*
X171059973Y-85946116D01*
X170841587Y-86036574D01*
X170645045Y-86167899D01*
X170477899Y-86335045D01*
X170346574Y-86531587D01*
X170256116Y-86749973D01*
X170210000Y-86981810D01*
X167654557Y-86981810D01*
X167646426Y-86878857D01*
X167579526Y-86641892D01*
X167467680Y-86422531D01*
X167440657Y-86382085D01*
X167253777Y-86291578D01*
X166445355Y-87100000D01*
X166374645Y-87100000D01*
X165566223Y-86291578D01*
X165379343Y-86382085D01*
X165259088Y-86596951D01*
X165183063Y-86831149D01*
X165154188Y-87075678D01*
X147210000Y-87075678D01*
X147210000Y-86981810D01*
X147163884Y-86749973D01*
X147073426Y-86531587D01*
X146942101Y-86335045D01*
X146863279Y-86256223D01*
X165601578Y-86256223D01*
X166410000Y-87064645D01*
X167218422Y-86256223D01*
X167127915Y-86069343D01*
X166913049Y-85949088D01*
X166678851Y-85873063D01*
X166434322Y-85844188D01*
X166188857Y-85863574D01*
X165951892Y-85930474D01*
X165732531Y-86042320D01*
X165692085Y-86069343D01*
X165601578Y-86256223D01*
X146863279Y-86256223D01*
X146774955Y-86167899D01*
X146578413Y-86036574D01*
X146360027Y-85946116D01*
X146128190Y-85900000D01*
X145891810Y-85900000D01*
X145659973Y-85946116D01*
X145441587Y-86036574D01*
X145245045Y-86167899D01*
X145077899Y-86335045D01*
X144946574Y-86531587D01*
X144856116Y-86749973D01*
X144810000Y-86981810D01*
X142254557Y-86981810D01*
X142246426Y-86878857D01*
X142179526Y-86641892D01*
X142067680Y-86422531D01*
X142040657Y-86382085D01*
X141853777Y-86291578D01*
X141045355Y-87100000D01*
X140974645Y-87100000D01*
X140166223Y-86291578D01*
X139979343Y-86382085D01*
X139859088Y-86596951D01*
X139783063Y-86831149D01*
X139754188Y-87075678D01*
X121810000Y-87075678D01*
X121810000Y-86981810D01*
X121763884Y-86749973D01*
X121673426Y-86531587D01*
X121542101Y-86335045D01*
X121463279Y-86256223D01*
X140201578Y-86256223D01*
X141010000Y-87064645D01*
X141818422Y-86256223D01*
X141727915Y-86069343D01*
X141513049Y-85949088D01*
X141278851Y-85873063D01*
X141034322Y-85844188D01*
X140788857Y-85863574D01*
X140551892Y-85930474D01*
X140332531Y-86042320D01*
X140292085Y-86069343D01*
X140201578Y-86256223D01*
X121463279Y-86256223D01*
X121374955Y-86167899D01*
X121178413Y-86036574D01*
X120960027Y-85946116D01*
X120728190Y-85900000D01*
X120491810Y-85900000D01*
X120259973Y-85946116D01*
X120041587Y-86036574D01*
X119845045Y-86167899D01*
X119677899Y-86335045D01*
X119546574Y-86531587D01*
X119456116Y-86749973D01*
X119410000Y-86981810D01*
X116854557Y-86981810D01*
X116846426Y-86878857D01*
X116779526Y-86641892D01*
X116667680Y-86422531D01*
X116640657Y-86382085D01*
X116453777Y-86291578D01*
X115645355Y-87100000D01*
X115574645Y-87100000D01*
X114766223Y-86291578D01*
X114579343Y-86382085D01*
X114459088Y-86596951D01*
X114383063Y-86831149D01*
X114354188Y-87075678D01*
X103245000Y-87075678D01*
X103245000Y-86256223D01*
X114801578Y-86256223D01*
X115610000Y-87064645D01*
X116418422Y-86256223D01*
X116327915Y-86069343D01*
X116113049Y-85949088D01*
X115878851Y-85873063D01*
X115634322Y-85844188D01*
X115388857Y-85863574D01*
X115151892Y-85930474D01*
X114932531Y-86042320D01*
X114892085Y-86069343D01*
X114801578Y-86256223D01*
X103245000Y-86256223D01*
X103245000Y-85465000D01*
X204095001Y-85465000D01*
X204095000Y-124085000D01*
X204095000Y-124085000D01*
G37*
X204095000Y-124085000D02*
X103245000Y-124085000D01*
X103245000Y-120497338D01*
X104495000Y-120497338D01*
X104495000Y-120802662D01*
X104554565Y-121102118D01*
X104671408Y-121384200D01*
X104841036Y-121638068D01*
X105056932Y-121853964D01*
X105310800Y-122023592D01*
X105592882Y-122140435D01*
X105892338Y-122200000D01*
X106197662Y-122200000D01*
X106497118Y-122140435D01*
X106779200Y-122023592D01*
X107033068Y-121853964D01*
X107248964Y-121638068D01*
X107418592Y-121384200D01*
X107435634Y-121343056D01*
X155764006Y-121343056D01*
X155764006Y-121480944D01*
X155790907Y-121616182D01*
X155843674Y-121743574D01*
X155920280Y-121858224D01*
X156017782Y-121955726D01*
X156132432Y-122032332D01*
X156259824Y-122085099D01*
X156395062Y-122112000D01*
X156532950Y-122112000D01*
X156668188Y-122085099D01*
X156795580Y-122032332D01*
X156910230Y-121955726D01*
X157007732Y-121858224D01*
X157021913Y-121837000D01*
X177779133Y-121837000D01*
X177800000Y-121839055D01*
X177820867Y-121837000D01*
X177820874Y-121837000D01*
X177883314Y-121830850D01*
X177963427Y-121806548D01*
X178037260Y-121767084D01*
X178101974Y-121713974D01*
X178115284Y-121697756D01*
X179487130Y-120325910D01*
X187109445Y-120325910D01*
X187223939Y-120533272D01*
X187472799Y-120673451D01*
X187744224Y-120762386D01*
X188027786Y-120796660D01*
X188312586Y-120774956D01*
X188587678Y-120698106D01*
X188842492Y-120569065D01*
X188896061Y-120533272D01*
X189010555Y-120325910D01*
X199609445Y-120325910D01*
X199723939Y-120533272D01*
X199972799Y-120673451D01*
X200244224Y-120762386D01*
X200527786Y-120796660D01*
X200812586Y-120774956D01*
X201087678Y-120698106D01*
X201342492Y-120569065D01*
X201396061Y-120533272D01*
X201510555Y-120325910D01*
X200560000Y-119375355D01*
X199609445Y-120325910D01*
X189010555Y-120325910D01*
X188060000Y-119375355D01*
X187109445Y-120325910D01*
X179487130Y-120325910D01*
X180505254Y-119307786D01*
X186603340Y-119307786D01*
X186625044Y-119592586D01*
X186701894Y-119867678D01*
X186830935Y-120122492D01*
X186866728Y-120176061D01*
X187074090Y-120290555D01*
X188024645Y-119340000D01*
X188095355Y-119340000D01*
X189045910Y-120290555D01*
X189253272Y-120176061D01*
X189393451Y-119927201D01*
X189482386Y-119655776D01*
X189516660Y-119372214D01*
X189511751Y-119307786D01*
X199103340Y-119307786D01*
X199125044Y-119592586D01*
X199201894Y-119867678D01*
X199330935Y-120122492D01*
X199366728Y-120176061D01*
X199574090Y-120290555D01*
X200524645Y-119340000D01*
X200595355Y-119340000D01*
X201545910Y-120290555D01*
X201753272Y-120176061D01*
X201893451Y-119927201D01*
X201982386Y-119655776D01*
X202016660Y-119372214D01*
X201994956Y-119087414D01*
X201918106Y-118812322D01*
X201789065Y-118557508D01*
X201753272Y-118503939D01*
X201545910Y-118389445D01*
X200595355Y-119340000D01*
X200524645Y-119340000D01*
X199574090Y-118389445D01*
X199366728Y-118503939D01*
X199226549Y-118752799D01*
X199137614Y-119024224D01*
X199103340Y-119307786D01*
X189511751Y-119307786D01*
X189494956Y-119087414D01*
X189418106Y-118812322D01*
X189289065Y-118557508D01*
X189253272Y-118503939D01*
X189045910Y-118389445D01*
X188095355Y-119340000D01*
X188024645Y-119340000D01*
X187074090Y-118389445D01*
X186866728Y-118503939D01*
X186726549Y-118752799D01*
X186637614Y-119024224D01*
X186603340Y-119307786D01*
X180505254Y-119307786D01*
X181458950Y-118354090D01*
X187109445Y-118354090D01*
X188060000Y-119304645D01*
X189010555Y-118354090D01*
X199609445Y-118354090D01*
X200560000Y-119304645D01*
X201510555Y-118354090D01*
X201396061Y-118146728D01*
X201147201Y-118006549D01*
X200875776Y-117917614D01*
X200592214Y-117883340D01*
X200307414Y-117905044D01*
X200032322Y-117981894D01*
X199777508Y-118110935D01*
X199723939Y-118146728D01*
X199609445Y-118354090D01*
X189010555Y-118354090D01*
X188896061Y-118146728D01*
X188647201Y-118006549D01*
X188375776Y-117917614D01*
X188092214Y-117883340D01*
X187807414Y-117905044D01*
X187532322Y-117981894D01*
X187277508Y-118110935D01*
X187223939Y-118146728D01*
X187109445Y-118354090D01*
X181458950Y-118354090D01*
X185610928Y-114202112D01*
X186660000Y-114202112D01*
X186660000Y-114477888D01*
X186713801Y-114748365D01*
X186819336Y-115003149D01*
X186972549Y-115232448D01*
X187167552Y-115427451D01*
X187396851Y-115580664D01*
X187651635Y-115686199D01*
X187922112Y-115740000D01*
X188197888Y-115740000D01*
X188468365Y-115686199D01*
X188723149Y-115580664D01*
X188952448Y-115427451D01*
X189147451Y-115232448D01*
X189300664Y-115003149D01*
X189406199Y-114748365D01*
X189460000Y-114477888D01*
X189460000Y-114202112D01*
X199160000Y-114202112D01*
X199160000Y-114477888D01*
X199213801Y-114748365D01*
X199319336Y-115003149D01*
X199472549Y-115232448D01*
X199667552Y-115427451D01*
X199896851Y-115580664D01*
X200151635Y-115686199D01*
X200422112Y-115740000D01*
X200697888Y-115740000D01*
X200968365Y-115686199D01*
X201223149Y-115580664D01*
X201452448Y-115427451D01*
X201647451Y-115232448D01*
X201800664Y-115003149D01*
X201906199Y-114748365D01*
X201960000Y-114477888D01*
X201960000Y-114202112D01*
X201906199Y-113931635D01*
X201800664Y-113676851D01*
X201647451Y-113447552D01*
X201452448Y-113252549D01*
X201223149Y-113099336D01*
X200968365Y-112993801D01*
X200697888Y-112940000D01*
X200422112Y-112940000D01*
X200151635Y-112993801D01*
X199896851Y-113099336D01*
X199667552Y-113252549D01*
X199472549Y-113447552D01*
X199319336Y-113676851D01*
X199213801Y-113931635D01*
X199160000Y-114202112D01*
X189460000Y-114202112D01*
X189406199Y-113931635D01*
X189300664Y-113676851D01*
X189147451Y-113447552D01*
X188952448Y-113252549D01*
X188723149Y-113099336D01*
X188468365Y-112993801D01*
X188197888Y-112940000D01*
X187922112Y-112940000D01*
X187651635Y-112993801D01*
X187396851Y-113099336D01*
X187167552Y-113252549D01*
X186972549Y-113447552D01*
X186819336Y-113676851D01*
X186713801Y-113931635D01*
X186660000Y-114202112D01*
X185610928Y-114202112D01*
X189261762Y-110551279D01*
X189277974Y-110537974D01*
X189331084Y-110473260D01*
X189363600Y-110412426D01*
X189370548Y-110399428D01*
X189394850Y-110319314D01*
X189398149Y-110285818D01*
X189401000Y-110256874D01*
X189401000Y-110256867D01*
X189403055Y-110236000D01*
X189401000Y-110215133D01*
X189401000Y-106527338D01*
X197840000Y-106527338D01*
X197840000Y-106832662D01*
X197899565Y-107132118D01*
X198016408Y-107414200D01*
X198186036Y-107668068D01*
X198401932Y-107883964D01*
X198655800Y-108053592D01*
X198937882Y-108170435D01*
X199237338Y-108230000D01*
X199542662Y-108230000D01*
X199842118Y-108170435D01*
X200124200Y-108053592D01*
X200378068Y-107883964D01*
X200593964Y-107668068D01*
X200763592Y-107414200D01*
X200880435Y-107132118D01*
X200940000Y-106832662D01*
X200940000Y-106527338D01*
X200880435Y-106227882D01*
X200763592Y-105945800D01*
X200593964Y-105691932D01*
X200378068Y-105476036D01*
X200124200Y-105306408D01*
X199842118Y-105189565D01*
X199542662Y-105130000D01*
X199237338Y-105130000D01*
X198937882Y-105189565D01*
X198655800Y-105306408D01*
X198401932Y-105476036D01*
X198186036Y-105691932D01*
X198016408Y-105945800D01*
X197899565Y-106227882D01*
X197840000Y-106527338D01*
X189401000Y-106527338D01*
X189401000Y-105713907D01*
X189422224Y-105699726D01*
X189519726Y-105602224D01*
X189596332Y-105487574D01*
X189649099Y-105360182D01*
X189676000Y-105224944D01*
X189676000Y-105087056D01*
X189649099Y-104951818D01*
X189596332Y-104824426D01*
X189519726Y-104709776D01*
X189422224Y-104612274D01*
X189307574Y-104535668D01*
X189180182Y-104482901D01*
X189044944Y-104456000D01*
X188907056Y-104456000D01*
X188771818Y-104482901D01*
X188644426Y-104535668D01*
X188529776Y-104612274D01*
X188432274Y-104709776D01*
X188355668Y-104824426D01*
X188302901Y-104951818D01*
X188276000Y-105087056D01*
X188276000Y-105224944D01*
X188302901Y-105360182D01*
X188355668Y-105487574D01*
X188432274Y-105602224D01*
X188529776Y-105699726D01*
X188551000Y-105713907D01*
X188551001Y-110059958D01*
X177623960Y-120987000D01*
X157021913Y-120987000D01*
X157007732Y-120965776D01*
X156910230Y-120868274D01*
X156795580Y-120791668D01*
X156668188Y-120738901D01*
X156532950Y-120712000D01*
X156395062Y-120712000D01*
X156259824Y-120738901D01*
X156132432Y-120791668D01*
X156017782Y-120868274D01*
X155920280Y-120965776D01*
X155843674Y-121080426D01*
X155790907Y-121207818D01*
X155764006Y-121343056D01*
X107435634Y-121343056D01*
X107535435Y-121102118D01*
X107595000Y-120802662D01*
X107595000Y-120497338D01*
X107560902Y-120325910D01*
X110909445Y-120325910D01*
X111023939Y-120533272D01*
X111272799Y-120673451D01*
X111544224Y-120762386D01*
X111827786Y-120796660D01*
X112112586Y-120774956D01*
X112387678Y-120698106D01*
X112642492Y-120569065D01*
X112696061Y-120533272D01*
X112810555Y-120325910D01*
X123409445Y-120325910D01*
X123523939Y-120533272D01*
X123772799Y-120673451D01*
X124044224Y-120762386D01*
X124327786Y-120796660D01*
X124612586Y-120774956D01*
X124887678Y-120698106D01*
X125142492Y-120569065D01*
X125196061Y-120533272D01*
X125310555Y-120325910D01*
X136309445Y-120325910D01*
X136423939Y-120533272D01*
X136672799Y-120673451D01*
X136944224Y-120762386D01*
X137227786Y-120796660D01*
X137512586Y-120774956D01*
X137787678Y-120698106D01*
X138042492Y-120569065D01*
X138096061Y-120533272D01*
X138210555Y-120325910D01*
X148809445Y-120325910D01*
X148923939Y-120533272D01*
X149172799Y-120673451D01*
X149444224Y-120762386D01*
X149727786Y-120796660D01*
X150012586Y-120774956D01*
X150287678Y-120698106D01*
X150542492Y-120569065D01*
X150596061Y-120533272D01*
X150710555Y-120325910D01*
X161709445Y-120325910D01*
X161823939Y-120533272D01*
X162072799Y-120673451D01*
X162344224Y-120762386D01*
X162627786Y-120796660D01*
X162912586Y-120774956D01*
X163187678Y-120698106D01*
X163442492Y-120569065D01*
X163496061Y-120533272D01*
X163610555Y-120325910D01*
X174209445Y-120325910D01*
X174323939Y-120533272D01*
X174572799Y-120673451D01*
X174844224Y-120762386D01*
X175127786Y-120796660D01*
X175412586Y-120774956D01*
X175687678Y-120698106D01*
X175942492Y-120569065D01*
X175996061Y-120533272D01*
X176110555Y-120325910D01*
X175160000Y-119375355D01*
X174209445Y-120325910D01*
X163610555Y-120325910D01*
X162660000Y-119375355D01*
X161709445Y-120325910D01*
X150710555Y-120325910D01*
X149760000Y-119375355D01*
X148809445Y-120325910D01*
X138210555Y-120325910D01*
X137260000Y-119375355D01*
X136309445Y-120325910D01*
X125310555Y-120325910D01*
X124360000Y-119375355D01*
X123409445Y-120325910D01*
X112810555Y-120325910D01*
X111860000Y-119375355D01*
X110909445Y-120325910D01*
X107560902Y-120325910D01*
X107535435Y-120197882D01*
X107418592Y-119915800D01*
X107248964Y-119661932D01*
X107033068Y-119446036D01*
X106826161Y-119307786D01*
X110403340Y-119307786D01*
X110425044Y-119592586D01*
X110501894Y-119867678D01*
X110630935Y-120122492D01*
X110666728Y-120176061D01*
X110874090Y-120290555D01*
X111824645Y-119340000D01*
X111895355Y-119340000D01*
X112845910Y-120290555D01*
X113053272Y-120176061D01*
X113193451Y-119927201D01*
X113282386Y-119655776D01*
X113316660Y-119372214D01*
X113311751Y-119307786D01*
X122903340Y-119307786D01*
X122925044Y-119592586D01*
X123001894Y-119867678D01*
X123130935Y-120122492D01*
X123166728Y-120176061D01*
X123374090Y-120290555D01*
X124324645Y-119340000D01*
X124395355Y-119340000D01*
X125345910Y-120290555D01*
X125553272Y-120176061D01*
X125693451Y-119927201D01*
X125782386Y-119655776D01*
X125816660Y-119372214D01*
X125811751Y-119307786D01*
X135803340Y-119307786D01*
X135825044Y-119592586D01*
X135901894Y-119867678D01*
X136030935Y-120122492D01*
X136066728Y-120176061D01*
X136274090Y-120290555D01*
X137224645Y-119340000D01*
X137295355Y-119340000D01*
X138245910Y-120290555D01*
X138453272Y-120176061D01*
X138593451Y-119927201D01*
X138682386Y-119655776D01*
X138716660Y-119372214D01*
X138711751Y-119307786D01*
X148303340Y-119307786D01*
X148325044Y-119592586D01*
X148401894Y-119867678D01*
X148530935Y-120122492D01*
X148566728Y-120176061D01*
X148774090Y-120290555D01*
X149724645Y-119340000D01*
X149795355Y-119340000D01*
X150745910Y-120290555D01*
X150953272Y-120176061D01*
X151093451Y-119927201D01*
X151182386Y-119655776D01*
X151216660Y-119372214D01*
X151211751Y-119307786D01*
X161203340Y-119307786D01*
X161225044Y-119592586D01*
X161301894Y-119867678D01*
X161430935Y-120122492D01*
X161466728Y-120176061D01*
X161674090Y-120290555D01*
X162624645Y-119340000D01*
X162695355Y-119340000D01*
X163645910Y-120290555D01*
X163853272Y-120176061D01*
X163993451Y-119927201D01*
X164082386Y-119655776D01*
X164116660Y-119372214D01*
X164111751Y-119307786D01*
X173703340Y-119307786D01*
X173725044Y-119592586D01*
X173801894Y-119867678D01*
X173930935Y-120122492D01*
X173966728Y-120176061D01*
X174174090Y-120290555D01*
X175124645Y-119340000D01*
X175195355Y-119340000D01*
X176145910Y-120290555D01*
X176353272Y-120176061D01*
X176493451Y-119927201D01*
X176582386Y-119655776D01*
X176616660Y-119372214D01*
X176594956Y-119087414D01*
X176518106Y-118812322D01*
X176389065Y-118557508D01*
X176353272Y-118503939D01*
X176145910Y-118389445D01*
X175195355Y-119340000D01*
X175124645Y-119340000D01*
X174174090Y-118389445D01*
X173966728Y-118503939D01*
X173826549Y-118752799D01*
X173737614Y-119024224D01*
X173703340Y-119307786D01*
X164111751Y-119307786D01*
X164094956Y-119087414D01*
X164018106Y-118812322D01*
X163889065Y-118557508D01*
X163853272Y-118503939D01*
X163645910Y-118389445D01*
X162695355Y-119340000D01*
X162624645Y-119340000D01*
X161674090Y-118389445D01*
X161466728Y-118503939D01*
X161326549Y-118752799D01*
X161237614Y-119024224D01*
X161203340Y-119307786D01*
X151211751Y-119307786D01*
X151194956Y-119087414D01*
X151118106Y-118812322D01*
X150989065Y-118557508D01*
X150953272Y-118503939D01*
X150745910Y-118389445D01*
X149795355Y-119340000D01*
X149724645Y-119340000D01*
X148774090Y-118389445D01*
X148566728Y-118503939D01*
X148426549Y-118752799D01*
X148337614Y-119024224D01*
X148303340Y-119307786D01*
X138711751Y-119307786D01*
X138694956Y-119087414D01*
X138618106Y-118812322D01*
X138489065Y-118557508D01*
X138453272Y-118503939D01*
X138245910Y-118389445D01*
X137295355Y-119340000D01*
X137224645Y-119340000D01*
X136274090Y-118389445D01*
X136066728Y-118503939D01*
X135926549Y-118752799D01*
X135837614Y-119024224D01*
X135803340Y-119307786D01*
X125811751Y-119307786D01*
X125794956Y-119087414D01*
X125718106Y-118812322D01*
X125589065Y-118557508D01*
X125553272Y-118503939D01*
X125345910Y-118389445D01*
X124395355Y-119340000D01*
X124324645Y-119340000D01*
X123374090Y-118389445D01*
X123166728Y-118503939D01*
X123026549Y-118752799D01*
X122937614Y-119024224D01*
X122903340Y-119307786D01*
X113311751Y-119307786D01*
X113294956Y-119087414D01*
X113218106Y-118812322D01*
X113089065Y-118557508D01*
X113053272Y-118503939D01*
X112845910Y-118389445D01*
X111895355Y-119340000D01*
X111824645Y-119340000D01*
X110874090Y-118389445D01*
X110666728Y-118503939D01*
X110526549Y-118752799D01*
X110437614Y-119024224D01*
X110403340Y-119307786D01*
X106826161Y-119307786D01*
X106779200Y-119276408D01*
X106497118Y-119159565D01*
X106197662Y-119100000D01*
X105892338Y-119100000D01*
X105592882Y-119159565D01*
X105310800Y-119276408D01*
X105056932Y-119446036D01*
X104841036Y-119661932D01*
X104671408Y-119915800D01*
X104554565Y-120197882D01*
X104495000Y-120497338D01*
X103245000Y-120497338D01*
X103245000Y-118354090D01*
X110909445Y-118354090D01*
X111860000Y-119304645D01*
X112810555Y-118354090D01*
X123409445Y-118354090D01*
X124360000Y-119304645D01*
X125310555Y-118354090D01*
X136309445Y-118354090D01*
X137260000Y-119304645D01*
X138210555Y-118354090D01*
X148809445Y-118354090D01*
X149760000Y-119304645D01*
X150710555Y-118354090D01*
X161709445Y-118354090D01*
X162660000Y-119304645D01*
X163610555Y-118354090D01*
X174209445Y-118354090D01*
X175160000Y-119304645D01*
X176110555Y-118354090D01*
X175996061Y-118146728D01*
X175747201Y-118006549D01*
X175475776Y-117917614D01*
X175192214Y-117883340D01*
X174907414Y-117905044D01*
X174632322Y-117981894D01*
X174377508Y-118110935D01*
X174323939Y-118146728D01*
X174209445Y-118354090D01*
X163610555Y-118354090D01*
X163496061Y-118146728D01*
X163247201Y-118006549D01*
X162975776Y-117917614D01*
X162692214Y-117883340D01*
X162407414Y-117905044D01*
X162132322Y-117981894D01*
X161877508Y-118110935D01*
X161823939Y-118146728D01*
X161709445Y-118354090D01*
X150710555Y-118354090D01*
X150596061Y-118146728D01*
X150347201Y-118006549D01*
X150075776Y-117917614D01*
X149792214Y-117883340D01*
X149507414Y-117905044D01*
X149232322Y-117981894D01*
X148977508Y-118110935D01*
X148923939Y-118146728D01*
X148809445Y-118354090D01*
X138210555Y-118354090D01*
X138096061Y-118146728D01*
X137847201Y-118006549D01*
X137575776Y-117917614D01*
X137292214Y-117883340D01*
X137007414Y-117905044D01*
X136732322Y-117981894D01*
X136477508Y-118110935D01*
X136423939Y-118146728D01*
X136309445Y-118354090D01*
X125310555Y-118354090D01*
X125196061Y-118146728D01*
X124947201Y-118006549D01*
X124675776Y-117917614D01*
X124392214Y-117883340D01*
X124107414Y-117905044D01*
X123832322Y-117981894D01*
X123577508Y-118110935D01*
X123523939Y-118146728D01*
X123409445Y-118354090D01*
X112810555Y-118354090D01*
X112696061Y-118146728D01*
X112447201Y-118006549D01*
X112175776Y-117917614D01*
X111892214Y-117883340D01*
X111607414Y-117905044D01*
X111332322Y-117981894D01*
X111077508Y-118110935D01*
X111023939Y-118146728D01*
X110909445Y-118354090D01*
X103245000Y-118354090D01*
X103245000Y-114202112D01*
X110460000Y-114202112D01*
X110460000Y-114477888D01*
X110513801Y-114748365D01*
X110619336Y-115003149D01*
X110772549Y-115232448D01*
X110967552Y-115427451D01*
X111196851Y-115580664D01*
X111451635Y-115686199D01*
X111722112Y-115740000D01*
X111997888Y-115740000D01*
X112268365Y-115686199D01*
X112523149Y-115580664D01*
X112752448Y-115427451D01*
X112947451Y-115232448D01*
X113100664Y-115003149D01*
X113206199Y-114748365D01*
X113260000Y-114477888D01*
X113260000Y-114202112D01*
X122960000Y-114202112D01*
X122960000Y-114477888D01*
X123013801Y-114748365D01*
X123119336Y-115003149D01*
X123272549Y-115232448D01*
X123467552Y-115427451D01*
X123696851Y-115580664D01*
X123951635Y-115686199D01*
X124222112Y-115740000D01*
X124497888Y-115740000D01*
X124768365Y-115686199D01*
X125023149Y-115580664D01*
X125252448Y-115427451D01*
X125447451Y-115232448D01*
X125600664Y-115003149D01*
X125706199Y-114748365D01*
X125760000Y-114477888D01*
X125760000Y-114202112D01*
X135860000Y-114202112D01*
X135860000Y-114477888D01*
X135913801Y-114748365D01*
X136019336Y-115003149D01*
X136172549Y-115232448D01*
X136367552Y-115427451D01*
X136596851Y-115580664D01*
X136851635Y-115686199D01*
X137122112Y-115740000D01*
X137397888Y-115740000D01*
X137668365Y-115686199D01*
X137923149Y-115580664D01*
X138152448Y-115427451D01*
X138347451Y-115232448D01*
X138500664Y-115003149D01*
X138606199Y-114748365D01*
X138660000Y-114477888D01*
X138660000Y-114202112D01*
X148360000Y-114202112D01*
X148360000Y-114477888D01*
X148413801Y-114748365D01*
X148519336Y-115003149D01*
X148672549Y-115232448D01*
X148867552Y-115427451D01*
X149096851Y-115580664D01*
X149351635Y-115686199D01*
X149622112Y-115740000D01*
X149897888Y-115740000D01*
X150168365Y-115686199D01*
X150423149Y-115580664D01*
X150652448Y-115427451D01*
X150847451Y-115232448D01*
X151000664Y-115003149D01*
X151106199Y-114748365D01*
X151160000Y-114477888D01*
X151160000Y-114202112D01*
X161260000Y-114202112D01*
X161260000Y-114477888D01*
X161313801Y-114748365D01*
X161419336Y-115003149D01*
X161572549Y-115232448D01*
X161767552Y-115427451D01*
X161996851Y-115580664D01*
X162251635Y-115686199D01*
X162522112Y-115740000D01*
X162797888Y-115740000D01*
X163068365Y-115686199D01*
X163323149Y-115580664D01*
X163552448Y-115427451D01*
X163747451Y-115232448D01*
X163900664Y-115003149D01*
X164006199Y-114748365D01*
X164060000Y-114477888D01*
X164060000Y-114202112D01*
X173760000Y-114202112D01*
X173760000Y-114477888D01*
X173813801Y-114748365D01*
X173919336Y-115003149D01*
X174072549Y-115232448D01*
X174267552Y-115427451D01*
X174496851Y-115580664D01*
X174751635Y-115686199D01*
X175022112Y-115740000D01*
X175297888Y-115740000D01*
X175568365Y-115686199D01*
X175823149Y-115580664D01*
X176052448Y-115427451D01*
X176247451Y-115232448D01*
X176400664Y-115003149D01*
X176506199Y-114748365D01*
X176560000Y-114477888D01*
X176560000Y-114231056D01*
X177735000Y-114231056D01*
X177735000Y-114368944D01*
X177761901Y-114504182D01*
X177814668Y-114631574D01*
X177891274Y-114746224D01*
X177988776Y-114843726D01*
X178010000Y-114857907D01*
X178010001Y-117357091D01*
X177988776Y-117371273D01*
X177891274Y-117468775D01*
X177814668Y-117583425D01*
X177761901Y-117710817D01*
X177735000Y-117846055D01*
X177735000Y-117983943D01*
X177761901Y-118119181D01*
X177814668Y-118246573D01*
X177891274Y-118361223D01*
X177988776Y-118458725D01*
X178103426Y-118535331D01*
X178230818Y-118588098D01*
X178366056Y-118614999D01*
X178503944Y-118614999D01*
X178639182Y-118588098D01*
X178766574Y-118535331D01*
X178881224Y-118458725D01*
X178978726Y-118361223D01*
X179055332Y-118246573D01*
X179108099Y-118119181D01*
X179135000Y-117983943D01*
X179135000Y-117846055D01*
X179108099Y-117710817D01*
X179055332Y-117583425D01*
X178978726Y-117468775D01*
X178881224Y-117371273D01*
X178860000Y-117357092D01*
X178860000Y-116771056D01*
X179005000Y-116771056D01*
X179005000Y-116908944D01*
X179031901Y-117044182D01*
X179084668Y-117171574D01*
X179161274Y-117286224D01*
X179258776Y-117383726D01*
X179373426Y-117460332D01*
X179500818Y-117513099D01*
X179636056Y-117540000D01*
X179773944Y-117540000D01*
X179909182Y-117513099D01*
X180036574Y-117460332D01*
X180151224Y-117383726D01*
X180248726Y-117286224D01*
X180325332Y-117171574D01*
X180378099Y-117044182D01*
X180405000Y-116908944D01*
X180405000Y-116771056D01*
X180378099Y-116635818D01*
X180325332Y-116508426D01*
X180248726Y-116393776D01*
X180151224Y-116296274D01*
X180130000Y-116282093D01*
X180130000Y-115111040D01*
X180246020Y-114995020D01*
X180271056Y-115000000D01*
X180408944Y-115000000D01*
X180544182Y-114973099D01*
X180671574Y-114920332D01*
X180786224Y-114843726D01*
X180883726Y-114746224D01*
X180960332Y-114631574D01*
X181013099Y-114504182D01*
X181040000Y-114368944D01*
X181040000Y-114231056D01*
X181013099Y-114095818D01*
X180960332Y-113968426D01*
X180883726Y-113853776D01*
X180786224Y-113756274D01*
X180671574Y-113679668D01*
X180544182Y-113626901D01*
X180408944Y-113600000D01*
X180271056Y-113600000D01*
X180135818Y-113626901D01*
X180008426Y-113679668D01*
X179893776Y-113756274D01*
X179796274Y-113853776D01*
X179719668Y-113968426D01*
X179666901Y-114095818D01*
X179640000Y-114231056D01*
X179640000Y-114368944D01*
X179644980Y-114393980D01*
X179419239Y-114619721D01*
X179403027Y-114633026D01*
X179349917Y-114697740D01*
X179324002Y-114746224D01*
X179310453Y-114771573D01*
X179286150Y-114851686D01*
X179277945Y-114935000D01*
X179280001Y-114955877D01*
X179280000Y-116282093D01*
X179258776Y-116296274D01*
X179161274Y-116393776D01*
X179084668Y-116508426D01*
X179031901Y-116635818D01*
X179005000Y-116771056D01*
X178860000Y-116771056D01*
X178860000Y-114857907D01*
X178881224Y-114843726D01*
X178978726Y-114746224D01*
X179055332Y-114631574D01*
X179108099Y-114504182D01*
X179135000Y-114368944D01*
X179135000Y-114231056D01*
X179108099Y-114095818D01*
X179055332Y-113968426D01*
X178978726Y-113853776D01*
X178881224Y-113756274D01*
X178766574Y-113679668D01*
X178639182Y-113626901D01*
X178503944Y-113600000D01*
X178366056Y-113600000D01*
X178230818Y-113626901D01*
X178103426Y-113679668D01*
X177988776Y-113756274D01*
X177891274Y-113853776D01*
X177814668Y-113968426D01*
X177761901Y-114095818D01*
X177735000Y-114231056D01*
X176560000Y-114231056D01*
X176560000Y-114202112D01*
X176506199Y-113931635D01*
X176400664Y-113676851D01*
X176247451Y-113447552D01*
X176052448Y-113252549D01*
X175823149Y-113099336D01*
X175568365Y-112993801D01*
X175297888Y-112940000D01*
X175022112Y-112940000D01*
X174751635Y-112993801D01*
X174496851Y-113099336D01*
X174267552Y-113252549D01*
X174072549Y-113447552D01*
X173919336Y-113676851D01*
X173813801Y-113931635D01*
X173760000Y-114202112D01*
X164060000Y-114202112D01*
X164006199Y-113931635D01*
X163900664Y-113676851D01*
X163747451Y-113447552D01*
X163552448Y-113252549D01*
X163323149Y-113099336D01*
X163068365Y-112993801D01*
X162797888Y-112940000D01*
X162522112Y-112940000D01*
X162251635Y-112993801D01*
X161996851Y-113099336D01*
X161767552Y-113252549D01*
X161572549Y-113447552D01*
X161419336Y-113676851D01*
X161313801Y-113931635D01*
X161260000Y-114202112D01*
X151160000Y-114202112D01*
X151106199Y-113931635D01*
X151000664Y-113676851D01*
X150847451Y-113447552D01*
X150652448Y-113252549D01*
X150423149Y-113099336D01*
X150168365Y-112993801D01*
X149897888Y-112940000D01*
X149622112Y-112940000D01*
X149351635Y-112993801D01*
X149096851Y-113099336D01*
X148867552Y-113252549D01*
X148672549Y-113447552D01*
X148519336Y-113676851D01*
X148413801Y-113931635D01*
X148360000Y-114202112D01*
X138660000Y-114202112D01*
X138606199Y-113931635D01*
X138500664Y-113676851D01*
X138347451Y-113447552D01*
X138152448Y-113252549D01*
X137923149Y-113099336D01*
X137668365Y-112993801D01*
X137397888Y-112940000D01*
X137122112Y-112940000D01*
X136851635Y-112993801D01*
X136596851Y-113099336D01*
X136367552Y-113252549D01*
X136172549Y-113447552D01*
X136019336Y-113676851D01*
X135913801Y-113931635D01*
X135860000Y-114202112D01*
X125760000Y-114202112D01*
X125706199Y-113931635D01*
X125600664Y-113676851D01*
X125447451Y-113447552D01*
X125252448Y-113252549D01*
X125023149Y-113099336D01*
X124768365Y-112993801D01*
X124497888Y-112940000D01*
X124222112Y-112940000D01*
X123951635Y-112993801D01*
X123696851Y-113099336D01*
X123467552Y-113252549D01*
X123272549Y-113447552D01*
X123119336Y-113676851D01*
X123013801Y-113931635D01*
X122960000Y-114202112D01*
X113260000Y-114202112D01*
X113206199Y-113931635D01*
X113100664Y-113676851D01*
X112947451Y-113447552D01*
X112752448Y-113252549D01*
X112523149Y-113099336D01*
X112268365Y-112993801D01*
X111997888Y-112940000D01*
X111722112Y-112940000D01*
X111451635Y-112993801D01*
X111196851Y-113099336D01*
X110967552Y-113252549D01*
X110772549Y-113447552D01*
X110619336Y-113676851D01*
X110513801Y-113931635D01*
X110460000Y-114202112D01*
X103245000Y-114202112D01*
X103245000Y-111972373D01*
X103974942Y-111972373D01*
X103983573Y-112015764D01*
X104055998Y-112239579D01*
X104170696Y-112444964D01*
X104323258Y-112624026D01*
X104507822Y-112769884D01*
X104717295Y-112876933D01*
X104943627Y-112941059D01*
X105131000Y-112872241D01*
X105131000Y-111785000D01*
X105181000Y-111785000D01*
X105181000Y-112872241D01*
X105368373Y-112941059D01*
X105594705Y-112876933D01*
X105804178Y-112769884D01*
X105988742Y-112624026D01*
X106141304Y-112444964D01*
X106256002Y-112239579D01*
X106328427Y-112015764D01*
X106337058Y-111972373D01*
X106268219Y-111785000D01*
X105181000Y-111785000D01*
X105131000Y-111785000D01*
X104043781Y-111785000D01*
X103974942Y-111972373D01*
X103245000Y-111972373D01*
X103245000Y-111547627D01*
X103974942Y-111547627D01*
X104043781Y-111735000D01*
X105131000Y-111735000D01*
X105131000Y-110647759D01*
X105181000Y-110647759D01*
X105181000Y-111735000D01*
X106268219Y-111735000D01*
X106337058Y-111547627D01*
X106328427Y-111504236D01*
X106256002Y-111280421D01*
X106141304Y-111075036D01*
X105988742Y-110895974D01*
X105804178Y-110750116D01*
X105594705Y-110643067D01*
X105368373Y-110578941D01*
X105181000Y-110647759D01*
X105131000Y-110647759D01*
X104943627Y-110578941D01*
X104717295Y-110643067D01*
X104507822Y-110750116D01*
X104323258Y-110895974D01*
X104170696Y-111075036D01*
X104055998Y-111280421D01*
X103983573Y-111504236D01*
X103974942Y-111547627D01*
X103245000Y-111547627D01*
X103245000Y-109220000D01*
X104000436Y-109220000D01*
X104022640Y-109445439D01*
X104088398Y-109662215D01*
X104195184Y-109861997D01*
X104338893Y-110037107D01*
X104514003Y-110180816D01*
X104713785Y-110287602D01*
X104930561Y-110353360D01*
X105099508Y-110370000D01*
X105212492Y-110370000D01*
X105381439Y-110353360D01*
X105598215Y-110287602D01*
X105797997Y-110180816D01*
X105973107Y-110037107D01*
X106116816Y-109861997D01*
X106223602Y-109662215D01*
X106289360Y-109445439D01*
X106311564Y-109220000D01*
X106289360Y-108994561D01*
X106223602Y-108777785D01*
X106116816Y-108578003D01*
X105973107Y-108402893D01*
X105797997Y-108259184D01*
X105598215Y-108152398D01*
X105381439Y-108086640D01*
X105212492Y-108070000D01*
X105099508Y-108070000D01*
X104930561Y-108086640D01*
X104713785Y-108152398D01*
X104514003Y-108259184D01*
X104338893Y-108402893D01*
X104195184Y-108578003D01*
X104088398Y-108777785D01*
X104022640Y-108994561D01*
X104000436Y-109220000D01*
X103245000Y-109220000D01*
X103245000Y-106680000D01*
X104000436Y-106680000D01*
X104022640Y-106905439D01*
X104088398Y-107122215D01*
X104195184Y-107321997D01*
X104338893Y-107497107D01*
X104514003Y-107640816D01*
X104713785Y-107747602D01*
X104930561Y-107813360D01*
X105099508Y-107830000D01*
X105212492Y-107830000D01*
X105381439Y-107813360D01*
X105598215Y-107747602D01*
X105797997Y-107640816D01*
X105973107Y-107497107D01*
X106116816Y-107321997D01*
X106223602Y-107122215D01*
X106289360Y-106905439D01*
X106311564Y-106680000D01*
X106289360Y-106454561D01*
X106223602Y-106237785D01*
X106116816Y-106038003D01*
X105973107Y-105862893D01*
X105797997Y-105719184D01*
X105598215Y-105612398D01*
X105381439Y-105546640D01*
X105212492Y-105530000D01*
X105099508Y-105530000D01*
X104930561Y-105546640D01*
X104713785Y-105612398D01*
X104514003Y-105719184D01*
X104338893Y-105862893D01*
X104195184Y-106038003D01*
X104088398Y-106237785D01*
X104022640Y-106454561D01*
X104000436Y-106680000D01*
X103245000Y-106680000D01*
X103245000Y-104140000D01*
X104000436Y-104140000D01*
X104022640Y-104365439D01*
X104088398Y-104582215D01*
X104195184Y-104781997D01*
X104338893Y-104957107D01*
X104514003Y-105100816D01*
X104713785Y-105207602D01*
X104930561Y-105273360D01*
X105099508Y-105290000D01*
X105212492Y-105290000D01*
X105381439Y-105273360D01*
X105598215Y-105207602D01*
X105797997Y-105100816D01*
X105973107Y-104957107D01*
X106116816Y-104781997D01*
X106223602Y-104582215D01*
X106289360Y-104365439D01*
X106311564Y-104140000D01*
X106304774Y-104071056D01*
X109155000Y-104071056D01*
X109155000Y-104208944D01*
X109181901Y-104344182D01*
X109234668Y-104471574D01*
X109311274Y-104586224D01*
X109408776Y-104683726D01*
X109430000Y-104697907D01*
X109430001Y-109932092D01*
X109408776Y-109946274D01*
X109311274Y-110043776D01*
X109234668Y-110158426D01*
X109181901Y-110285818D01*
X109155000Y-110421056D01*
X109155000Y-110558944D01*
X109181901Y-110694182D01*
X109234668Y-110821574D01*
X109311274Y-110936224D01*
X109408776Y-111033726D01*
X109523426Y-111110332D01*
X109650818Y-111163099D01*
X109786056Y-111190000D01*
X109923944Y-111190000D01*
X110059182Y-111163099D01*
X110186574Y-111110332D01*
X110301224Y-111033726D01*
X110398726Y-110936224D01*
X110475332Y-110821574D01*
X110528099Y-110694182D01*
X110555000Y-110558944D01*
X110555000Y-110421056D01*
X110528099Y-110285818D01*
X110475332Y-110158426D01*
X110398726Y-110043776D01*
X110301224Y-109946274D01*
X110280000Y-109932093D01*
X110280000Y-104697907D01*
X110301224Y-104683726D01*
X110398726Y-104586224D01*
X110475332Y-104471574D01*
X110528099Y-104344182D01*
X110555000Y-104208944D01*
X110555000Y-104071056D01*
X110528099Y-103935818D01*
X110475332Y-103808426D01*
X110398726Y-103693776D01*
X110301224Y-103596274D01*
X110186574Y-103519668D01*
X110059182Y-103466901D01*
X109923944Y-103440000D01*
X109786056Y-103440000D01*
X109650818Y-103466901D01*
X109523426Y-103519668D01*
X109408776Y-103596274D01*
X109311274Y-103693776D01*
X109234668Y-103808426D01*
X109181901Y-103935818D01*
X109155000Y-104071056D01*
X106304774Y-104071056D01*
X106289360Y-103914561D01*
X106223602Y-103697785D01*
X106116816Y-103498003D01*
X105973107Y-103322893D01*
X105797997Y-103179184D01*
X105598215Y-103072398D01*
X105381439Y-103006640D01*
X105212492Y-102990000D01*
X105099508Y-102990000D01*
X104930561Y-103006640D01*
X104713785Y-103072398D01*
X104514003Y-103179184D01*
X104338893Y-103322893D01*
X104195184Y-103498003D01*
X104088398Y-103697785D01*
X104022640Y-103914561D01*
X104000436Y-104140000D01*
X103245000Y-104140000D01*
X103245000Y-101600000D01*
X104000436Y-101600000D01*
X104022640Y-101825439D01*
X104088398Y-102042215D01*
X104195184Y-102241997D01*
X104338893Y-102417107D01*
X104514003Y-102560816D01*
X104713785Y-102667602D01*
X104930561Y-102733360D01*
X105099508Y-102750000D01*
X105212492Y-102750000D01*
X105381439Y-102733360D01*
X105598215Y-102667602D01*
X105797997Y-102560816D01*
X105973107Y-102417107D01*
X106116816Y-102241997D01*
X106223602Y-102042215D01*
X106228824Y-102025000D01*
X109043960Y-102025000D01*
X118048719Y-111029760D01*
X118062026Y-111045974D01*
X118126740Y-111099084D01*
X118174855Y-111124801D01*
X118200572Y-111138548D01*
X118280685Y-111162850D01*
X118288327Y-111163603D01*
X118343126Y-111169000D01*
X118343133Y-111169000D01*
X118364000Y-111171055D01*
X118384867Y-111169000D01*
X123902093Y-111169000D01*
X123916274Y-111190224D01*
X124013776Y-111287726D01*
X124128426Y-111364332D01*
X124255818Y-111417099D01*
X124391056Y-111444000D01*
X124528944Y-111444000D01*
X124553980Y-111439020D01*
X125668721Y-112553762D01*
X125682026Y-112569974D01*
X125746740Y-112623084D01*
X125820573Y-112662548D01*
X125876383Y-112679478D01*
X125900685Y-112686850D01*
X125909098Y-112687679D01*
X125963126Y-112693000D01*
X125963132Y-112693000D01*
X125983999Y-112695055D01*
X126004866Y-112693000D01*
X172699133Y-112693000D01*
X172720000Y-112695055D01*
X172740867Y-112693000D01*
X172740874Y-112693000D01*
X172803314Y-112686850D01*
X172883427Y-112662548D01*
X172957260Y-112623084D01*
X173021974Y-112569974D01*
X173035284Y-112553756D01*
X174244020Y-111345020D01*
X174269056Y-111350000D01*
X174406944Y-111350000D01*
X174542182Y-111323099D01*
X174669574Y-111270332D01*
X174784224Y-111193726D01*
X174881726Y-111096224D01*
X174958332Y-110981574D01*
X175011099Y-110854182D01*
X175038000Y-110718944D01*
X175038000Y-110581056D01*
X175011099Y-110445818D01*
X174958332Y-110318426D01*
X174881726Y-110203776D01*
X174784224Y-110106274D01*
X174669574Y-110029668D01*
X174542182Y-109976901D01*
X174406944Y-109950000D01*
X174269056Y-109950000D01*
X174133818Y-109976901D01*
X174006426Y-110029668D01*
X173891776Y-110106274D01*
X173794274Y-110203776D01*
X173717668Y-110318426D01*
X173664901Y-110445818D01*
X173638000Y-110581056D01*
X173638000Y-110718944D01*
X173642980Y-110743980D01*
X172543960Y-111843000D01*
X126160041Y-111843000D01*
X125155020Y-110837980D01*
X125160000Y-110812944D01*
X125160000Y-110675056D01*
X125133099Y-110539818D01*
X125080332Y-110412426D01*
X125003726Y-110297776D01*
X124906224Y-110200274D01*
X124791574Y-110123668D01*
X124664182Y-110070901D01*
X124528944Y-110044000D01*
X124391056Y-110044000D01*
X124255818Y-110070901D01*
X124128426Y-110123668D01*
X124013776Y-110200274D01*
X123916274Y-110297776D01*
X123902093Y-110319000D01*
X118540041Y-110319000D01*
X117372097Y-109151056D01*
X124268000Y-109151056D01*
X124268000Y-109288944D01*
X124294901Y-109424182D01*
X124347668Y-109551574D01*
X124424274Y-109666224D01*
X124521776Y-109763726D01*
X124636426Y-109840332D01*
X124763818Y-109893099D01*
X124899056Y-109920000D01*
X125036944Y-109920000D01*
X125061980Y-109915020D01*
X126176719Y-111029760D01*
X126190026Y-111045974D01*
X126254740Y-111099084D01*
X126328573Y-111138548D01*
X126384383Y-111155478D01*
X126408685Y-111162850D01*
X126417098Y-111163679D01*
X126471126Y-111169000D01*
X126471132Y-111169000D01*
X126491999Y-111171055D01*
X126512866Y-111169000D01*
X172191133Y-111169000D01*
X172212000Y-111171055D01*
X172232867Y-111169000D01*
X172232874Y-111169000D01*
X172295314Y-111162850D01*
X172375427Y-111138548D01*
X172449260Y-111099084D01*
X172513974Y-111045974D01*
X172527283Y-111029757D01*
X174150021Y-109407020D01*
X174175056Y-109412000D01*
X174312944Y-109412000D01*
X174448182Y-109385099D01*
X174575574Y-109332332D01*
X174690224Y-109255726D01*
X174787726Y-109158224D01*
X174864332Y-109043574D01*
X174917099Y-108916182D01*
X174944000Y-108780944D01*
X174944000Y-108643056D01*
X174917099Y-108507818D01*
X174864332Y-108380426D01*
X174787726Y-108265776D01*
X174690224Y-108168274D01*
X174575574Y-108091668D01*
X174448182Y-108038901D01*
X174312944Y-108012000D01*
X174175056Y-108012000D01*
X174039818Y-108038901D01*
X173961841Y-108071200D01*
X174150021Y-107883020D01*
X174175056Y-107888000D01*
X174312944Y-107888000D01*
X174448182Y-107861099D01*
X174575574Y-107808332D01*
X174690224Y-107731726D01*
X174787726Y-107634224D01*
X174864332Y-107519574D01*
X174917099Y-107392182D01*
X174944000Y-107256944D01*
X174944000Y-107119056D01*
X174917099Y-106983818D01*
X174864332Y-106856426D01*
X174787726Y-106741776D01*
X174690224Y-106644274D01*
X174575574Y-106567668D01*
X174448182Y-106514901D01*
X174312944Y-106488000D01*
X174175056Y-106488000D01*
X174039818Y-106514901D01*
X173912426Y-106567668D01*
X173797776Y-106644274D01*
X173700274Y-106741776D01*
X173623668Y-106856426D01*
X173570901Y-106983818D01*
X173544000Y-107119056D01*
X173544000Y-107256944D01*
X173548980Y-107281979D01*
X172035960Y-108795000D01*
X132963491Y-108795000D01*
X133034224Y-108747738D01*
X133131726Y-108650236D01*
X133208332Y-108535586D01*
X133261099Y-108408194D01*
X133288000Y-108272956D01*
X133288000Y-108135068D01*
X133283020Y-108110033D01*
X133303279Y-108089774D01*
X133303284Y-108089768D01*
X135576996Y-105816056D01*
X151446000Y-105816056D01*
X151446000Y-105953944D01*
X151472901Y-106089182D01*
X151525668Y-106216574D01*
X151602274Y-106331224D01*
X151699776Y-106428726D01*
X151814426Y-106505332D01*
X151941818Y-106558099D01*
X152077056Y-106585000D01*
X152214944Y-106585000D01*
X152350182Y-106558099D01*
X152424446Y-106527338D01*
X164820000Y-106527338D01*
X164820000Y-106832662D01*
X164879565Y-107132118D01*
X164996408Y-107414200D01*
X165166036Y-107668068D01*
X165381932Y-107883964D01*
X165635800Y-108053592D01*
X165917882Y-108170435D01*
X166217338Y-108230000D01*
X166522662Y-108230000D01*
X166822118Y-108170435D01*
X167104200Y-108053592D01*
X167358068Y-107883964D01*
X167573964Y-107668068D01*
X167743592Y-107414200D01*
X167860435Y-107132118D01*
X167920000Y-106832662D01*
X167920000Y-106527338D01*
X167860435Y-106227882D01*
X167743592Y-105945800D01*
X167573964Y-105691932D01*
X167358068Y-105476036D01*
X167104200Y-105306408D01*
X166822118Y-105189565D01*
X166522662Y-105130000D01*
X166217338Y-105130000D01*
X165917882Y-105189565D01*
X165635800Y-105306408D01*
X165381932Y-105476036D01*
X165166036Y-105691932D01*
X164996408Y-105945800D01*
X164879565Y-106227882D01*
X164820000Y-106527338D01*
X152424446Y-106527338D01*
X152477574Y-106505332D01*
X152592224Y-106428726D01*
X152689726Y-106331224D01*
X152703099Y-106311209D01*
X152711685Y-106312055D01*
X152732552Y-106310000D01*
X152732559Y-106310000D01*
X152794999Y-106303850D01*
X152875112Y-106279548D01*
X152948945Y-106240084D01*
X153013659Y-106186974D01*
X153026968Y-106170757D01*
X155394726Y-103803000D01*
X184862093Y-103803000D01*
X184876274Y-103824224D01*
X184973776Y-103921726D01*
X185088426Y-103998332D01*
X185215818Y-104051099D01*
X185351056Y-104078000D01*
X185488944Y-104078000D01*
X185624182Y-104051099D01*
X185751574Y-103998332D01*
X185866224Y-103921726D01*
X185963726Y-103824224D01*
X186040332Y-103709574D01*
X186093099Y-103582182D01*
X186120000Y-103446944D01*
X186120000Y-103309056D01*
X186093099Y-103173818D01*
X186040332Y-103046426D01*
X185963726Y-102931776D01*
X185866224Y-102834274D01*
X185751574Y-102757668D01*
X185624182Y-102704901D01*
X185488944Y-102678000D01*
X185351056Y-102678000D01*
X185215818Y-102704901D01*
X185088426Y-102757668D01*
X184973776Y-102834274D01*
X184876274Y-102931776D01*
X184862093Y-102953000D01*
X155239551Y-102953000D01*
X155218684Y-102950945D01*
X155197817Y-102953000D01*
X155197811Y-102953000D01*
X155143783Y-102958321D01*
X155135370Y-102959150D01*
X155111068Y-102966522D01*
X155055258Y-102983452D01*
X154981425Y-103022916D01*
X154916711Y-103076026D01*
X154903406Y-103092238D01*
X152623297Y-105372347D01*
X152592224Y-105341274D01*
X152477574Y-105264668D01*
X152350182Y-105211901D01*
X152214944Y-105185000D01*
X152077056Y-105185000D01*
X151941818Y-105211901D01*
X151814426Y-105264668D01*
X151699776Y-105341274D01*
X151602274Y-105438776D01*
X151525668Y-105553426D01*
X151472901Y-105680818D01*
X151446000Y-105816056D01*
X135576996Y-105816056D01*
X139810000Y-101583052D01*
X139810000Y-101718190D01*
X139856116Y-101950027D01*
X139946574Y-102168413D01*
X140077899Y-102364955D01*
X140245045Y-102532101D01*
X140441587Y-102663426D01*
X140659973Y-102753884D01*
X140891810Y-102800000D01*
X141128190Y-102800000D01*
X141360027Y-102753884D01*
X141578413Y-102663426D01*
X141774955Y-102532101D01*
X141863279Y-102443777D01*
X142701578Y-102443777D01*
X142792085Y-102630657D01*
X143006951Y-102750912D01*
X143241149Y-102826937D01*
X143485678Y-102855812D01*
X143731143Y-102836426D01*
X143968108Y-102769526D01*
X144187469Y-102657680D01*
X144227915Y-102630657D01*
X144318422Y-102443777D01*
X143510000Y-101635355D01*
X142701578Y-102443777D01*
X141863279Y-102443777D01*
X141942101Y-102364955D01*
X142073426Y-102168413D01*
X142163884Y-101950027D01*
X142210000Y-101718190D01*
X142210000Y-101575678D01*
X142254188Y-101575678D01*
X142273574Y-101821143D01*
X142340474Y-102058108D01*
X142452320Y-102277469D01*
X142479343Y-102317915D01*
X142666223Y-102408422D01*
X143474645Y-101600000D01*
X143545355Y-101600000D01*
X144353777Y-102408422D01*
X144540657Y-102317915D01*
X144660912Y-102103049D01*
X144736937Y-101868851D01*
X144765812Y-101624322D01*
X144754557Y-101481810D01*
X144810000Y-101481810D01*
X144810000Y-101718190D01*
X144856116Y-101950027D01*
X144946574Y-102168413D01*
X145077899Y-102364955D01*
X145245045Y-102532101D01*
X145441587Y-102663426D01*
X145659973Y-102753884D01*
X145891810Y-102800000D01*
X146128190Y-102800000D01*
X146360027Y-102753884D01*
X146578413Y-102663426D01*
X146774955Y-102532101D01*
X146942101Y-102364955D01*
X147073426Y-102168413D01*
X147163884Y-101950027D01*
X147210000Y-101718190D01*
X147210000Y-101481810D01*
X165210000Y-101481810D01*
X165210000Y-101718190D01*
X165256116Y-101950027D01*
X165346574Y-102168413D01*
X165477899Y-102364955D01*
X165645045Y-102532101D01*
X165841587Y-102663426D01*
X166059973Y-102753884D01*
X166291810Y-102800000D01*
X166528190Y-102800000D01*
X166760027Y-102753884D01*
X166978413Y-102663426D01*
X167174955Y-102532101D01*
X167263279Y-102443777D01*
X168101578Y-102443777D01*
X168192085Y-102630657D01*
X168406951Y-102750912D01*
X168641149Y-102826937D01*
X168885678Y-102855812D01*
X169131143Y-102836426D01*
X169368108Y-102769526D01*
X169587469Y-102657680D01*
X169627915Y-102630657D01*
X169718422Y-102443777D01*
X168910000Y-101635355D01*
X168101578Y-102443777D01*
X167263279Y-102443777D01*
X167342101Y-102364955D01*
X167473426Y-102168413D01*
X167563884Y-101950027D01*
X167610000Y-101718190D01*
X167610000Y-101575678D01*
X167654188Y-101575678D01*
X167673574Y-101821143D01*
X167740474Y-102058108D01*
X167852320Y-102277469D01*
X167879343Y-102317915D01*
X168066223Y-102408422D01*
X168874645Y-101600000D01*
X168945355Y-101600000D01*
X169753777Y-102408422D01*
X169940657Y-102317915D01*
X170060912Y-102103049D01*
X170136937Y-101868851D01*
X170165812Y-101624322D01*
X170154557Y-101481810D01*
X170210000Y-101481810D01*
X170210000Y-101718190D01*
X170256116Y-101950027D01*
X170346574Y-102168413D01*
X170477899Y-102364955D01*
X170645045Y-102532101D01*
X170841587Y-102663426D01*
X171059973Y-102753884D01*
X171291810Y-102800000D01*
X171528190Y-102800000D01*
X171760027Y-102753884D01*
X171978413Y-102663426D01*
X172174955Y-102532101D01*
X172342101Y-102364955D01*
X172473426Y-102168413D01*
X172563884Y-101950027D01*
X172610000Y-101718190D01*
X172610000Y-101481810D01*
X190610000Y-101481810D01*
X190610000Y-101718190D01*
X190656116Y-101950027D01*
X190746574Y-102168413D01*
X190877899Y-102364955D01*
X191045045Y-102532101D01*
X191241587Y-102663426D01*
X191459973Y-102753884D01*
X191691810Y-102800000D01*
X191928190Y-102800000D01*
X192160027Y-102753884D01*
X192378413Y-102663426D01*
X192574955Y-102532101D01*
X192663279Y-102443777D01*
X193501578Y-102443777D01*
X193592085Y-102630657D01*
X193806951Y-102750912D01*
X194041149Y-102826937D01*
X194285678Y-102855812D01*
X194531143Y-102836426D01*
X194768108Y-102769526D01*
X194987469Y-102657680D01*
X195027915Y-102630657D01*
X195118422Y-102443777D01*
X194310000Y-101635355D01*
X193501578Y-102443777D01*
X192663279Y-102443777D01*
X192742101Y-102364955D01*
X192873426Y-102168413D01*
X192963884Y-101950027D01*
X193010000Y-101718190D01*
X193010000Y-101575678D01*
X193054188Y-101575678D01*
X193073574Y-101821143D01*
X193140474Y-102058108D01*
X193252320Y-102277469D01*
X193279343Y-102317915D01*
X193466223Y-102408422D01*
X194274645Y-101600000D01*
X194345355Y-101600000D01*
X195153777Y-102408422D01*
X195340657Y-102317915D01*
X195460912Y-102103049D01*
X195536937Y-101868851D01*
X195565812Y-101624322D01*
X195554557Y-101481810D01*
X195610000Y-101481810D01*
X195610000Y-101718190D01*
X195656116Y-101950027D01*
X195746574Y-102168413D01*
X195877899Y-102364955D01*
X196045045Y-102532101D01*
X196241587Y-102663426D01*
X196459973Y-102753884D01*
X196691810Y-102800000D01*
X196928190Y-102800000D01*
X197160027Y-102753884D01*
X197378413Y-102663426D01*
X197574955Y-102532101D01*
X197742101Y-102364955D01*
X197873426Y-102168413D01*
X197963884Y-101950027D01*
X198010000Y-101718190D01*
X198010000Y-101481810D01*
X197963884Y-101249973D01*
X197873426Y-101031587D01*
X197742101Y-100835045D01*
X197574955Y-100667899D01*
X197378413Y-100536574D01*
X197160027Y-100446116D01*
X196928190Y-100400000D01*
X196691810Y-100400000D01*
X196459973Y-100446116D01*
X196241587Y-100536574D01*
X196045045Y-100667899D01*
X195877899Y-100835045D01*
X195746574Y-101031587D01*
X195656116Y-101249973D01*
X195610000Y-101481810D01*
X195554557Y-101481810D01*
X195546426Y-101378857D01*
X195479526Y-101141892D01*
X195367680Y-100922531D01*
X195340657Y-100882085D01*
X195153777Y-100791578D01*
X194345355Y-101600000D01*
X194274645Y-101600000D01*
X193466223Y-100791578D01*
X193279343Y-100882085D01*
X193159088Y-101096951D01*
X193083063Y-101331149D01*
X193054188Y-101575678D01*
X193010000Y-101575678D01*
X193010000Y-101481810D01*
X192963884Y-101249973D01*
X192873426Y-101031587D01*
X192742101Y-100835045D01*
X192663279Y-100756223D01*
X193501578Y-100756223D01*
X194310000Y-101564645D01*
X195118422Y-100756223D01*
X195027915Y-100569343D01*
X194813049Y-100449088D01*
X194578851Y-100373063D01*
X194334322Y-100344188D01*
X194088857Y-100363574D01*
X193851892Y-100430474D01*
X193632531Y-100542320D01*
X193592085Y-100569343D01*
X193501578Y-100756223D01*
X192663279Y-100756223D01*
X192574955Y-100667899D01*
X192378413Y-100536574D01*
X192160027Y-100446116D01*
X191928190Y-100400000D01*
X191691810Y-100400000D01*
X191459973Y-100446116D01*
X191241587Y-100536574D01*
X191045045Y-100667899D01*
X190877899Y-100835045D01*
X190746574Y-101031587D01*
X190656116Y-101249973D01*
X190610000Y-101481810D01*
X172610000Y-101481810D01*
X172563884Y-101249973D01*
X172473426Y-101031587D01*
X172342101Y-100835045D01*
X172174955Y-100667899D01*
X171978413Y-100536574D01*
X171760027Y-100446116D01*
X171528190Y-100400000D01*
X171291810Y-100400000D01*
X171059973Y-100446116D01*
X170841587Y-100536574D01*
X170645045Y-100667899D01*
X170477899Y-100835045D01*
X170346574Y-101031587D01*
X170256116Y-101249973D01*
X170210000Y-101481810D01*
X170154557Y-101481810D01*
X170146426Y-101378857D01*
X170079526Y-101141892D01*
X169967680Y-100922531D01*
X169940657Y-100882085D01*
X169753777Y-100791578D01*
X168945355Y-101600000D01*
X168874645Y-101600000D01*
X168066223Y-100791578D01*
X167879343Y-100882085D01*
X167759088Y-101096951D01*
X167683063Y-101331149D01*
X167654188Y-101575678D01*
X167610000Y-101575678D01*
X167610000Y-101481810D01*
X167563884Y-101249973D01*
X167473426Y-101031587D01*
X167342101Y-100835045D01*
X167263279Y-100756223D01*
X168101578Y-100756223D01*
X168910000Y-101564645D01*
X169718422Y-100756223D01*
X169627915Y-100569343D01*
X169413049Y-100449088D01*
X169178851Y-100373063D01*
X168934322Y-100344188D01*
X168688857Y-100363574D01*
X168451892Y-100430474D01*
X168232531Y-100542320D01*
X168192085Y-100569343D01*
X168101578Y-100756223D01*
X167263279Y-100756223D01*
X167174955Y-100667899D01*
X166978413Y-100536574D01*
X166760027Y-100446116D01*
X166528190Y-100400000D01*
X166291810Y-100400000D01*
X166059973Y-100446116D01*
X165841587Y-100536574D01*
X165645045Y-100667899D01*
X165477899Y-100835045D01*
X165346574Y-101031587D01*
X165256116Y-101249973D01*
X165210000Y-101481810D01*
X147210000Y-101481810D01*
X147163884Y-101249973D01*
X147073426Y-101031587D01*
X146942101Y-100835045D01*
X146774955Y-100667899D01*
X146578413Y-100536574D01*
X146360027Y-100446116D01*
X146128190Y-100400000D01*
X145891810Y-100400000D01*
X145659973Y-100446116D01*
X145441587Y-100536574D01*
X145245045Y-100667899D01*
X145077899Y-100835045D01*
X144946574Y-101031587D01*
X144856116Y-101249973D01*
X144810000Y-101481810D01*
X144754557Y-101481810D01*
X144746426Y-101378857D01*
X144679526Y-101141892D01*
X144567680Y-100922531D01*
X144540657Y-100882085D01*
X144353777Y-100791578D01*
X143545355Y-101600000D01*
X143474645Y-101600000D01*
X142666223Y-100791578D01*
X142479343Y-100882085D01*
X142359088Y-101096951D01*
X142283063Y-101331149D01*
X142254188Y-101575678D01*
X142210000Y-101575678D01*
X142210000Y-101481810D01*
X142163884Y-101249973D01*
X142073426Y-101031587D01*
X141942101Y-100835045D01*
X141863279Y-100756223D01*
X142701578Y-100756223D01*
X143510000Y-101564645D01*
X144318422Y-100756223D01*
X144227915Y-100569343D01*
X144013049Y-100449088D01*
X143778851Y-100373063D01*
X143534322Y-100344188D01*
X143288857Y-100363574D01*
X143051892Y-100430474D01*
X142832531Y-100542320D01*
X142792085Y-100569343D01*
X142701578Y-100756223D01*
X141863279Y-100756223D01*
X141774955Y-100667899D01*
X141578413Y-100536574D01*
X141360027Y-100446116D01*
X141128190Y-100400000D01*
X140993052Y-100400000D01*
X142401996Y-98991056D01*
X183450000Y-98991056D01*
X183450000Y-99128944D01*
X183476901Y-99264182D01*
X183529668Y-99391574D01*
X183606274Y-99506224D01*
X183703776Y-99603726D01*
X183818426Y-99680332D01*
X183945818Y-99733099D01*
X184081056Y-99760000D01*
X184218944Y-99760000D01*
X184354182Y-99733099D01*
X184481574Y-99680332D01*
X184596224Y-99603726D01*
X184693726Y-99506224D01*
X184770332Y-99391574D01*
X184823099Y-99264182D01*
X184850000Y-99128944D01*
X184850000Y-98991056D01*
X184845020Y-98966020D01*
X185070758Y-98740282D01*
X185086974Y-98726974D01*
X185140084Y-98662260D01*
X185179548Y-98588427D01*
X185203850Y-98508314D01*
X185210000Y-98445874D01*
X185210000Y-98445873D01*
X185212056Y-98425000D01*
X185210000Y-98404126D01*
X185210000Y-93623863D01*
X186160000Y-93623863D01*
X186160000Y-94576138D01*
X186182428Y-94803853D01*
X186271059Y-95096029D01*
X186414987Y-95365300D01*
X186608683Y-95601318D01*
X186844701Y-95795013D01*
X187113972Y-95938941D01*
X187406148Y-96027572D01*
X187710000Y-96057499D01*
X188013853Y-96027572D01*
X188306029Y-95938941D01*
X188575300Y-95795013D01*
X188811318Y-95601318D01*
X189005013Y-95365300D01*
X189148941Y-95096029D01*
X189237572Y-94803853D01*
X189260000Y-94576137D01*
X189260000Y-93623863D01*
X199360000Y-93623863D01*
X199360000Y-94576138D01*
X199382428Y-94803853D01*
X199471059Y-95096029D01*
X199614987Y-95365300D01*
X199808683Y-95601318D01*
X200044701Y-95795013D01*
X200313972Y-95938941D01*
X200606148Y-96027572D01*
X200910000Y-96057499D01*
X201213853Y-96027572D01*
X201506029Y-95938941D01*
X201775300Y-95795013D01*
X202011318Y-95601318D01*
X202205013Y-95365300D01*
X202348941Y-95096029D01*
X202437572Y-94803853D01*
X202460000Y-94576137D01*
X202460000Y-93623862D01*
X202437572Y-93396147D01*
X202348941Y-93103971D01*
X202205013Y-92834700D01*
X202011318Y-92598682D01*
X201775299Y-92404987D01*
X201506028Y-92261059D01*
X201213852Y-92172428D01*
X200910000Y-92142501D01*
X200606147Y-92172428D01*
X200313971Y-92261059D01*
X200044700Y-92404987D01*
X199808682Y-92598682D01*
X199614987Y-92834701D01*
X199471059Y-93103972D01*
X199382428Y-93396148D01*
X199360000Y-93623863D01*
X189260000Y-93623863D01*
X189260000Y-93623862D01*
X189237572Y-93396147D01*
X189148941Y-93103971D01*
X189005013Y-92834700D01*
X188811318Y-92598682D01*
X188575299Y-92404987D01*
X188306028Y-92261059D01*
X188013852Y-92172428D01*
X187710000Y-92142501D01*
X187406147Y-92172428D01*
X187113971Y-92261059D01*
X186844700Y-92404987D01*
X186608682Y-92598682D01*
X186414987Y-92834701D01*
X186271059Y-93103972D01*
X186182428Y-93396148D01*
X186160000Y-93623863D01*
X185210000Y-93623863D01*
X185210000Y-89037907D01*
X185231224Y-89023726D01*
X185328726Y-88926224D01*
X185405332Y-88811574D01*
X185458099Y-88684182D01*
X185485000Y-88548944D01*
X185485000Y-88411056D01*
X185458099Y-88275818D01*
X185405332Y-88148426D01*
X185328726Y-88033776D01*
X185238727Y-87943777D01*
X191001578Y-87943777D01*
X191092085Y-88130657D01*
X191306951Y-88250912D01*
X191541149Y-88326937D01*
X191785678Y-88355812D01*
X192031143Y-88336426D01*
X192268108Y-88269526D01*
X192487469Y-88157680D01*
X192527915Y-88130657D01*
X192618422Y-87943777D01*
X191810000Y-87135355D01*
X191001578Y-87943777D01*
X185238727Y-87943777D01*
X185231224Y-87936274D01*
X185116574Y-87859668D01*
X184989182Y-87806901D01*
X184853944Y-87780000D01*
X184716056Y-87780000D01*
X184580818Y-87806901D01*
X184453426Y-87859668D01*
X184338776Y-87936274D01*
X184241274Y-88033776D01*
X184164668Y-88148426D01*
X184111901Y-88275818D01*
X184085000Y-88411056D01*
X184085000Y-88548944D01*
X184111901Y-88684182D01*
X184164668Y-88811574D01*
X184241274Y-88926224D01*
X184338776Y-89023726D01*
X184360001Y-89037908D01*
X184360000Y-98248960D01*
X184243980Y-98364980D01*
X184218944Y-98360000D01*
X184081056Y-98360000D01*
X183945818Y-98386901D01*
X183818426Y-98439668D01*
X183703776Y-98516274D01*
X183606274Y-98613776D01*
X183529668Y-98728426D01*
X183476901Y-98855818D01*
X183450000Y-98991056D01*
X142401996Y-98991056D01*
X143925996Y-97467056D01*
X156780000Y-97467056D01*
X156780000Y-97604944D01*
X156806901Y-97740182D01*
X156859668Y-97867574D01*
X156936274Y-97982224D01*
X157033776Y-98079726D01*
X157148426Y-98156332D01*
X157275818Y-98209099D01*
X157411056Y-98236000D01*
X157548944Y-98236000D01*
X157684182Y-98209099D01*
X157811574Y-98156332D01*
X157926224Y-98079726D01*
X158023726Y-97982224D01*
X158100332Y-97867574D01*
X158153099Y-97740182D01*
X158180000Y-97604944D01*
X158180000Y-97467056D01*
X158175020Y-97442020D01*
X159289762Y-96327279D01*
X159305974Y-96313974D01*
X159359084Y-96249260D01*
X159398548Y-96175427D01*
X159422850Y-96095314D01*
X159429000Y-96032874D01*
X159429000Y-96032868D01*
X159431055Y-96012001D01*
X159429000Y-95991134D01*
X159429000Y-93623863D01*
X160760000Y-93623863D01*
X160760000Y-94576138D01*
X160782428Y-94803853D01*
X160871059Y-95096029D01*
X161014987Y-95365300D01*
X161208683Y-95601318D01*
X161444701Y-95795013D01*
X161713972Y-95938941D01*
X162006148Y-96027572D01*
X162310000Y-96057499D01*
X162613853Y-96027572D01*
X162906029Y-95938941D01*
X163175300Y-95795013D01*
X163411318Y-95601318D01*
X163605013Y-95365300D01*
X163748941Y-95096029D01*
X163837572Y-94803853D01*
X163860000Y-94576137D01*
X163860000Y-93623863D01*
X173960000Y-93623863D01*
X173960000Y-94576138D01*
X173982428Y-94803853D01*
X174071059Y-95096029D01*
X174214987Y-95365300D01*
X174408683Y-95601318D01*
X174644701Y-95795013D01*
X174913972Y-95938941D01*
X175206148Y-96027572D01*
X175510000Y-96057499D01*
X175813853Y-96027572D01*
X176106029Y-95938941D01*
X176375300Y-95795013D01*
X176611318Y-95601318D01*
X176805013Y-95365300D01*
X176948941Y-95096029D01*
X177037572Y-94803853D01*
X177060000Y-94576137D01*
X177060000Y-93623862D01*
X177037572Y-93396147D01*
X176948941Y-93103971D01*
X176805013Y-92834700D01*
X176611318Y-92598682D01*
X176375299Y-92404987D01*
X176106028Y-92261059D01*
X175813852Y-92172428D01*
X175510000Y-92142501D01*
X175206147Y-92172428D01*
X174913971Y-92261059D01*
X174644700Y-92404987D01*
X174408682Y-92598682D01*
X174214987Y-92834701D01*
X174071059Y-93103972D01*
X173982428Y-93396148D01*
X173960000Y-93623863D01*
X163860000Y-93623863D01*
X163860000Y-93623862D01*
X163837572Y-93396147D01*
X163748941Y-93103971D01*
X163605013Y-92834700D01*
X163411318Y-92598682D01*
X163175299Y-92404987D01*
X162906028Y-92261059D01*
X162613852Y-92172428D01*
X162310000Y-92142501D01*
X162006147Y-92172428D01*
X161713971Y-92261059D01*
X161444700Y-92404987D01*
X161208682Y-92598682D01*
X161014987Y-92834701D01*
X160871059Y-93103972D01*
X160782428Y-93396148D01*
X160760000Y-93623863D01*
X159429000Y-93623863D01*
X159429000Y-92006056D01*
X182180000Y-92006056D01*
X182180000Y-92143944D01*
X182206901Y-92279182D01*
X182259668Y-92406574D01*
X182336274Y-92521224D01*
X182433776Y-92618726D01*
X182455000Y-92632907D01*
X182455001Y-96597092D01*
X182433776Y-96611274D01*
X182336274Y-96708776D01*
X182259668Y-96823426D01*
X182206901Y-96950818D01*
X182180000Y-97086056D01*
X182180000Y-97223944D01*
X182206901Y-97359182D01*
X182259668Y-97486574D01*
X182336274Y-97601224D01*
X182433776Y-97698726D01*
X182548426Y-97775332D01*
X182675818Y-97828099D01*
X182811056Y-97855000D01*
X182948944Y-97855000D01*
X183084182Y-97828099D01*
X183211574Y-97775332D01*
X183326224Y-97698726D01*
X183423726Y-97601224D01*
X183500332Y-97486574D01*
X183553099Y-97359182D01*
X183580000Y-97223944D01*
X183580000Y-97086056D01*
X183553099Y-96950818D01*
X183500332Y-96823426D01*
X183423726Y-96708776D01*
X183326224Y-96611274D01*
X183305000Y-96597093D01*
X183305000Y-92632907D01*
X183326224Y-92618726D01*
X183423726Y-92521224D01*
X183500332Y-92406574D01*
X183553099Y-92279182D01*
X183580000Y-92143944D01*
X183580000Y-92006056D01*
X183553099Y-91870818D01*
X183500332Y-91743426D01*
X183423726Y-91628776D01*
X183326224Y-91531274D01*
X183211574Y-91454668D01*
X183084182Y-91401901D01*
X182948944Y-91375000D01*
X182811056Y-91375000D01*
X182675818Y-91401901D01*
X182548426Y-91454668D01*
X182433776Y-91531274D01*
X182336274Y-91628776D01*
X182259668Y-91743426D01*
X182206901Y-91870818D01*
X182180000Y-92006056D01*
X159429000Y-92006056D01*
X159429000Y-88949907D01*
X159450224Y-88935726D01*
X159547726Y-88838224D01*
X159624332Y-88723574D01*
X159677099Y-88596182D01*
X159704000Y-88460944D01*
X159704000Y-88323056D01*
X159677099Y-88187818D01*
X159624332Y-88060426D01*
X159547726Y-87945776D01*
X159545727Y-87943777D01*
X165601578Y-87943777D01*
X165692085Y-88130657D01*
X165906951Y-88250912D01*
X166141149Y-88326937D01*
X166385678Y-88355812D01*
X166631143Y-88336426D01*
X166868108Y-88269526D01*
X167087469Y-88157680D01*
X167127915Y-88130657D01*
X167218422Y-87943777D01*
X166410000Y-87135355D01*
X165601578Y-87943777D01*
X159545727Y-87943777D01*
X159450224Y-87848274D01*
X159335574Y-87771668D01*
X159208182Y-87718901D01*
X159072944Y-87692000D01*
X158935056Y-87692000D01*
X158799818Y-87718901D01*
X158672426Y-87771668D01*
X158557776Y-87848274D01*
X158460274Y-87945776D01*
X158383668Y-88060426D01*
X158330901Y-88187818D01*
X158304000Y-88323056D01*
X158304000Y-88460944D01*
X158330901Y-88596182D01*
X158383668Y-88723574D01*
X158460274Y-88838224D01*
X158557776Y-88935726D01*
X158579000Y-88949907D01*
X158579001Y-95835958D01*
X157573980Y-96840980D01*
X157548944Y-96836000D01*
X157411056Y-96836000D01*
X157275818Y-96862901D01*
X157148426Y-96915668D01*
X157033776Y-96992274D01*
X156936274Y-97089776D01*
X156859668Y-97204426D01*
X156806901Y-97331818D01*
X156780000Y-97467056D01*
X143925996Y-97467056D01*
X147769189Y-93623863D01*
X148560000Y-93623863D01*
X148560000Y-94576138D01*
X148582428Y-94803853D01*
X148671059Y-95096029D01*
X148814987Y-95365300D01*
X149008683Y-95601318D01*
X149244701Y-95795013D01*
X149513972Y-95938941D01*
X149806148Y-96027572D01*
X150110000Y-96057499D01*
X150413853Y-96027572D01*
X150706029Y-95938941D01*
X150975300Y-95795013D01*
X151211318Y-95601318D01*
X151405013Y-95365300D01*
X151548941Y-95096029D01*
X151637572Y-94803853D01*
X151660000Y-94576137D01*
X151660000Y-93623862D01*
X151637572Y-93396147D01*
X151548941Y-93103971D01*
X151405013Y-92834700D01*
X151211318Y-92598682D01*
X150975299Y-92404987D01*
X150706028Y-92261059D01*
X150413852Y-92172428D01*
X150110000Y-92142501D01*
X149806147Y-92172428D01*
X149513971Y-92261059D01*
X149244700Y-92404987D01*
X149008682Y-92598682D01*
X148814987Y-92834701D01*
X148671059Y-93103972D01*
X148582428Y-93396148D01*
X148560000Y-93623863D01*
X147769189Y-93623863D01*
X152415551Y-88977501D01*
X152461776Y-89023726D01*
X152576426Y-89100332D01*
X152703818Y-89153099D01*
X152839056Y-89180000D01*
X152976944Y-89180000D01*
X153112182Y-89153099D01*
X153239574Y-89100332D01*
X153354224Y-89023726D01*
X153451726Y-88926224D01*
X153528332Y-88811574D01*
X153581099Y-88684182D01*
X153608000Y-88548944D01*
X153608000Y-88411056D01*
X153581099Y-88275818D01*
X153528332Y-88148426D01*
X153451726Y-88033776D01*
X153354224Y-87936274D01*
X153239574Y-87859668D01*
X153112182Y-87806901D01*
X152976944Y-87780000D01*
X152839056Y-87780000D01*
X152703818Y-87806901D01*
X152576426Y-87859668D01*
X152461776Y-87936274D01*
X152364274Y-88033776D01*
X152350093Y-88055000D01*
X152332878Y-88055000D01*
X152312011Y-88052945D01*
X152291144Y-88055000D01*
X152291138Y-88055000D01*
X152237110Y-88060321D01*
X152228697Y-88061150D01*
X152204395Y-88068522D01*
X152148585Y-88085452D01*
X152074752Y-88124916D01*
X152010038Y-88178026D01*
X151996733Y-88194238D01*
X132702244Y-107488728D01*
X132702238Y-107488733D01*
X132681979Y-107508992D01*
X132656944Y-107504012D01*
X132519056Y-107504012D01*
X132383818Y-107530913D01*
X132256426Y-107583680D01*
X132141776Y-107660286D01*
X132044274Y-107757788D01*
X131967668Y-107872438D01*
X131914901Y-107999830D01*
X131888000Y-108135068D01*
X131888000Y-108272956D01*
X131914901Y-108408194D01*
X131967668Y-108535586D01*
X132044274Y-108650236D01*
X132141776Y-108747738D01*
X132212509Y-108795000D01*
X126922035Y-108795000D01*
X125917042Y-107790008D01*
X125922022Y-107764972D01*
X125922022Y-107627084D01*
X125895121Y-107491846D01*
X125842354Y-107364454D01*
X125765748Y-107249804D01*
X125668246Y-107152302D01*
X125553596Y-107075696D01*
X125426204Y-107022929D01*
X125290966Y-106996028D01*
X125153078Y-106996028D01*
X125017840Y-107022929D01*
X124890448Y-107075696D01*
X124775798Y-107152302D01*
X124678296Y-107249804D01*
X124601690Y-107364454D01*
X124548923Y-107491846D01*
X124522022Y-107627084D01*
X124522022Y-107764972D01*
X124548923Y-107900210D01*
X124601690Y-108027602D01*
X124678296Y-108142252D01*
X124775798Y-108239754D01*
X124890448Y-108316360D01*
X125017840Y-108369127D01*
X125153078Y-108396028D01*
X125290966Y-108396028D01*
X125316002Y-108391048D01*
X126430713Y-109505760D01*
X126444020Y-109521974D01*
X126508734Y-109575084D01*
X126582567Y-109614548D01*
X126638377Y-109631478D01*
X126662679Y-109638850D01*
X126670321Y-109639603D01*
X126725120Y-109645000D01*
X126725127Y-109645000D01*
X126745994Y-109647055D01*
X126766861Y-109645000D01*
X172191133Y-109645000D01*
X172212000Y-109647055D01*
X172232867Y-109645000D01*
X172232874Y-109645000D01*
X172295314Y-109638850D01*
X172375427Y-109614548D01*
X172449260Y-109575084D01*
X172513974Y-109521974D01*
X172527283Y-109505757D01*
X173603200Y-108429841D01*
X173570901Y-108507818D01*
X173544000Y-108643056D01*
X173544000Y-108780944D01*
X173548980Y-108805979D01*
X172035960Y-110319000D01*
X126668041Y-110319000D01*
X125663020Y-109313980D01*
X125668000Y-109288944D01*
X125668000Y-109151056D01*
X125641099Y-109015818D01*
X125588332Y-108888426D01*
X125511726Y-108773776D01*
X125414224Y-108676274D01*
X125299574Y-108599668D01*
X125172182Y-108546901D01*
X125036944Y-108520000D01*
X124899056Y-108520000D01*
X124763818Y-108546901D01*
X124636426Y-108599668D01*
X124521776Y-108676274D01*
X124424274Y-108773776D01*
X124347668Y-108888426D01*
X124294901Y-109015818D01*
X124268000Y-109151056D01*
X117372097Y-109151056D01*
X109702851Y-101481810D01*
X114410000Y-101481810D01*
X114410000Y-101718190D01*
X114456116Y-101950027D01*
X114546574Y-102168413D01*
X114677899Y-102364955D01*
X114845045Y-102532101D01*
X115041587Y-102663426D01*
X115259973Y-102753884D01*
X115491810Y-102800000D01*
X115728190Y-102800000D01*
X115960027Y-102753884D01*
X116178413Y-102663426D01*
X116374955Y-102532101D01*
X116463279Y-102443777D01*
X117301578Y-102443777D01*
X117392085Y-102630657D01*
X117606951Y-102750912D01*
X117841149Y-102826937D01*
X118085678Y-102855812D01*
X118331143Y-102836426D01*
X118568108Y-102769526D01*
X118787469Y-102657680D01*
X118827915Y-102630657D01*
X118918422Y-102443777D01*
X118110000Y-101635355D01*
X117301578Y-102443777D01*
X116463279Y-102443777D01*
X116542101Y-102364955D01*
X116673426Y-102168413D01*
X116763884Y-101950027D01*
X116810000Y-101718190D01*
X116810000Y-101575678D01*
X116854188Y-101575678D01*
X116873574Y-101821143D01*
X116940474Y-102058108D01*
X117052320Y-102277469D01*
X117079343Y-102317915D01*
X117266223Y-102408422D01*
X118074645Y-101600000D01*
X118145355Y-101600000D01*
X118953777Y-102408422D01*
X119140657Y-102317915D01*
X119260912Y-102103049D01*
X119336937Y-101868851D01*
X119365812Y-101624322D01*
X119354557Y-101481810D01*
X119410000Y-101481810D01*
X119410000Y-101718190D01*
X119456116Y-101950027D01*
X119546574Y-102168413D01*
X119677899Y-102364955D01*
X119845045Y-102532101D01*
X120041587Y-102663426D01*
X120259973Y-102753884D01*
X120491810Y-102800000D01*
X120728190Y-102800000D01*
X120960027Y-102753884D01*
X121178413Y-102663426D01*
X121374955Y-102532101D01*
X121542101Y-102364955D01*
X121673426Y-102168413D01*
X121763884Y-101950027D01*
X121810000Y-101718190D01*
X121810000Y-101481810D01*
X121763884Y-101249973D01*
X121673426Y-101031587D01*
X121542101Y-100835045D01*
X121374955Y-100667899D01*
X121178413Y-100536574D01*
X120960027Y-100446116D01*
X120728190Y-100400000D01*
X120491810Y-100400000D01*
X120259973Y-100446116D01*
X120041587Y-100536574D01*
X119845045Y-100667899D01*
X119677899Y-100835045D01*
X119546574Y-101031587D01*
X119456116Y-101249973D01*
X119410000Y-101481810D01*
X119354557Y-101481810D01*
X119346426Y-101378857D01*
X119279526Y-101141892D01*
X119167680Y-100922531D01*
X119140657Y-100882085D01*
X118953777Y-100791578D01*
X118145355Y-101600000D01*
X118074645Y-101600000D01*
X117266223Y-100791578D01*
X117079343Y-100882085D01*
X116959088Y-101096951D01*
X116883063Y-101331149D01*
X116854188Y-101575678D01*
X116810000Y-101575678D01*
X116810000Y-101481810D01*
X116763884Y-101249973D01*
X116673426Y-101031587D01*
X116542101Y-100835045D01*
X116463279Y-100756223D01*
X117301578Y-100756223D01*
X118110000Y-101564645D01*
X118918422Y-100756223D01*
X118827915Y-100569343D01*
X118613049Y-100449088D01*
X118378851Y-100373063D01*
X118134322Y-100344188D01*
X117888857Y-100363574D01*
X117651892Y-100430474D01*
X117432531Y-100542320D01*
X117392085Y-100569343D01*
X117301578Y-100756223D01*
X116463279Y-100756223D01*
X116374955Y-100667899D01*
X116178413Y-100536574D01*
X115960027Y-100446116D01*
X115728190Y-100400000D01*
X115491810Y-100400000D01*
X115259973Y-100446116D01*
X115041587Y-100536574D01*
X114845045Y-100667899D01*
X114677899Y-100835045D01*
X114546574Y-101031587D01*
X114456116Y-101249973D01*
X114410000Y-101481810D01*
X109702851Y-101481810D01*
X109535284Y-101314244D01*
X109521974Y-101298026D01*
X109457260Y-101244916D01*
X109383427Y-101205452D01*
X109303314Y-101181150D01*
X109240874Y-101175000D01*
X109240867Y-101175000D01*
X109220000Y-101172945D01*
X109199133Y-101175000D01*
X106228824Y-101175000D01*
X106223602Y-101157785D01*
X106116816Y-100958003D01*
X105973107Y-100782893D01*
X105797997Y-100639184D01*
X105598215Y-100532398D01*
X105381439Y-100466640D01*
X105212492Y-100450000D01*
X105099508Y-100450000D01*
X104930561Y-100466640D01*
X104713785Y-100532398D01*
X104514003Y-100639184D01*
X104338893Y-100782893D01*
X104195184Y-100958003D01*
X104088398Y-101157785D01*
X104022640Y-101374561D01*
X104000436Y-101600000D01*
X103245000Y-101600000D01*
X103245000Y-98210000D01*
X104004549Y-98210000D01*
X104004549Y-99910000D01*
X104010341Y-99968810D01*
X104027496Y-100025360D01*
X104055353Y-100077477D01*
X104092842Y-100123158D01*
X104138523Y-100160647D01*
X104190640Y-100188504D01*
X104247190Y-100205659D01*
X104306000Y-100211451D01*
X106006000Y-100211451D01*
X106064810Y-100205659D01*
X106121360Y-100188504D01*
X106173477Y-100160647D01*
X106219158Y-100123158D01*
X106256647Y-100077477D01*
X106284504Y-100025360D01*
X106301659Y-99968810D01*
X106307451Y-99910000D01*
X106307451Y-98210000D01*
X106301659Y-98151190D01*
X106284504Y-98094640D01*
X106256647Y-98042523D01*
X106219158Y-97996842D01*
X106173477Y-97959353D01*
X106121360Y-97931496D01*
X106064810Y-97914341D01*
X106006000Y-97908549D01*
X104306000Y-97908549D01*
X104247190Y-97914341D01*
X104190640Y-97931496D01*
X104138523Y-97959353D01*
X104092842Y-97996842D01*
X104055353Y-98042523D01*
X104027496Y-98094640D01*
X104010341Y-98151190D01*
X104004549Y-98210000D01*
X103245000Y-98210000D01*
X103245000Y-93623863D01*
X109960000Y-93623863D01*
X109960000Y-94576138D01*
X109982428Y-94803853D01*
X110071059Y-95096029D01*
X110214987Y-95365300D01*
X110408683Y-95601318D01*
X110644701Y-95795013D01*
X110913972Y-95938941D01*
X111206148Y-96027572D01*
X111510000Y-96057499D01*
X111813853Y-96027572D01*
X112106029Y-95938941D01*
X112375300Y-95795013D01*
X112611318Y-95601318D01*
X112805013Y-95365300D01*
X112948941Y-95096029D01*
X113037572Y-94803853D01*
X113060000Y-94576137D01*
X113060000Y-93623863D01*
X123160000Y-93623863D01*
X123160000Y-94576138D01*
X123182428Y-94803853D01*
X123271059Y-95096029D01*
X123414987Y-95365300D01*
X123608683Y-95601318D01*
X123844701Y-95795013D01*
X124113972Y-95938941D01*
X124406148Y-96027572D01*
X124710000Y-96057499D01*
X125013853Y-96027572D01*
X125306029Y-95938941D01*
X125575300Y-95795013D01*
X125811318Y-95601318D01*
X126005013Y-95365300D01*
X126148941Y-95096029D01*
X126237572Y-94803853D01*
X126260000Y-94576137D01*
X126260000Y-93623862D01*
X126237572Y-93396147D01*
X126148941Y-93103971D01*
X126005013Y-92834700D01*
X125811318Y-92598682D01*
X125575299Y-92404987D01*
X125306028Y-92261059D01*
X125013852Y-92172428D01*
X124710000Y-92142501D01*
X124406147Y-92172428D01*
X124113971Y-92261059D01*
X123844700Y-92404987D01*
X123608682Y-92598682D01*
X123414987Y-92834701D01*
X123271059Y-93103972D01*
X123182428Y-93396148D01*
X123160000Y-93623863D01*
X113060000Y-93623863D01*
X113060000Y-93623862D01*
X113037572Y-93396147D01*
X112948941Y-93103971D01*
X112805013Y-92834700D01*
X112611318Y-92598682D01*
X112375299Y-92404987D01*
X112106028Y-92261059D01*
X111813852Y-92172428D01*
X111510000Y-92142501D01*
X111206147Y-92172428D01*
X110913971Y-92261059D01*
X110644700Y-92404987D01*
X110408682Y-92598682D01*
X110214987Y-92834701D01*
X110071059Y-93103972D01*
X109982428Y-93396148D01*
X109960000Y-93623863D01*
X103245000Y-93623863D01*
X103245000Y-90736056D01*
X127316000Y-90736056D01*
X127316000Y-90873944D01*
X127342901Y-91009182D01*
X127395668Y-91136574D01*
X127472274Y-91251224D01*
X127569776Y-91348726D01*
X127591000Y-91362907D01*
X127591001Y-95991123D01*
X127588945Y-96012000D01*
X127597150Y-96095314D01*
X127621453Y-96175427D01*
X127660917Y-96249260D01*
X127714027Y-96313974D01*
X127730239Y-96327279D01*
X127828980Y-96426020D01*
X127824000Y-96451056D01*
X127824000Y-96588944D01*
X127850901Y-96724182D01*
X127903668Y-96851574D01*
X127980274Y-96966224D01*
X128077776Y-97063726D01*
X128192426Y-97140332D01*
X128319818Y-97193099D01*
X128455056Y-97220000D01*
X128592944Y-97220000D01*
X128728182Y-97193099D01*
X128855574Y-97140332D01*
X128970224Y-97063726D01*
X129067726Y-96966224D01*
X129144332Y-96851574D01*
X129197099Y-96724182D01*
X129224000Y-96588944D01*
X129224000Y-96451056D01*
X129197099Y-96315818D01*
X129144332Y-96188426D01*
X129067726Y-96073776D01*
X128970224Y-95976274D01*
X128855574Y-95899668D01*
X128728182Y-95846901D01*
X128592944Y-95820000D01*
X128455056Y-95820000D01*
X128441000Y-95822796D01*
X128441000Y-91362907D01*
X128462224Y-91348726D01*
X128559726Y-91251224D01*
X128636332Y-91136574D01*
X128689099Y-91009182D01*
X128716000Y-90873944D01*
X128716000Y-90736056D01*
X128689099Y-90600818D01*
X128636332Y-90473426D01*
X128559726Y-90358776D01*
X128462224Y-90261274D01*
X128347574Y-90184668D01*
X128220182Y-90131901D01*
X128084944Y-90105000D01*
X127947056Y-90105000D01*
X127811818Y-90131901D01*
X127684426Y-90184668D01*
X127569776Y-90261274D01*
X127472274Y-90358776D01*
X127395668Y-90473426D01*
X127342901Y-90600818D01*
X127316000Y-90736056D01*
X103245000Y-90736056D01*
X103245000Y-88747338D01*
X104495000Y-88747338D01*
X104495000Y-89052662D01*
X104554565Y-89352118D01*
X104671408Y-89634200D01*
X104841036Y-89888068D01*
X105056932Y-90103964D01*
X105310800Y-90273592D01*
X105592882Y-90390435D01*
X105892338Y-90450000D01*
X106197662Y-90450000D01*
X106497118Y-90390435D01*
X106779200Y-90273592D01*
X107033068Y-90103964D01*
X107248964Y-89888068D01*
X107418592Y-89634200D01*
X107535435Y-89352118D01*
X107595000Y-89052662D01*
X107595000Y-88747338D01*
X107535435Y-88447882D01*
X107520182Y-88411056D01*
X127316000Y-88411056D01*
X127316000Y-88548944D01*
X127342901Y-88684182D01*
X127395668Y-88811574D01*
X127472274Y-88926224D01*
X127569776Y-89023726D01*
X127684426Y-89100332D01*
X127811818Y-89153099D01*
X127947056Y-89180000D01*
X128084944Y-89180000D01*
X128109980Y-89175020D01*
X130131001Y-91196042D01*
X130131000Y-94946093D01*
X130109776Y-94960274D01*
X130012274Y-95057776D01*
X129935668Y-95172426D01*
X129882901Y-95299818D01*
X129856000Y-95435056D01*
X129856000Y-95572944D01*
X129882901Y-95708182D01*
X129935668Y-95835574D01*
X130012274Y-95950224D01*
X130109776Y-96047726D01*
X130224426Y-96124332D01*
X130351818Y-96177099D01*
X130487056Y-96204000D01*
X130624944Y-96204000D01*
X130760182Y-96177099D01*
X130887574Y-96124332D01*
X131002224Y-96047726D01*
X131099726Y-95950224D01*
X131176332Y-95835574D01*
X131229099Y-95708182D01*
X131256000Y-95572944D01*
X131256000Y-95435056D01*
X131229099Y-95299818D01*
X131176332Y-95172426D01*
X131099726Y-95057776D01*
X131002224Y-94960274D01*
X130981000Y-94946093D01*
X130981000Y-93623863D01*
X135360000Y-93623863D01*
X135360000Y-94576138D01*
X135382428Y-94803853D01*
X135471059Y-95096029D01*
X135614987Y-95365300D01*
X135808683Y-95601318D01*
X136044701Y-95795013D01*
X136313972Y-95938941D01*
X136606148Y-96027572D01*
X136910000Y-96057499D01*
X137213853Y-96027572D01*
X137506029Y-95938941D01*
X137775300Y-95795013D01*
X138011318Y-95601318D01*
X138205013Y-95365300D01*
X138348941Y-95096029D01*
X138437572Y-94803853D01*
X138460000Y-94576137D01*
X138460000Y-93623862D01*
X138437572Y-93396147D01*
X138348941Y-93103971D01*
X138205013Y-92834700D01*
X138011318Y-92598682D01*
X137775299Y-92404987D01*
X137506028Y-92261059D01*
X137213852Y-92172428D01*
X136910000Y-92142501D01*
X136606147Y-92172428D01*
X136313971Y-92261059D01*
X136044700Y-92404987D01*
X135808682Y-92598682D01*
X135614987Y-92834701D01*
X135471059Y-93103972D01*
X135382428Y-93396148D01*
X135360000Y-93623863D01*
X130981000Y-93623863D01*
X130981000Y-91040866D01*
X130983055Y-91019999D01*
X130981000Y-90999132D01*
X130981000Y-90999126D01*
X130974850Y-90936686D01*
X130950548Y-90856573D01*
X130911084Y-90782740D01*
X130857974Y-90718026D01*
X130841762Y-90704721D01*
X128711020Y-88573980D01*
X128716000Y-88548944D01*
X128716000Y-88411056D01*
X128689099Y-88275818D01*
X128636332Y-88148426D01*
X128559726Y-88033776D01*
X128469727Y-87943777D01*
X140201578Y-87943777D01*
X140292085Y-88130657D01*
X140506951Y-88250912D01*
X140741149Y-88326937D01*
X140985678Y-88355812D01*
X141231143Y-88336426D01*
X141468108Y-88269526D01*
X141687469Y-88157680D01*
X141727915Y-88130657D01*
X141818422Y-87943777D01*
X141010000Y-87135355D01*
X140201578Y-87943777D01*
X128469727Y-87943777D01*
X128462224Y-87936274D01*
X128347574Y-87859668D01*
X128220182Y-87806901D01*
X128084944Y-87780000D01*
X127947056Y-87780000D01*
X127811818Y-87806901D01*
X127684426Y-87859668D01*
X127569776Y-87936274D01*
X127472274Y-88033776D01*
X127395668Y-88148426D01*
X127342901Y-88275818D01*
X127316000Y-88411056D01*
X107520182Y-88411056D01*
X107418592Y-88165800D01*
X107270243Y-87943777D01*
X114801578Y-87943777D01*
X114892085Y-88130657D01*
X115106951Y-88250912D01*
X115341149Y-88326937D01*
X115585678Y-88355812D01*
X115831143Y-88336426D01*
X116068108Y-88269526D01*
X116287469Y-88157680D01*
X116327915Y-88130657D01*
X116418422Y-87943777D01*
X115610000Y-87135355D01*
X114801578Y-87943777D01*
X107270243Y-87943777D01*
X107248964Y-87911932D01*
X107033068Y-87696036D01*
X106779200Y-87526408D01*
X106497118Y-87409565D01*
X106197662Y-87350000D01*
X105892338Y-87350000D01*
X105592882Y-87409565D01*
X105310800Y-87526408D01*
X105056932Y-87696036D01*
X104841036Y-87911932D01*
X104671408Y-88165800D01*
X104554565Y-88447882D01*
X104495000Y-88747338D01*
X103245000Y-88747338D01*
X103245000Y-87075678D01*
X114354188Y-87075678D01*
X114373574Y-87321143D01*
X114440474Y-87558108D01*
X114552320Y-87777469D01*
X114579343Y-87817915D01*
X114766223Y-87908422D01*
X115574645Y-87100000D01*
X115645355Y-87100000D01*
X116453777Y-87908422D01*
X116640657Y-87817915D01*
X116760912Y-87603049D01*
X116836937Y-87368851D01*
X116865812Y-87124322D01*
X116854557Y-86981810D01*
X119410000Y-86981810D01*
X119410000Y-87218190D01*
X119456116Y-87450027D01*
X119546574Y-87668413D01*
X119677899Y-87864955D01*
X119845045Y-88032101D01*
X120041587Y-88163426D01*
X120259973Y-88253884D01*
X120491810Y-88300000D01*
X120728190Y-88300000D01*
X120960027Y-88253884D01*
X121178413Y-88163426D01*
X121374955Y-88032101D01*
X121542101Y-87864955D01*
X121673426Y-87668413D01*
X121763884Y-87450027D01*
X121810000Y-87218190D01*
X121810000Y-87075678D01*
X139754188Y-87075678D01*
X139773574Y-87321143D01*
X139840474Y-87558108D01*
X139952320Y-87777469D01*
X139979343Y-87817915D01*
X140166223Y-87908422D01*
X140974645Y-87100000D01*
X141045355Y-87100000D01*
X141853777Y-87908422D01*
X142040657Y-87817915D01*
X142160912Y-87603049D01*
X142236937Y-87368851D01*
X142265812Y-87124322D01*
X142254557Y-86981810D01*
X144810000Y-86981810D01*
X144810000Y-87218190D01*
X144856116Y-87450027D01*
X144946574Y-87668413D01*
X145077899Y-87864955D01*
X145245045Y-88032101D01*
X145441587Y-88163426D01*
X145659973Y-88253884D01*
X145891810Y-88300000D01*
X146128190Y-88300000D01*
X146360027Y-88253884D01*
X146578413Y-88163426D01*
X146774955Y-88032101D01*
X146942101Y-87864955D01*
X147073426Y-87668413D01*
X147163884Y-87450027D01*
X147210000Y-87218190D01*
X147210000Y-87075678D01*
X165154188Y-87075678D01*
X165173574Y-87321143D01*
X165240474Y-87558108D01*
X165352320Y-87777469D01*
X165379343Y-87817915D01*
X165566223Y-87908422D01*
X166374645Y-87100000D01*
X166445355Y-87100000D01*
X167253777Y-87908422D01*
X167440657Y-87817915D01*
X167560912Y-87603049D01*
X167636937Y-87368851D01*
X167665812Y-87124322D01*
X167654557Y-86981810D01*
X170210000Y-86981810D01*
X170210000Y-87218190D01*
X170256116Y-87450027D01*
X170346574Y-87668413D01*
X170477899Y-87864955D01*
X170645045Y-88032101D01*
X170841587Y-88163426D01*
X171059973Y-88253884D01*
X171291810Y-88300000D01*
X171528190Y-88300000D01*
X171760027Y-88253884D01*
X171978413Y-88163426D01*
X172174955Y-88032101D01*
X172342101Y-87864955D01*
X172473426Y-87668413D01*
X172563884Y-87450027D01*
X172610000Y-87218190D01*
X172610000Y-87075678D01*
X190554188Y-87075678D01*
X190573574Y-87321143D01*
X190640474Y-87558108D01*
X190752320Y-87777469D01*
X190779343Y-87817915D01*
X190966223Y-87908422D01*
X191774645Y-87100000D01*
X191845355Y-87100000D01*
X192653777Y-87908422D01*
X192840657Y-87817915D01*
X192960912Y-87603049D01*
X193036937Y-87368851D01*
X193065812Y-87124322D01*
X193054557Y-86981810D01*
X195610000Y-86981810D01*
X195610000Y-87218190D01*
X195656116Y-87450027D01*
X195746574Y-87668413D01*
X195877899Y-87864955D01*
X196045045Y-88032101D01*
X196241587Y-88163426D01*
X196459973Y-88253884D01*
X196691810Y-88300000D01*
X196928190Y-88300000D01*
X197160027Y-88253884D01*
X197378413Y-88163426D01*
X197574955Y-88032101D01*
X197742101Y-87864955D01*
X197873426Y-87668413D01*
X197963884Y-87450027D01*
X198010000Y-87218190D01*
X198010000Y-86981810D01*
X197963884Y-86749973D01*
X197873426Y-86531587D01*
X197742101Y-86335045D01*
X197574955Y-86167899D01*
X197378413Y-86036574D01*
X197160027Y-85946116D01*
X196928190Y-85900000D01*
X196691810Y-85900000D01*
X196459973Y-85946116D01*
X196241587Y-86036574D01*
X196045045Y-86167899D01*
X195877899Y-86335045D01*
X195746574Y-86531587D01*
X195656116Y-86749973D01*
X195610000Y-86981810D01*
X193054557Y-86981810D01*
X193046426Y-86878857D01*
X192979526Y-86641892D01*
X192867680Y-86422531D01*
X192840657Y-86382085D01*
X192653777Y-86291578D01*
X191845355Y-87100000D01*
X191774645Y-87100000D01*
X190966223Y-86291578D01*
X190779343Y-86382085D01*
X190659088Y-86596951D01*
X190583063Y-86831149D01*
X190554188Y-87075678D01*
X172610000Y-87075678D01*
X172610000Y-86981810D01*
X172563884Y-86749973D01*
X172473426Y-86531587D01*
X172342101Y-86335045D01*
X172263279Y-86256223D01*
X191001578Y-86256223D01*
X191810000Y-87064645D01*
X192618422Y-86256223D01*
X192527915Y-86069343D01*
X192313049Y-85949088D01*
X192078851Y-85873063D01*
X191834322Y-85844188D01*
X191588857Y-85863574D01*
X191351892Y-85930474D01*
X191132531Y-86042320D01*
X191092085Y-86069343D01*
X191001578Y-86256223D01*
X172263279Y-86256223D01*
X172174955Y-86167899D01*
X171978413Y-86036574D01*
X171760027Y-85946116D01*
X171528190Y-85900000D01*
X171291810Y-85900000D01*
X171059973Y-85946116D01*
X170841587Y-86036574D01*
X170645045Y-86167899D01*
X170477899Y-86335045D01*
X170346574Y-86531587D01*
X170256116Y-86749973D01*
X170210000Y-86981810D01*
X167654557Y-86981810D01*
X167646426Y-86878857D01*
X167579526Y-86641892D01*
X167467680Y-86422531D01*
X167440657Y-86382085D01*
X167253777Y-86291578D01*
X166445355Y-87100000D01*
X166374645Y-87100000D01*
X165566223Y-86291578D01*
X165379343Y-86382085D01*
X165259088Y-86596951D01*
X165183063Y-86831149D01*
X165154188Y-87075678D01*
X147210000Y-87075678D01*
X147210000Y-86981810D01*
X147163884Y-86749973D01*
X147073426Y-86531587D01*
X146942101Y-86335045D01*
X146863279Y-86256223D01*
X165601578Y-86256223D01*
X166410000Y-87064645D01*
X167218422Y-86256223D01*
X167127915Y-86069343D01*
X166913049Y-85949088D01*
X166678851Y-85873063D01*
X166434322Y-85844188D01*
X166188857Y-85863574D01*
X165951892Y-85930474D01*
X165732531Y-86042320D01*
X165692085Y-86069343D01*
X165601578Y-86256223D01*
X146863279Y-86256223D01*
X146774955Y-86167899D01*
X146578413Y-86036574D01*
X146360027Y-85946116D01*
X146128190Y-85900000D01*
X145891810Y-85900000D01*
X145659973Y-85946116D01*
X145441587Y-86036574D01*
X145245045Y-86167899D01*
X145077899Y-86335045D01*
X144946574Y-86531587D01*
X144856116Y-86749973D01*
X144810000Y-86981810D01*
X142254557Y-86981810D01*
X142246426Y-86878857D01*
X142179526Y-86641892D01*
X142067680Y-86422531D01*
X142040657Y-86382085D01*
X141853777Y-86291578D01*
X141045355Y-87100000D01*
X140974645Y-87100000D01*
X140166223Y-86291578D01*
X139979343Y-86382085D01*
X139859088Y-86596951D01*
X139783063Y-86831149D01*
X139754188Y-87075678D01*
X121810000Y-87075678D01*
X121810000Y-86981810D01*
X121763884Y-86749973D01*
X121673426Y-86531587D01*
X121542101Y-86335045D01*
X121463279Y-86256223D01*
X140201578Y-86256223D01*
X141010000Y-87064645D01*
X141818422Y-86256223D01*
X141727915Y-86069343D01*
X141513049Y-85949088D01*
X141278851Y-85873063D01*
X141034322Y-85844188D01*
X140788857Y-85863574D01*
X140551892Y-85930474D01*
X140332531Y-86042320D01*
X140292085Y-86069343D01*
X140201578Y-86256223D01*
X121463279Y-86256223D01*
X121374955Y-86167899D01*
X121178413Y-86036574D01*
X120960027Y-85946116D01*
X120728190Y-85900000D01*
X120491810Y-85900000D01*
X120259973Y-85946116D01*
X120041587Y-86036574D01*
X119845045Y-86167899D01*
X119677899Y-86335045D01*
X119546574Y-86531587D01*
X119456116Y-86749973D01*
X119410000Y-86981810D01*
X116854557Y-86981810D01*
X116846426Y-86878857D01*
X116779526Y-86641892D01*
X116667680Y-86422531D01*
X116640657Y-86382085D01*
X116453777Y-86291578D01*
X115645355Y-87100000D01*
X115574645Y-87100000D01*
X114766223Y-86291578D01*
X114579343Y-86382085D01*
X114459088Y-86596951D01*
X114383063Y-86831149D01*
X114354188Y-87075678D01*
X103245000Y-87075678D01*
X103245000Y-86256223D01*
X114801578Y-86256223D01*
X115610000Y-87064645D01*
X116418422Y-86256223D01*
X116327915Y-86069343D01*
X116113049Y-85949088D01*
X115878851Y-85873063D01*
X115634322Y-85844188D01*
X115388857Y-85863574D01*
X115151892Y-85930474D01*
X114932531Y-86042320D01*
X114892085Y-86069343D01*
X114801578Y-86256223D01*
X103245000Y-86256223D01*
X103245000Y-85465000D01*
X204095001Y-85465000D01*
X204095000Y-124085000D01*
G04 #@! TD*
M02*
